pygame 2.6.1 (SDL 2.28.4, Python 3.12.10)
Hello from the pygame community. https://www.pygame.org/contribute.html
Track 0: allstar
MetaMessage('track_name', name='allstar', time=0)
MetaMessage('text', text='By Smash Mouth', time=0)
MetaMessage('copyright', text='Copyright © 1999 by Smash Mouth', time=0)
MetaMessage('copyright', text='All Rights Reserved', time=0)
MetaMessage('text', text='Generated by NoteWorthy Composer', time=0)
MetaMessage('set_tempo', tempo=555555, time=0)
MetaMessage('key_signature', key='G', time=0)
MetaMessage('time_signature', numerator=4, denominator=4, clocks_per_click=24, notated_32nd_notes_per_beat=8, time=0)
MetaMessage('end_of_track', time=0)
Track 1: Staff
MetaMessage('midi_port', port=0, time=0)
MetaMessage('track_name', name='Staff', time=0)
program_change channel=0 program=29 time=0
control_change channel=0 control=7 value=127 time=0
control_change channel=0 control=10 value=64 time=0
note_on channel=0 note=54 velocity=110 time=576
note_on channel=0 note=54 velocity=0 time=160
note_on channel=0 note=61 velocity=110 time=32
note_on channel=0 note=61 velocity=0 time=94
note_on channel=0 note=58 velocity=110 time=2
note_on channel=0 note=58 velocity=0 time=94
note_on channel=0 note=58 velocity=110 time=2
note_on channel=0 note=58 velocity=0 time=160
note_on channel=0 note=56 velocity=110 time=32
note_on channel=0 note=56 velocity=0 time=94
note_on channel=0 note=54 velocity=110 time=2
note_on channel=0 note=54 velocity=0 time=94
note_on channel=0 note=54 velocity=110 time=2
note_on channel=0 note=54 velocity=0 time=94
note_on channel=0 note=59 velocity=110 time=2
note_on channel=0 note=59 velocity=0 time=190
note_on channel=0 note=58 velocity=110 time=2
note_on channel=0 note=58 velocity=0 time=94
note_on channel=0 note=58 velocity=110 time=2
note_on channel=0 note=58 velocity=0 time=94
note_on channel=0 note=56 velocity=110 time=2
note_on channel=0 note=56 velocity=0 time=94
note_on channel=0 note=56 velocity=110 time=2
note_on channel=0 note=56 velocity=0 time=94
note_on channel=0 note=54 velocity=110 time=2
note_on channel=0 note=54 velocity=0 time=94
note_on channel=0 note=54 velocity=110 time=98
note_on channel=0 note=54 velocity=0 time=94
note_on channel=0 note=61 velocity=110 time=2
note_on channel=0 note=61 velocity=0 time=94
note_on channel=0 note=58 velocity=110 time=2
note_on channel=0 note=58 velocity=0 time=94
note_on channel=0 note=58 velocity=110 time=2
note_on channel=0 note=58 velocity=0 time=94
note_on channel=0 note=56 velocity=110 time=2
note_on channel=0 note=56 velocity=0 time=94
note_on channel=0 note=56 velocity=110 time=2
note_on channel=0 note=56 velocity=0 time=94
note_on channel=0 note=54 velocity=110 time=2
note_on channel=0 note=54 velocity=0 time=94
note_on channel=0 note=54 velocity=110 time=2
note_on channel=0 note=54 velocity=0 time=94
note_on channel=0 note=51 velocity=110 time=2
note_on channel=0 note=51 velocity=0 time=190
note_on channel=0 note=49 velocity=110 time=2
note_on channel=0 note=49 velocity=0 time=256
note_on channel=0 note=54 velocity=110 time=224
note_on channel=0 note=54 velocity=0 time=94
note_on channel=0 note=54 velocity=110 time=2
note_on channel=0 note=54 velocity=0 time=94
note_on channel=0 note=61 velocity=110 time=2
note_on channel=0 note=61 velocity=0 time=94
note_on channel=0 note=58 velocity=110 time=2
note_on channel=0 note=58 velocity=0 time=94
note_on channel=0 note=58 velocity=110 time=2
note_on channel=0 note=58 velocity=0 time=94
note_on channel=0 note=56 velocity=110 time=2
note_on channel=0 note=56 velocity=0 time=94
note_on channel=0 note=56 velocity=110 time=2
note_on channel=0 note=56 velocity=0 time=94
note_on channel=0 note=54 velocity=110 time=2
note_on channel=0 note=54 velocity=0 time=94
note_on channel=0 note=54 velocity=110 time=2
note_on channel=0 note=54 velocity=0 time=94
note_on channel=0 note=59 velocity=110 time=2
note_on channel=0 note=59 velocity=0 time=190
note_on channel=0 note=58 velocity=110 time=2
note_on channel=0 note=58 velocity=0 time=94
note_on channel=0 note=58 velocity=110 time=2
note_on channel=0 note=58 velocity=0 time=94
note_on channel=0 note=56 velocity=110 time=2
note_on channel=0 note=56 velocity=0 time=94
note_on channel=0 note=56 velocity=110 time=2
note_on channel=0 note=56 velocity=0 time=94
note_on channel=0 note=54 velocity=110 time=2
note_on channel=0 note=54 velocity=0 time=94
note_on channel=0 note=54 velocity=110 time=2
note_on channel=0 note=54 velocity=0 time=94
note_on channel=0 note=61 velocity=110 time=2
note_on channel=0 note=61 velocity=0 time=190
note_on channel=0 note=58 velocity=110 time=2
note_on channel=0 note=58 velocity=0 time=94
note_on channel=0 note=58 velocity=110 time=2
note_on channel=0 note=58 velocity=0 time=94
note_on channel=0 note=56 velocity=110 time=2
note_on channel=0 note=56 velocity=0 time=190
note_on channel=0 note=54 velocity=110 time=2
note_on channel=0 note=54 velocity=0 time=94
note_on channel=0 note=54 velocity=110 time=2
note_on channel=0 note=54 velocity=0 time=94
note_on channel=0 note=56 velocity=110 time=2
note_on channel=0 note=56 velocity=0 time=190
note_on channel=0 note=51 velocity=110 time=2
note_on channel=0 note=51 velocity=0 time=256
note_on channel=0 note=54 velocity=110 time=224
note_on channel=0 note=54 velocity=0 time=142
note_on channel=0 note=54 velocity=110 time=2
note_on channel=0 note=54 velocity=0 time=46
note_on channel=0 note=54 velocity=110 time=2
note_on channel=0 note=54 velocity=0 time=94
note_on channel=0 note=54 velocity=110 time=2
note_on channel=0 note=54 velocity=0 time=94
note_on channel=0 note=54 velocity=110 time=2
note_on channel=0 note=54 velocity=0 time=46
note_on channel=0 note=54 velocity=110 time=2
note_on channel=0 note=54 velocity=0 time=46
note_on channel=0 note=54 velocity=110 time=2
note_on channel=0 note=54 velocity=0 time=46
note_on channel=0 note=54 velocity=110 time=2
note_on channel=0 note=54 velocity=0 time=46
note_on channel=0 note=54 velocity=110 time=2
note_on channel=0 note=54 velocity=0 time=94
note_on channel=0 note=54 velocity=110 time=2
note_on channel=0 note=54 velocity=0 time=94
note_on channel=0 note=54 velocity=110 time=2
note_on channel=0 note=54 velocity=0 time=46
note_on channel=0 note=54 velocity=110 time=2
note_on channel=0 note=54 velocity=0 time=46
note_on channel=0 note=54 velocity=110 time=98
note_on channel=0 note=54 velocity=0 time=94
note_on channel=0 note=54 velocity=110 time=2
note_on channel=0 note=54 velocity=0 time=46
note_on channel=0 note=54 velocity=110 time=2
note_on channel=0 note=54 velocity=0 time=46
note_on channel=0 note=54 velocity=110 time=2
note_on channel=0 note=54 velocity=0 time=94
note_on channel=0 note=54 velocity=110 time=2
note_on channel=0 note=54 velocity=0 time=46
note_on channel=0 note=54 velocity=110 time=2
note_on channel=0 note=54 velocity=0 time=46
note_on channel=0 note=54 velocity=110 time=2
note_on channel=0 note=54 velocity=0 time=46
note_on channel=0 note=54 velocity=110 time=2
note_on channel=0 note=54 velocity=0 time=46
note_on channel=0 note=54 velocity=110 time=2
note_on channel=0 note=54 velocity=0 time=94
note_on channel=0 note=58 velocity=110 time=2
note_on channel=0 note=58 velocity=0 time=46
note_on channel=0 note=54 velocity=110 time=2
note_on channel=0 note=54 velocity=0 time=46
note_on channel=0 note=58 velocity=110 time=98
note_on channel=0 note=58 velocity=0 time=46
note_on channel=0 note=61 velocity=110 time=2
note_on channel=0 note=61 velocity=0 time=46
note_on channel=0 note=61 velocity=110 time=2
note_on channel=0 note=61 velocity=0 time=94
note_on channel=0 note=61 velocity=110 time=2
note_on channel=0 note=61 velocity=0 time=94
note_on channel=0 note=59 velocity=110 time=2
note_on channel=0 note=59 velocity=0 time=46
note_on channel=0 note=59 velocity=110 time=2
note_on channel=0 note=59 velocity=0 time=46
note_on channel=0 note=58 velocity=110 time=2
note_on channel=0 note=58 velocity=0 time=94
note_on channel=0 note=58 velocity=110 time=2
note_on channel=0 note=58 velocity=0 time=94
note_on channel=0 note=58 velocity=110 time=2
note_on channel=0 note=58 velocity=0 time=94
note_on channel=0 note=49 velocity=110 time=50
note_on channel=0 note=49 velocity=0 time=46
note_on channel=0 note=58 velocity=110 time=2
note_on channel=0 note=58 velocity=0 time=94
note_on channel=0 note=54 velocity=110 time=2
note_on channel=0 note=54 velocity=0 time=94
note_on channel=0 note=54 velocity=110 time=2
note_on channel=0 note=54 velocity=0 time=94
note_on channel=0 note=54 velocity=110 time=2
note_on channel=0 note=54 velocity=0 time=46
note_on channel=0 note=51 velocity=110 time=2
note_on channel=0 note=51 velocity=0 time=46
note_on channel=0 note=54 velocity=110 time=2
note_on channel=0 note=54 velocity=0 time=94
note_on channel=0 note=54 velocity=110 time=2
note_on channel=0 note=54 velocity=0 time=94
note_on channel=0 note=51 velocity=110 time=2
note_on channel=0 note=51 velocity=0 time=46
note_on channel=0 note=49 velocity=110 time=2
note_on channel=0 note=49 velocity=0 time=46
note_on channel=0 note=58 velocity=110 time=98
note_on channel=0 note=58 velocity=0 time=46
note_on channel=0 note=61 velocity=110 time=2
note_on channel=0 note=61 velocity=0 time=94
note_on channel=0 note=58 velocity=110 time=2
note_on channel=0 note=58 velocity=0 time=46
note_on channel=0 note=63 velocity=110 time=2
note_on channel=0 note=63 velocity=0 time=94
note_on channel=0 note=58 velocity=110 time=2
note_on channel=0 note=58 velocity=0 time=46
note_on channel=0 note=61 velocity=110 time=2
note_on channel=0 note=61 velocity=0 time=94
note_on channel=0 note=58 velocity=110 time=2
note_on channel=0 note=58 velocity=0 time=46
note_on channel=0 note=63 velocity=110 time=2
note_on channel=0 note=63 velocity=0 time=94
note_on channel=0 note=58 velocity=110 time=2
note_on channel=0 note=58 velocity=0 time=46
note_on channel=0 note=61 velocity=110 time=2
note_on channel=0 note=61 velocity=0 time=94
note_on channel=0 note=59 velocity=110 time=2
note_on channel=0 note=59 velocity=0 time=94
note_on channel=0 note=58 velocity=110 time=2
note_on channel=0 note=58 velocity=0 time=94
note_on channel=0 note=56 velocity=110 time=2
note_on channel=0 note=56 velocity=0 time=94
note_on channel=0 note=56 velocity=110 time=2
note_on channel=0 note=56 velocity=0 time=94
note_on channel=0 note=54 velocity=110 time=2
note_on channel=0 note=54 velocity=0 time=46
note_on channel=0 note=56 velocity=110 time=2
note_on channel=0 note=56 velocity=0 time=94
note_on channel=0 note=54 velocity=110 time=2
note_on channel=0 note=54 velocity=0 time=94
note_on channel=0 note=49 velocity=110 time=146
note_on channel=0 note=49 velocity=0 time=46
note_on channel=0 note=54 velocity=110 time=2
note_on channel=0 note=54 velocity=0 time=46
note_on channel=0 note=54 velocity=110 time=2
note_on channel=0 note=54 velocity=0 time=46
note_on channel=0 note=54 velocity=110 time=2
note_on channel=0 note=54 velocity=0 time=94
note_on channel=0 note=54 velocity=110 time=2
note_on channel=0 note=54 velocity=0 time=46
note_on channel=0 note=54 velocity=110 time=2
note_on channel=0 note=54 velocity=0 time=46
note_on channel=0 note=54 velocity=110 time=2
note_on channel=0 note=54 velocity=0 time=94
note_on channel=0 note=54 velocity=110 time=2
note_on channel=0 note=54 velocity=0 time=94
note_on channel=0 note=49 velocity=110 time=242
note_on channel=0 note=49 velocity=0 time=46
note_on channel=0 note=58 velocity=110 time=2
note_on channel=0 note=58 velocity=0 time=46
note_on channel=0 note=54 velocity=110 time=2
note_on channel=0 note=54 velocity=0 time=46
note_on channel=0 note=54 velocity=110 time=2
note_on channel=0 note=54 velocity=0 time=94
note_on channel=0 note=54 velocity=110 time=2
note_on channel=0 note=54 velocity=0 time=46
note_on channel=0 note=51 velocity=110 time=2
note_on channel=0 note=51 velocity=0 time=46
note_on channel=0 note=51 velocity=110 time=2
note_on channel=0 note=51 velocity=0 time=94
note_on channel=0 note=51 velocity=110 time=2
note_on channel=0 note=51 velocity=0 time=160
note_on channel=0 note=58 velocity=110 time=224
note_on channel=0 note=58 velocity=0 time=94
note_on channel=0 note=54 velocity=110 time=2
note_on channel=0 note=54 velocity=0 time=190
note_on channel=0 note=54 velocity=110 time=2
note_on channel=0 note=54 velocity=0 time=46
note_on channel=0 note=51 velocity=110 time=2
note_on channel=0 note=51 velocity=0 time=46
note_on channel=0 note=54 velocity=110 time=2
note_on channel=0 note=54 velocity=0 time=94
note_on channel=0 note=54 velocity=110 time=2
note_on channel=0 note=54 velocity=0 time=94
note_on channel=0 note=54 velocity=110 time=98
note_on channel=0 note=54 velocity=0 time=46
note_on channel=0 note=51 velocity=110 time=2
note_on channel=0 note=51 velocity=0 time=46
note_on channel=0 note=54 velocity=110 time=2
note_on channel=0 note=54 velocity=0 time=94
note_on channel=0 note=54 velocity=110 time=2
note_on channel=0 note=54 velocity=0 time=94
note_on channel=0 note=54 velocity=110 time=98
note_on channel=0 note=54 velocity=0 time=94
note_on channel=0 note=58 velocity=110 time=98
note_on channel=0 note=58 velocity=0 time=256
note_on channel=0 note=58 velocity=110 time=32
note_on channel=0 note=58 velocity=0 time=94
note_on channel=0 note=54 velocity=110 time=2
note_on channel=0 note=54 velocity=0 time=190
note_on channel=0 note=54 velocity=110 time=2
note_on channel=0 note=54 velocity=0 time=46
note_on channel=0 note=51 velocity=110 time=2
note_on channel=0 note=51 velocity=0 time=46
note_on channel=0 note=54 velocity=110 time=2
note_on channel=0 note=54 velocity=0 time=94
note_on channel=0 note=54 velocity=110 time=2
note_on channel=0 note=54 velocity=0 time=94
note_on channel=0 note=54 velocity=110 time=98
note_on channel=0 note=54 velocity=0 time=46
note_on channel=0 note=51 velocity=110 time=2
note_on channel=0 note=51 velocity=0 time=46
note_on channel=0 note=54 velocity=110 time=2
note_on channel=0 note=54 velocity=0 time=94
note_on channel=0 note=54 velocity=110 time=2
note_on channel=0 note=54 velocity=0 time=94
note_on channel=0 note=54 velocity=110 time=98
note_on channel=0 note=54 velocity=0 time=94
note_on channel=0 note=58 velocity=110 time=98
note_on channel=0 note=58 velocity=0 time=256
note_on channel=0 note=58 velocity=110 time=32
note_on channel=0 note=58 velocity=0 time=160
note_on channel=0 note=61 velocity=110 time=32
note_on channel=0 note=61 velocity=0 time=142
note_on channel=0 note=61 velocity=110 time=2
note_on channel=0 note=61 velocity=0 time=46
note_on channel=0 note=59 velocity=110 time=2
note_on channel=0 note=59 velocity=0 time=94
note_on channel=0 note=58 velocity=110 time=2
note_on channel=0 note=58 velocity=0 time=94
note_on channel=0 note=56 velocity=110 time=2
note_on channel=0 note=56 velocity=0 time=94
note_on channel=0 note=56 velocity=110 time=2
note_on channel=0 note=56 velocity=0 time=94
note_on channel=0 note=54 velocity=110 time=2
note_on channel=0 note=54 velocity=0 time=334
note_on channel=0 note=54 velocity=110 time=50
note_on channel=0 note=54 velocity=0 time=94
note_on channel=0 note=54 velocity=110 time=2
note_on channel=0 note=54 velocity=0 time=94
note_on channel=0 note=56 velocity=110 time=2
note_on channel=0 note=56 velocity=0 time=94
note_on channel=0 note=54 velocity=110 time=2
note_on channel=0 note=54 velocity=0 time=94
note_on channel=0 note=58 velocity=110 time=2
note_on channel=0 note=58 velocity=0 time=94
note_on channel=0 note=56 velocity=110 time=2
note_on channel=0 note=56 velocity=0 time=256
note_on channel=0 note=56 velocity=110 time=32
note_on channel=0 note=56 velocity=0 time=94
note_on channel=0 note=54 velocity=110 time=2
note_on channel=0 note=54 velocity=0 time=190
note_on channel=0 note=56 velocity=110 time=2
note_on channel=0 note=56 velocity=0 time=94
note_on channel=0 note=58 velocity=110 time=2
note_on channel=0 note=58 velocity=0 time=94
note_on channel=0 note=51 velocity=110 time=2
note_on channel=0 note=51 velocity=0 time=574
note_on channel=0 note=54 velocity=110 time=2
note_on channel=0 note=54 velocity=0 time=46
note_on channel=0 note=54 velocity=110 time=2
note_on channel=0 note=54 velocity=0 time=46
note_on channel=0 note=54 velocity=110 time=2
note_on channel=0 note=54 velocity=0 time=94
note_on channel=0 note=54 velocity=110 time=2
note_on channel=0 note=54 velocity=0 time=94
note_on channel=0 note=54 velocity=110 time=98
note_on channel=0 note=54 velocity=0 time=46
note_on channel=0 note=54 velocity=110 time=2
note_on channel=0 note=54 velocity=0 time=46
note_on channel=0 note=54 velocity=110 time=2
note_on channel=0 note=54 velocity=0 time=46
note_on channel=0 note=54 velocity=110 time=2
note_on channel=0 note=54 velocity=0 time=46
note_on channel=0 note=54 velocity=110 time=2
note_on channel=0 note=54 velocity=0 time=94
note_on channel=0 note=54 velocity=110 time=2
note_on channel=0 note=54 velocity=0 time=46
note_on channel=0 note=54 velocity=110 time=2
note_on channel=0 note=54 velocity=0 time=94
note_on channel=0 note=49 velocity=110 time=2
note_on channel=0 note=49 velocity=0 time=46
note_on channel=0 note=54 velocity=110 time=2
note_on channel=0 note=54 velocity=0 time=46
note_on channel=0 note=54 velocity=110 time=2
note_on channel=0 note=54 velocity=0 time=46
note_on channel=0 note=54 velocity=110 time=2
note_on channel=0 note=54 velocity=0 time=94
note_on channel=0 note=54 velocity=110 time=2
note_on channel=0 note=54 velocity=0 time=94
note_on channel=0 note=54 velocity=110 time=2
note_on channel=0 note=54 velocity=0 time=94
note_on channel=0 note=54 velocity=110 time=2
note_on channel=0 note=54 velocity=0 time=46
note_on channel=0 note=54 velocity=110 time=2
note_on channel=0 note=54 velocity=0 time=46
note_on channel=0 note=54 velocity=110 time=2
note_on channel=0 note=54 velocity=0 time=94
note_on channel=0 note=58 velocity=110 time=2
note_on channel=0 note=58 velocity=0 time=46
note_on channel=0 note=54 velocity=110 time=2
note_on channel=0 note=54 velocity=0 time=46
note_on channel=0 note=49 velocity=110 time=2
note_on channel=0 note=49 velocity=0 time=46
note_on channel=0 note=49 velocity=110 time=2
note_on channel=0 note=49 velocity=0 time=46
note_on channel=0 note=58 velocity=110 time=2
note_on channel=0 note=58 velocity=0 time=46
note_on channel=0 note=61 velocity=110 time=2
note_on channel=0 note=61 velocity=0 time=46
note_on channel=0 note=61 velocity=110 time=2
note_on channel=0 note=61 velocity=0 time=46
note_on channel=0 note=59 velocity=110 time=2
note_on channel=0 note=59 velocity=0 time=94
note_on channel=0 note=58 velocity=110 time=2
note_on channel=0 note=58 velocity=0 time=94
note_on channel=0 note=56 velocity=110 time=2
note_on channel=0 note=56 velocity=0 time=46
note_on channel=0 note=56 velocity=110 time=2
note_on channel=0 note=56 velocity=0 time=46
note_on channel=0 note=54 velocity=110 time=2
note_on channel=0 note=54 velocity=0 time=94
note_on channel=0 note=54 velocity=110 time=50
note_on channel=0 note=54 velocity=0 time=46
note_on channel=0 note=54 velocity=110 time=2
note_on channel=0 note=54 velocity=0 time=46
note_on channel=0 note=54 velocity=110 time=2
note_on channel=0 note=54 velocity=0 time=46
note_on channel=0 note=56 velocity=110 time=2
note_on channel=0 note=56 velocity=0 time=46
note_on channel=0 note=58 velocity=110 time=2
note_on channel=0 note=58 velocity=0 time=94
note_on channel=0 note=56 velocity=110 time=2
note_on channel=0 note=56 velocity=0 time=46
note_on channel=0 note=54 velocity=110 time=2
note_on channel=0 note=54 velocity=0 time=46
note_on channel=0 note=56 velocity=110 time=2
note_on channel=0 note=56 velocity=0 time=46
note_on channel=0 note=54 velocity=110 time=2
note_on channel=0 note=54 velocity=0 time=46
note_on channel=0 note=51 velocity=110 time=2
note_on channel=0 note=51 velocity=0 time=94
note_on channel=0 note=51 velocity=110 time=2
note_on channel=0 note=51 velocity=0 time=46
note_on channel=0 note=51 velocity=110 time=2
note_on channel=0 note=51 velocity=0 time=46
note_on channel=0 note=49 velocity=110 time=50
note_on channel=0 note=49 velocity=0 time=46
note_on channel=0 note=58 velocity=110 time=2
note_on channel=0 note=58 velocity=0 time=94
note_on channel=0 note=61 velocity=110 time=2
note_on channel=0 note=61 velocity=0 time=94
note_on channel=0 note=63 velocity=110 time=2
note_on channel=0 note=63 velocity=0 time=94
note_on channel=0 note=49 velocity=110 time=50
note_on channel=0 note=49 velocity=0 time=46
note_on channel=0 note=58 velocity=110 time=2
note_on channel=0 note=58 velocity=0 time=46
note_on channel=0 note=54 velocity=110 time=2
note_on channel=0 note=54 velocity=0 time=46
note_on channel=0 note=54 velocity=110 time=2
note_on channel=0 note=54 velocity=0 time=46
note_on channel=0 note=54 velocity=110 time=2
note_on channel=0 note=54 velocity=0 time=46
note_on channel=0 note=54 velocity=110 time=2
note_on channel=0 note=54 velocity=0 time=94
note_on channel=0 note=49 velocity=110 time=50
note_on channel=0 note=49 velocity=0 time=46
note_on channel=0 note=54 velocity=110 time=2
note_on channel=0 note=54 velocity=0 time=46
note_on channel=0 note=56 velocity=110 time=2
note_on channel=0 note=56 velocity=0 time=46
note_on channel=0 note=58 velocity=110 time=2
note_on channel=0 note=58 velocity=0 time=46
note_on channel=0 note=61 velocity=110 time=2
note_on channel=0 note=61 velocity=0 time=46
note_on channel=0 note=59 velocity=110 time=2
note_on channel=0 note=59 velocity=0 time=94
note_on channel=0 note=58 velocity=110 time=2
note_on channel=0 note=58 velocity=0 time=46
note_on channel=0 note=56 velocity=110 time=2
note_on channel=0 note=56 velocity=0 time=46
note_on channel=0 note=58 velocity=110 time=2
note_on channel=0 note=58 velocity=0 time=46
note_on channel=0 note=56 velocity=110 time=2
note_on channel=0 note=56 velocity=0 time=46
note_on channel=0 note=51 velocity=110 time=2
note_on channel=0 note=51 velocity=0 time=94
note_on channel=0 note=51 velocity=110 time=2
note_on channel=0 note=51 velocity=0 time=94
note_on channel=0 note=49 velocity=110 time=50
note_on channel=0 note=49 velocity=0 time=46
note_on channel=0 note=63 velocity=110 time=2
note_on channel=0 note=63 velocity=0 time=94
note_on channel=0 note=61 velocity=110 time=2
note_on channel=0 note=61 velocity=0 time=94
note_on channel=0 note=61 velocity=110 time=2
note_on channel=0 note=61 velocity=0 time=46
note_on channel=0 note=61 velocity=110 time=2
note_on channel=0 note=61 velocity=0 time=46
note_on channel=0 note=58 velocity=110 time=98
note_on channel=0 note=58 velocity=0 time=46
note_on channel=0 note=54 velocity=110 time=2
note_on channel=0 note=54 velocity=0 time=94
note_on channel=0 note=54 velocity=110 time=2
note_on channel=0 note=54 velocity=0 time=94
note_on channel=0 note=54 velocity=110 time=146
note_on channel=0 note=54 velocity=0 time=46
note_on channel=0 note=54 velocity=110 time=2
note_on channel=0 note=54 velocity=0 time=46
note_on channel=0 note=54 velocity=110 time=2
note_on channel=0 note=54 velocity=0 time=46
note_on channel=0 note=56 velocity=110 time=2
note_on channel=0 note=56 velocity=0 time=46
note_on channel=0 note=58 velocity=110 time=2
note_on channel=0 note=58 velocity=0 time=46
note_on channel=0 note=54 velocity=110 time=2
note_on channel=0 note=54 velocity=0 time=46
note_on channel=0 note=54 velocity=110 time=2
note_on channel=0 note=54 velocity=0 time=46
note_on channel=0 note=56 velocity=110 time=2
note_on channel=0 note=56 velocity=0 time=46
note_on channel=0 note=58 velocity=110 time=2
note_on channel=0 note=58 velocity=0 time=46
note_on channel=0 note=54 velocity=110 time=2
note_on channel=0 note=54 velocity=0 time=46
note_on channel=0 note=51 velocity=110 time=2
note_on channel=0 note=51 velocity=0 time=94
note_on channel=0 note=51 velocity=110 time=2
note_on channel=0 note=51 velocity=0 time=160
note_on channel=0 note=58 velocity=110 time=224
note_on channel=0 note=58 velocity=0 time=94
note_on channel=0 note=54 velocity=110 time=2
note_on channel=0 note=54 velocity=0 time=190
note_on channel=0 note=54 velocity=110 time=2
note_on channel=0 note=54 velocity=0 time=46
note_on channel=0 note=51 velocity=110 time=2
note_on channel=0 note=51 velocity=0 time=46
note_on channel=0 note=54 velocity=110 time=2
note_on channel=0 note=54 velocity=0 time=94
note_on channel=0 note=54 velocity=110 time=2
note_on channel=0 note=54 velocity=0 time=94
note_on channel=0 note=54 velocity=110 time=98
note_on channel=0 note=54 velocity=0 time=46
note_on channel=0 note=51 velocity=110 time=2
note_on channel=0 note=51 velocity=0 time=46
note_on channel=0 note=54 velocity=110 time=2
note_on channel=0 note=54 velocity=0 time=94
note_on channel=0 note=54 velocity=110 time=2
note_on channel=0 note=54 velocity=0 time=94
note_on channel=0 note=54 velocity=110 time=98
note_on channel=0 note=54 velocity=0 time=94
note_on channel=0 note=58 velocity=110 time=98
note_on channel=0 note=58 velocity=0 time=256
note_on channel=0 note=58 velocity=110 time=32
note_on channel=0 note=58 velocity=0 time=94
note_on channel=0 note=54 velocity=110 time=2
note_on channel=0 note=54 velocity=0 time=190
note_on channel=0 note=54 velocity=110 time=2
note_on channel=0 note=54 velocity=0 time=46
note_on channel=0 note=51 velocity=110 time=2
note_on channel=0 note=51 velocity=0 time=46
note_on channel=0 note=54 velocity=110 time=2
note_on channel=0 note=54 velocity=0 time=94
note_on channel=0 note=54 velocity=110 time=2
note_on channel=0 note=54 velocity=0 time=94
note_on channel=0 note=54 velocity=110 time=98
note_on channel=0 note=54 velocity=0 time=46
note_on channel=0 note=51 velocity=110 time=2
note_on channel=0 note=51 velocity=0 time=46
note_on channel=0 note=54 velocity=110 time=2
note_on channel=0 note=54 velocity=0 time=94
note_on channel=0 note=54 velocity=110 time=2
note_on channel=0 note=54 velocity=0 time=94
note_on channel=0 note=54 velocity=110 time=98
note_on channel=0 note=54 velocity=0 time=94
note_on channel=0 note=58 velocity=110 time=98
note_on channel=0 note=58 velocity=0 time=256
note_on channel=0 note=58 velocity=110 time=32
note_on channel=0 note=58 velocity=0 time=160
note_on channel=0 note=61 velocity=110 time=32
note_on channel=0 note=61 velocity=0 time=142
note_on channel=0 note=61 velocity=110 time=2
note_on channel=0 note=61 velocity=0 time=46
note_on channel=0 note=59 velocity=110 time=2
note_on channel=0 note=59 velocity=0 time=94
note_on channel=0 note=58 velocity=110 time=2
note_on channel=0 note=58 velocity=0 time=94
note_on channel=0 note=56 velocity=110 time=2
note_on channel=0 note=56 velocity=0 time=94
note_on channel=0 note=56 velocity=110 time=2
note_on channel=0 note=56 velocity=0 time=94
note_on channel=0 note=54 velocity=110 time=2
note_on channel=0 note=54 velocity=0 time=334
note_on channel=0 note=54 velocity=110 time=50
note_on channel=0 note=54 velocity=0 time=94
note_on channel=0 note=54 velocity=110 time=2
note_on channel=0 note=54 velocity=0 time=94
note_on channel=0 note=56 velocity=110 time=2
note_on channel=0 note=56 velocity=0 time=94
note_on channel=0 note=54 velocity=110 time=2
note_on channel=0 note=54 velocity=0 time=94
note_on channel=0 note=58 velocity=110 time=2
note_on channel=0 note=58 velocity=0 time=94
note_on channel=0 note=56 velocity=110 time=2
note_on channel=0 note=56 velocity=0 time=256
note_on channel=0 note=56 velocity=110 time=32
note_on channel=0 note=56 velocity=0 time=94
note_on channel=0 note=54 velocity=110 time=2
note_on channel=0 note=54 velocity=0 time=190
note_on channel=0 note=56 velocity=110 time=2
note_on channel=0 note=56 velocity=0 time=94
note_on channel=0 note=58 velocity=110 time=2
note_on channel=0 note=58 velocity=0 time=94
note_on channel=0 note=51 velocity=110 time=2
note_on channel=0 note=51 velocity=0 time=622
note_on channel=0 note=58 velocity=110 time=6194
note_on channel=0 note=58 velocity=0 time=94
note_on channel=0 note=54 velocity=110 time=2
note_on channel=0 note=54 velocity=0 time=190
note_on channel=0 note=54 velocity=110 time=2
note_on channel=0 note=54 velocity=0 time=46
note_on channel=0 note=51 velocity=110 time=2
note_on channel=0 note=51 velocity=0 time=46
note_on channel=0 note=54 velocity=110 time=2
note_on channel=0 note=54 velocity=0 time=94
note_on channel=0 note=54 velocity=110 time=2
note_on channel=0 note=54 velocity=0 time=94
note_on channel=0 note=54 velocity=110 time=98
note_on channel=0 note=54 velocity=0 time=46
note_on channel=0 note=51 velocity=110 time=2
note_on channel=0 note=51 velocity=0 time=46
note_on channel=0 note=54 velocity=110 time=2
note_on channel=0 note=54 velocity=0 time=94
note_on channel=0 note=54 velocity=110 time=2
note_on channel=0 note=54 velocity=0 time=94
note_on channel=0 note=54 velocity=110 time=98
note_on channel=0 note=54 velocity=0 time=94
note_on channel=0 note=58 velocity=110 time=98
note_on channel=0 note=58 velocity=0 time=256
note_on channel=0 note=58 velocity=110 time=32
note_on channel=0 note=58 velocity=0 time=94
note_on channel=0 note=54 velocity=110 time=2
note_on channel=0 note=54 velocity=0 time=190
note_on channel=0 note=54 velocity=110 time=2
note_on channel=0 note=54 velocity=0 time=46
note_on channel=0 note=51 velocity=110 time=2
note_on channel=0 note=51 velocity=0 time=46
note_on channel=0 note=54 velocity=110 time=2
note_on channel=0 note=54 velocity=0 time=94
note_on channel=0 note=54 velocity=110 time=2
note_on channel=0 note=54 velocity=0 time=94
note_on channel=0 note=54 velocity=110 time=98
note_on channel=0 note=54 velocity=0 time=46
note_on channel=0 note=51 velocity=110 time=2
note_on channel=0 note=51 velocity=0 time=46
note_on channel=0 note=54 velocity=110 time=2
note_on channel=0 note=54 velocity=0 time=94
note_on channel=0 note=54 velocity=110 time=2
note_on channel=0 note=54 velocity=0 time=94
note_on channel=0 note=54 velocity=110 time=98
note_on channel=0 note=54 velocity=0 time=94
note_on channel=0 note=58 velocity=110 time=98
note_on channel=0 note=58 velocity=0 time=190
note_on channel=0 note=49 velocity=110 time=2
note_on channel=0 note=49 velocity=0 time=94
note_on channel=0 note=58 velocity=110 time=2
note_on channel=0 note=58 velocity=0 time=160
note_on channel=0 note=61 velocity=110 time=32
note_on channel=0 note=61 velocity=0 time=142
note_on channel=0 note=61 velocity=110 time=2
note_on channel=0 note=61 velocity=0 time=46
note_on channel=0 note=59 velocity=110 time=2
note_on channel=0 note=59 velocity=0 time=94
note_on channel=0 note=61 velocity=110 time=2
note_on channel=0 note=61 velocity=0 time=94
note_on channel=0 note=63 velocity=110 time=2
note_on channel=0 note=63 velocity=0 time=94
note_on channel=0 note=66 velocity=110 time=2
note_on channel=0 note=66 velocity=0 time=430
note_on channel=0 note=54 velocity=110 time=50
note_on channel=0 note=54 velocity=0 time=94
note_on channel=0 note=54 velocity=110 time=2
note_on channel=0 note=54 velocity=0 time=94
note_on channel=0 note=56 velocity=110 time=2
note_on channel=0 note=56 velocity=0 time=94
note_on channel=0 note=54 velocity=110 time=2
note_on channel=0 note=54 velocity=0 time=94
note_on channel=0 note=58 velocity=110 time=2
note_on channel=0 note=58 velocity=0 time=94
note_on channel=0 note=56 velocity=110 time=2
note_on channel=0 note=56 velocity=0 time=256
note_on channel=0 note=54 velocity=110 time=224
note_on channel=0 note=54 velocity=0 time=160
note_on channel=0 note=61 velocity=110 time=32
note_on channel=0 note=61 velocity=0 time=94
note_on channel=0 note=58 velocity=110 time=2
note_on channel=0 note=58 velocity=0 time=94
note_on channel=0 note=58 velocity=110 time=2
note_on channel=0 note=58 velocity=0 time=160
note_on channel=0 note=56 velocity=110 time=32
note_on channel=0 note=56 velocity=0 time=94
note_on channel=0 note=54 velocity=110 time=2
note_on channel=0 note=54 velocity=0 time=94
note_on channel=0 note=54 velocity=110 time=2
note_on channel=0 note=54 velocity=0 time=94
note_on channel=0 note=59 velocity=110 time=2
note_on channel=0 note=59 velocity=0 time=190
note_on channel=0 note=58 velocity=110 time=2
note_on channel=0 note=58 velocity=0 time=94
note_on channel=0 note=58 velocity=110 time=2
note_on channel=0 note=58 velocity=0 time=94
note_on channel=0 note=56 velocity=110 time=2
note_on channel=0 note=56 velocity=0 time=94
note_on channel=0 note=56 velocity=110 time=2
note_on channel=0 note=56 velocity=0 time=94
note_on channel=0 note=54 velocity=110 time=2
note_on channel=0 note=54 velocity=0 time=94
note_on channel=0 note=56 velocity=110 time=2
note_on channel=0 note=56 velocity=0 time=94
note_on channel=0 note=54 velocity=110 time=2
note_on channel=0 note=54 velocity=0 time=94
note_on channel=0 note=61 velocity=110 time=2
note_on channel=0 note=61 velocity=0 time=94
note_on channel=0 note=58 velocity=110 time=2
note_on channel=0 note=58 velocity=0 time=94
note_on channel=0 note=58 velocity=110 time=2
note_on channel=0 note=58 velocity=0 time=94
note_on channel=0 note=56 velocity=110 time=2
note_on channel=0 note=56 velocity=0 time=94
note_on channel=0 note=56 velocity=110 time=2
note_on channel=0 note=56 velocity=0 time=94
note_on channel=0 note=54 velocity=110 time=2
note_on channel=0 note=54 velocity=0 time=94
note_on channel=0 note=54 velocity=110 time=2
note_on channel=0 note=54 velocity=0 time=94
note_on channel=0 note=51 velocity=110 time=2
note_on channel=0 note=51 velocity=0 time=190
note_on channel=0 note=49 velocity=110 time=2
note_on channel=0 note=49 velocity=0 time=256
note_on channel=0 note=61 velocity=110 time=224
note_on channel=0 note=61 velocity=0 time=46
note_on channel=0 note=61 velocity=110 time=2
note_on channel=0 note=61 velocity=0 time=142
note_on channel=0 note=61 velocity=110 time=2
note_on channel=0 note=61 velocity=0 time=160
note_on channel=0 note=58 velocity=110 time=32
note_on channel=0 note=58 velocity=0 time=46
note_on channel=0 note=56 velocity=110 time=2
note_on channel=0 note=56 velocity=0 time=46
note_on channel=0 note=58 velocity=110 time=2
note_on channel=0 note=58 velocity=0 time=94
note_on channel=0 note=56 velocity=110 time=2
note_on channel=0 note=56 velocity=0 time=94
note_on channel=0 note=56 velocity=110 time=98
note_on channel=0 note=56 velocity=0 time=46
note_on channel=0 note=61 velocity=110 time=2
note_on channel=0 note=61 velocity=0 time=142
note_on channel=0 note=59 velocity=110 time=2
note_on channel=0 note=59 velocity=0 time=46
note_on channel=0 note=58 velocity=110 time=2
note_on channel=0 note=58 velocity=0 time=46
note_on channel=0 note=59 velocity=110 time=2
note_on channel=0 note=59 velocity=0 time=46
note_on channel=0 note=58 velocity=110 time=2
note_on channel=0 note=58 velocity=0 time=46
note_on channel=0 note=59 velocity=110 time=2
note_on channel=0 note=59 velocity=0 time=94
note_on channel=0 note=54 velocity=110 time=2
note_on channel=0 note=54 velocity=0 time=94
note_on channel=0 note=51 velocity=110 time=2
note_on channel=0 note=51 velocity=0 time=94
note_on channel=0 note=49 velocity=110 time=2
note_on channel=0 note=49 velocity=0 time=94
note_on channel=0 note=51 velocity=110 time=2
note_on channel=0 note=51 velocity=0 time=94
note_on channel=0 note=49 velocity=110 time=2
note_on channel=0 note=49 velocity=0 time=94
note_on channel=0 note=61 velocity=110 time=2
note_on channel=0 note=61 velocity=0 time=160
note_on channel=0 note=58 velocity=110 time=32
note_on channel=0 note=58 velocity=0 time=94
note_on channel=0 note=58 velocity=110 time=2
note_on channel=0 note=58 velocity=0 time=94
note_on channel=0 note=56 velocity=110 time=2
note_on channel=0 note=56 velocity=0 time=94
note_on channel=0 note=54 velocity=110 time=2
note_on channel=0 note=54 velocity=0 time=94
note_on channel=0 note=56 velocity=110 time=98
note_on channel=0 note=56 velocity=0 time=190
note_on channel=0 note=58 velocity=110 time=2
note_on channel=0 note=58 velocity=0 time=430
note_on channel=0 note=61 velocity=110 time=50
note_on channel=0 note=61 velocity=0 time=142
note_on channel=0 note=61 velocity=110 time=2
note_on channel=0 note=61 velocity=0 time=46
note_on channel=0 note=61 velocity=110 time=2
note_on channel=0 note=61 velocity=0 time=94
note_on channel=0 note=61 velocity=110 time=2
note_on channel=0 note=61 velocity=0 time=94
note_on channel=0 note=61 velocity=110 time=2
note_on channel=0 note=61 velocity=0 time=46
note_on channel=0 note=61 velocity=110 time=2
note_on channel=0 note=61 velocity=0 time=46
note_on channel=0 note=61 velocity=110 time=2
note_on channel=0 note=61 velocity=0 time=46
note_on channel=0 note=61 velocity=110 time=2
note_on channel=0 note=61 velocity=0 time=46
note_on channel=0 note=61 velocity=110 time=2
note_on channel=0 note=61 velocity=0 time=94
note_on channel=0 note=61 velocity=110 time=2
note_on channel=0 note=61 velocity=0 time=94
note_on channel=0 note=61 velocity=110 time=2
note_on channel=0 note=61 velocity=0 time=46
note_on channel=0 note=61 velocity=110 time=2
note_on channel=0 note=61 velocity=0 time=46
note_on channel=0 note=61 velocity=110 time=98
note_on channel=0 note=61 velocity=0 time=94
note_on channel=0 note=61 velocity=110 time=2
note_on channel=0 note=61 velocity=0 time=46
note_on channel=0 note=61 velocity=110 time=2
note_on channel=0 note=61 velocity=0 time=46
note_on channel=0 note=61 velocity=110 time=2
note_on channel=0 note=61 velocity=0 time=94
note_on channel=0 note=61 velocity=110 time=2
note_on channel=0 note=61 velocity=0 time=46
note_on channel=0 note=61 velocity=110 time=2
note_on channel=0 note=61 velocity=0 time=46
note_on channel=0 note=61 velocity=110 time=2
note_on channel=0 note=61 velocity=0 time=46
note_on channel=0 note=61 velocity=110 time=2
note_on channel=0 note=61 velocity=0 time=46
note_on channel=0 note=61 velocity=110 time=2
note_on channel=0 note=61 velocity=0 time=94
note_on channel=0 note=63 velocity=110 time=2
note_on channel=0 note=63 velocity=0 time=46
note_on channel=0 note=61 velocity=110 time=2
note_on channel=0 note=61 velocity=0 time=46
note_on channel=0 note=58 velocity=110 time=98
note_on channel=0 note=58 velocity=0 time=46
note_on channel=0 note=61 velocity=110 time=2
note_on channel=0 note=61 velocity=0 time=46
note_on channel=0 note=61 velocity=110 time=2
note_on channel=0 note=61 velocity=0 time=94
note_on channel=0 note=61 velocity=110 time=2
note_on channel=0 note=61 velocity=0 time=94
note_on channel=0 note=59 velocity=110 time=2
note_on channel=0 note=59 velocity=0 time=46
note_on channel=0 note=59 velocity=110 time=2
note_on channel=0 note=59 velocity=0 time=46
note_on channel=0 note=58 velocity=110 time=2
note_on channel=0 note=58 velocity=0 time=94
note_on channel=0 note=58 velocity=110 time=2
note_on channel=0 note=58 velocity=0 time=94
note_on channel=0 note=58 velocity=110 time=2
note_on channel=0 note=58 velocity=0 time=94
note_on channel=0 note=49 velocity=110 time=50
note_on channel=0 note=49 velocity=0 time=46
note_on channel=0 note=58 velocity=110 time=2
note_on channel=0 note=58 velocity=0 time=94
note_on channel=0 note=54 velocity=110 time=2
note_on channel=0 note=54 velocity=0 time=94
note_on channel=0 note=54 velocity=110 time=2
note_on channel=0 note=54 velocity=0 time=94
note_on channel=0 note=54 velocity=110 time=2
note_on channel=0 note=54 velocity=0 time=46
note_on channel=0 note=51 velocity=110 time=2
note_on channel=0 note=51 velocity=0 time=46
note_on channel=0 note=54 velocity=110 time=2
note_on channel=0 note=54 velocity=0 time=94
note_on channel=0 note=54 velocity=110 time=2
note_on channel=0 note=54 velocity=0 time=94
note_on channel=0 note=51 velocity=110 time=2
note_on channel=0 note=51 velocity=0 time=46
note_on channel=0 note=49 velocity=110 time=2
note_on channel=0 note=49 velocity=0 time=46
note_on channel=0 note=58 velocity=110 time=98
note_on channel=0 note=58 velocity=0 time=46
note_on channel=0 note=61 velocity=110 time=2
note_on channel=0 note=61 velocity=0 time=94
note_on channel=0 note=58 velocity=110 time=2
note_on channel=0 note=58 velocity=0 time=46
note_on channel=0 note=63 velocity=110 time=2
note_on channel=0 note=63 velocity=0 time=94
note_on channel=0 note=58 velocity=110 time=2
note_on channel=0 note=58 velocity=0 time=46
note_on channel=0 note=61 velocity=110 time=2
note_on channel=0 note=61 velocity=0 time=94
note_on channel=0 note=58 velocity=110 time=2
note_on channel=0 note=58 velocity=0 time=46
note_on channel=0 note=63 velocity=110 time=2
note_on channel=0 note=63 velocity=0 time=94
note_on channel=0 note=58 velocity=110 time=2
note_on channel=0 note=58 velocity=0 time=46
note_on channel=0 note=61 velocity=110 time=2
note_on channel=0 note=61 velocity=0 time=94
note_on channel=0 note=59 velocity=110 time=2
note_on channel=0 note=59 velocity=0 time=94
note_on channel=0 note=58 velocity=110 time=2
note_on channel=0 note=58 velocity=0 time=94
note_on channel=0 note=56 velocity=110 time=2
note_on channel=0 note=56 velocity=0 time=94
note_on channel=0 note=56 velocity=110 time=2
note_on channel=0 note=56 velocity=0 time=94
note_on channel=0 note=54 velocity=110 time=2
note_on channel=0 note=54 velocity=0 time=46
note_on channel=0 note=56 velocity=110 time=2
note_on channel=0 note=56 velocity=0 time=94
note_on channel=0 note=54 velocity=110 time=2
note_on channel=0 note=54 velocity=0 time=94
note_on channel=0 note=49 velocity=110 time=146
note_on channel=0 note=49 velocity=0 time=46
note_on channel=0 note=54 velocity=110 time=2
note_on channel=0 note=54 velocity=0 time=46
note_on channel=0 note=54 velocity=110 time=2
note_on channel=0 note=54 velocity=0 time=46
note_on channel=0 note=54 velocity=110 time=2
note_on channel=0 note=54 velocity=0 time=94
note_on channel=0 note=54 velocity=110 time=2
note_on channel=0 note=54 velocity=0 time=46
note_on channel=0 note=54 velocity=110 time=2
note_on channel=0 note=54 velocity=0 time=46
note_on channel=0 note=54 velocity=110 time=2
note_on channel=0 note=54 velocity=0 time=94
note_on channel=0 note=54 velocity=110 time=2
note_on channel=0 note=54 velocity=0 time=94
note_on channel=0 note=49 velocity=110 time=242
note_on channel=0 note=49 velocity=0 time=46
note_on channel=0 note=63 velocity=110 time=2
note_on channel=0 note=63 velocity=0 time=46
note_on channel=0 note=61 velocity=110 time=2
note_on channel=0 note=61 velocity=0 time=46
note_on channel=0 note=61 velocity=110 time=2
note_on channel=0 note=61 velocity=0 time=94
note_on channel=0 note=61 velocity=110 time=2
note_on channel=0 note=61 velocity=0 time=46
note_on channel=0 note=61 velocity=110 time=2
note_on channel=0 note=61 velocity=0 time=46
note_on channel=0 note=61 velocity=110 time=2
note_on channel=0 note=61 velocity=0 time=94
note_on channel=0 note=61 velocity=110 time=2
note_on channel=0 note=61 velocity=0 time=160
note_on channel=0 note=58 velocity=110 time=224
note_on channel=0 note=58 velocity=0 time=94
note_on channel=0 note=54 velocity=110 time=2
note_on channel=0 note=54 velocity=0 time=190
note_on channel=0 note=54 velocity=110 time=2
note_on channel=0 note=54 velocity=0 time=46
note_on channel=0 note=51 velocity=110 time=2
note_on channel=0 note=51 velocity=0 time=46
note_on channel=0 note=54 velocity=110 time=2
note_on channel=0 note=54 velocity=0 time=94
note_on channel=0 note=54 velocity=110 time=2
note_on channel=0 note=54 velocity=0 time=94
note_on channel=0 note=54 velocity=110 time=98
note_on channel=0 note=54 velocity=0 time=46
note_on channel=0 note=51 velocity=110 time=2
note_on channel=0 note=51 velocity=0 time=46
note_on channel=0 note=54 velocity=110 time=2
note_on channel=0 note=54 velocity=0 time=94
note_on channel=0 note=54 velocity=110 time=2
note_on channel=0 note=54 velocity=0 time=94
note_on channel=0 note=54 velocity=110 time=98
note_on channel=0 note=54 velocity=0 time=94
note_on channel=0 note=58 velocity=110 time=98
note_on channel=0 note=58 velocity=0 time=256
note_on channel=0 note=58 velocity=110 time=32
note_on channel=0 note=58 velocity=0 time=94
note_on channel=0 note=54 velocity=110 time=2
note_on channel=0 note=54 velocity=0 time=190
note_on channel=0 note=54 velocity=110 time=2
note_on channel=0 note=54 velocity=0 time=46
note_on channel=0 note=51 velocity=110 time=2
note_on channel=0 note=51 velocity=0 time=46
note_on channel=0 note=54 velocity=110 time=2
note_on channel=0 note=54 velocity=0 time=94
note_on channel=0 note=54 velocity=110 time=2
note_on channel=0 note=54 velocity=0 time=94
note_on channel=0 note=54 velocity=110 time=98
note_on channel=0 note=54 velocity=0 time=46
note_on channel=0 note=51 velocity=110 time=2
note_on channel=0 note=51 velocity=0 time=46
note_on channel=0 note=54 velocity=110 time=2
note_on channel=0 note=54 velocity=0 time=94
note_on channel=0 note=54 velocity=110 time=2
note_on channel=0 note=54 velocity=0 time=94
note_on channel=0 note=54 velocity=110 time=98
note_on channel=0 note=54 velocity=0 time=94
note_on channel=0 note=58 velocity=110 time=98
note_on channel=0 note=58 velocity=0 time=190
note_on channel=0 note=49 velocity=110 time=2
note_on channel=0 note=49 velocity=0 time=94
note_on channel=0 note=58 velocity=110 time=2
note_on channel=0 note=58 velocity=0 time=160
note_on channel=0 note=61 velocity=110 time=32
note_on channel=0 note=61 velocity=0 time=142
note_on channel=0 note=61 velocity=110 time=2
note_on channel=0 note=61 velocity=0 time=46
note_on channel=0 note=59 velocity=110 time=2
note_on channel=0 note=59 velocity=0 time=94
note_on channel=0 note=61 velocity=110 time=2
note_on channel=0 note=61 velocity=0 time=94
note_on channel=0 note=63 velocity=110 time=2
note_on channel=0 note=63 velocity=0 time=94
note_on channel=0 note=66 velocity=110 time=2
note_on channel=0 note=66 velocity=0 time=94
note_on channel=0 note=68 velocity=110 time=2
note_on channel=0 note=68 velocity=0 time=94
note_on channel=0 note=66 velocity=110 time=2
note_on channel=0 note=66 velocity=0 time=256
note_on channel=0 note=54 velocity=110 time=32
note_on channel=0 note=54 velocity=0 time=94
note_on channel=0 note=54 velocity=110 time=2
note_on channel=0 note=54 velocity=0 time=94
note_on channel=0 note=56 velocity=110 time=2
note_on channel=0 note=56 velocity=0 time=94
note_on channel=0 note=54 velocity=110 time=2
note_on channel=0 note=54 velocity=0 time=94
note_on channel=0 note=61 velocity=110 time=2
note_on channel=0 note=61 velocity=0 time=94
note_on channel=0 note=58 velocity=110 time=2
note_on channel=0 note=58 velocity=0 time=256
note_on channel=0 note=56 velocity=110 time=32
note_on channel=0 note=56 velocity=0 time=94
note_on channel=0 note=54 velocity=110 time=2
note_on channel=0 note=54 velocity=0 time=190
note_on channel=0 note=56 velocity=110 time=2
note_on channel=0 note=56 velocity=0 time=94
note_on channel=0 note=58 velocity=110 time=2
note_on channel=0 note=58 velocity=0 time=94
note_on channel=0 note=54 velocity=110 time=2
note_on channel=0 note=54 velocity=0 time=526
note_on channel=0 note=49 velocity=110 time=50
note_on channel=0 note=49 velocity=0 time=94
note_on channel=0 note=58 velocity=110 time=2
note_on channel=0 note=58 velocity=0 time=160
note_on channel=0 note=61 velocity=110 time=32
note_on channel=0 note=61 velocity=0 time=142
note_on channel=0 note=61 velocity=110 time=2
note_on channel=0 note=61 velocity=0 time=46
note_on channel=0 note=59 velocity=110 time=2
note_on channel=0 note=59 velocity=0 time=94
note_on channel=0 note=61 velocity=110 time=2
note_on channel=0 note=61 velocity=0 time=94
note_on channel=0 note=63 velocity=110 time=2
note_on channel=0 note=63 velocity=0 time=94
note_on channel=0 note=66 velocity=110 time=2
note_on channel=0 note=66 velocity=0 time=94
note_on channel=0 note=68 velocity=110 time=2
note_on channel=0 note=68 velocity=0 time=94
note_on channel=0 note=66 velocity=110 time=2
note_on channel=0 note=66 velocity=0 time=256
note_on channel=0 note=54 velocity=110 time=32
note_on channel=0 note=54 velocity=0 time=94
note_on channel=0 note=54 velocity=110 time=2
note_on channel=0 note=54 velocity=0 time=94
note_on channel=0 note=56 velocity=110 time=2
note_on channel=0 note=56 velocity=0 time=94
note_on channel=0 note=54 velocity=110 time=2
note_on channel=0 note=54 velocity=0 time=94
note_on channel=0 note=61 velocity=110 time=2
note_on channel=0 note=61 velocity=0 time=94
note_on channel=0 note=58 velocity=110 time=2
note_on channel=0 note=58 velocity=0 time=256
note_on channel=0 note=56 velocity=110 time=32
note_on channel=0 note=56 velocity=0 time=94
note_on channel=0 note=54 velocity=110 time=2
note_on channel=0 note=54 velocity=0 time=190
note_on channel=0 note=56 velocity=110 time=2
note_on channel=0 note=56 velocity=0 time=94
note_on channel=0 note=58 velocity=110 time=2
note_on channel=0 note=58 velocity=0 time=94
note_on channel=0 note=51 velocity=110 time=2
note_on channel=0 note=51 velocity=0 time=526
MetaMessage('end_of_track', time=0)
Track 2: Staff-5
MetaMessage('midi_port', port=0, time=0)
MetaMessage('track_name', name='Staff-5', time=0)
program_change channel=4 program=27 time=0
control_change channel=4 control=7 value=127 time=0
control_change channel=4 control=10 value=64 time=0
note_on channel=4 note=39 velocity=110 time=12864
note_on channel=4 note=39 velocity=0 time=142
note_on channel=4 note=41 velocity=110 time=2
note_on channel=4 note=41 velocity=0 time=46
note_on channel=4 note=42 velocity=110 time=2
note_on channel=4 note=49 velocity=110 time=0
note_on channel=4 note=42 velocity=0 time=94
note_on channel=4 note=49 velocity=0 time=0
note_on channel=4 note=42 velocity=110 time=2
note_on channel=4 note=49 velocity=110 time=0
note_on channel=4 note=42 velocity=0 time=94
note_on channel=4 note=49 velocity=0 time=0
note_on channel=4 note=42 velocity=110 time=2
note_on channel=4 note=49 velocity=110 time=0
note_on channel=4 note=42 velocity=0 time=94
note_on channel=4 note=49 velocity=0 time=0
note_on channel=4 note=42 velocity=110 time=2
note_on channel=4 note=49 velocity=110 time=0
note_on channel=4 note=42 velocity=0 time=94
note_on channel=4 note=49 velocity=0 time=0
note_on channel=4 note=47 velocity=110 time=2
note_on channel=4 note=54 velocity=110 time=0
note_on channel=4 note=47 velocity=0 time=94
note_on channel=4 note=54 velocity=0 time=0
note_on channel=4 note=47 velocity=110 time=2
note_on channel=4 note=54 velocity=110 time=0
note_on channel=4 note=47 velocity=0 time=94
note_on channel=4 note=54 velocity=0 time=0
note_on channel=4 note=47 velocity=110 time=2
note_on channel=4 note=54 velocity=110 time=0
note_on channel=4 note=47 velocity=0 time=94
note_on channel=4 note=54 velocity=0 time=0
note_on channel=4 note=47 velocity=110 time=2
note_on channel=4 note=54 velocity=110 time=0
note_on channel=4 note=47 velocity=0 time=94
note_on channel=4 note=54 velocity=0 time=0
note_on channel=4 note=48 velocity=110 time=2
note_on channel=4 note=54 velocity=110 time=0
note_on channel=4 note=48 velocity=0 time=94
note_on channel=4 note=54 velocity=0 time=0
note_on channel=4 note=48 velocity=110 time=2
note_on channel=4 note=54 velocity=110 time=0
note_on channel=4 note=48 velocity=0 time=94
note_on channel=4 note=54 velocity=0 time=0
note_on channel=4 note=48 velocity=110 time=2
note_on channel=4 note=54 velocity=110 time=0
note_on channel=4 note=48 velocity=0 time=94
note_on channel=4 note=54 velocity=0 time=0
note_on channel=4 note=48 velocity=110 time=2
note_on channel=4 note=54 velocity=110 time=0
note_on channel=4 note=48 velocity=0 time=94
note_on channel=4 note=54 velocity=0 time=0
note_on channel=4 note=47 velocity=110 time=2
note_on channel=4 note=54 velocity=110 time=0
note_on channel=4 note=47 velocity=0 time=94
note_on channel=4 note=54 velocity=0 time=0
note_on channel=4 note=47 velocity=110 time=2
note_on channel=4 note=54 velocity=110 time=0
note_on channel=4 note=47 velocity=0 time=94
note_on channel=4 note=54 velocity=0 time=0
note_on channel=4 note=47 velocity=110 time=2
note_on channel=4 note=54 velocity=110 time=0
note_on channel=4 note=47 velocity=0 time=94
note_on channel=4 note=54 velocity=0 time=0
note_on channel=4 note=47 velocity=110 time=2
note_on channel=4 note=54 velocity=110 time=0
note_on channel=4 note=47 velocity=0 time=94
note_on channel=4 note=54 velocity=0 time=0
note_on channel=4 note=42 velocity=110 time=2
note_on channel=4 note=49 velocity=110 time=0
note_on channel=4 note=42 velocity=0 time=94
note_on channel=4 note=49 velocity=0 time=0
note_on channel=4 note=42 velocity=110 time=2
note_on channel=4 note=49 velocity=110 time=0
note_on channel=4 note=42 velocity=0 time=94
note_on channel=4 note=49 velocity=0 time=0
note_on channel=4 note=42 velocity=110 time=2
note_on channel=4 note=49 velocity=110 time=0
note_on channel=4 note=42 velocity=0 time=94
note_on channel=4 note=49 velocity=0 time=0
note_on channel=4 note=42 velocity=110 time=2
note_on channel=4 note=49 velocity=110 time=0
note_on channel=4 note=42 velocity=0 time=94
note_on channel=4 note=49 velocity=0 time=0
note_on channel=4 note=47 velocity=110 time=2
note_on channel=4 note=54 velocity=110 time=0
note_on channel=4 note=47 velocity=0 time=94
note_on channel=4 note=54 velocity=0 time=0
note_on channel=4 note=47 velocity=110 time=2
note_on channel=4 note=54 velocity=110 time=0
note_on channel=4 note=47 velocity=0 time=94
note_on channel=4 note=54 velocity=0 time=0
note_on channel=4 note=47 velocity=110 time=2
note_on channel=4 note=54 velocity=110 time=0
note_on channel=4 note=47 velocity=0 time=94
note_on channel=4 note=54 velocity=0 time=0
note_on channel=4 note=47 velocity=110 time=2
note_on channel=4 note=54 velocity=110 time=0
note_on channel=4 note=47 velocity=0 time=94
note_on channel=4 note=54 velocity=0 time=0
note_on channel=4 note=48 velocity=110 time=2
note_on channel=4 note=54 velocity=110 time=0
note_on channel=4 note=48 velocity=0 time=94
note_on channel=4 note=54 velocity=0 time=0
note_on channel=4 note=48 velocity=110 time=2
note_on channel=4 note=54 velocity=110 time=0
note_on channel=4 note=48 velocity=0 time=94
note_on channel=4 note=54 velocity=0 time=0
note_on channel=4 note=48 velocity=110 time=2
note_on channel=4 note=54 velocity=110 time=0
note_on channel=4 note=48 velocity=0 time=94
note_on channel=4 note=54 velocity=0 time=0
note_on channel=4 note=48 velocity=110 time=2
note_on channel=4 note=54 velocity=110 time=0
note_on channel=4 note=48 velocity=0 time=94
note_on channel=4 note=54 velocity=0 time=0
note_on channel=4 note=47 velocity=110 time=2
note_on channel=4 note=54 velocity=110 time=0
note_on channel=4 note=47 velocity=0 time=94
note_on channel=4 note=54 velocity=0 time=0
note_on channel=4 note=47 velocity=110 time=2
note_on channel=4 note=54 velocity=110 time=0
note_on channel=4 note=47 velocity=0 time=94
note_on channel=4 note=54 velocity=0 time=0
note_on channel=4 note=47 velocity=110 time=2
note_on channel=4 note=54 velocity=110 time=0
note_on channel=4 note=47 velocity=0 time=94
note_on channel=4 note=54 velocity=0 time=0
note_on channel=4 note=47 velocity=110 time=2
note_on channel=4 note=54 velocity=110 time=0
note_on channel=4 note=47 velocity=0 time=94
note_on channel=4 note=54 velocity=0 time=0
note_on channel=4 note=42 velocity=110 time=2
note_on channel=4 note=49 velocity=110 time=0
note_on channel=4 note=42 velocity=0 time=94
note_on channel=4 note=49 velocity=0 time=0
note_on channel=4 note=42 velocity=110 time=2
note_on channel=4 note=49 velocity=110 time=0
note_on channel=4 note=42 velocity=0 time=94
note_on channel=4 note=49 velocity=0 time=0
note_on channel=4 note=42 velocity=110 time=2
note_on channel=4 note=49 velocity=110 time=0
note_on channel=4 note=42 velocity=0 time=94
note_on channel=4 note=49 velocity=0 time=0
note_on channel=4 note=42 velocity=110 time=2
note_on channel=4 note=49 velocity=110 time=0
note_on channel=4 note=42 velocity=0 time=94
note_on channel=4 note=49 velocity=0 time=0
note_on channel=4 note=47 velocity=110 time=2
note_on channel=4 note=54 velocity=110 time=0
note_on channel=4 note=47 velocity=0 time=94
note_on channel=4 note=54 velocity=0 time=0
note_on channel=4 note=47 velocity=110 time=2
note_on channel=4 note=54 velocity=110 time=0
note_on channel=4 note=47 velocity=0 time=94
note_on channel=4 note=54 velocity=0 time=0
note_on channel=4 note=47 velocity=110 time=2
note_on channel=4 note=54 velocity=110 time=0
note_on channel=4 note=47 velocity=0 time=94
note_on channel=4 note=54 velocity=0 time=0
note_on channel=4 note=47 velocity=110 time=2
note_on channel=4 note=54 velocity=110 time=0
note_on channel=4 note=47 velocity=0 time=94
note_on channel=4 note=54 velocity=0 time=0
note_on channel=4 note=48 velocity=110 time=2
note_on channel=4 note=54 velocity=110 time=0
note_on channel=4 note=48 velocity=0 time=94
note_on channel=4 note=54 velocity=0 time=0
note_on channel=4 note=48 velocity=110 time=2
note_on channel=4 note=54 velocity=110 time=0
note_on channel=4 note=48 velocity=0 time=94
note_on channel=4 note=54 velocity=0 time=0
note_on channel=4 note=48 velocity=110 time=2
note_on channel=4 note=54 velocity=110 time=0
note_on channel=4 note=48 velocity=0 time=94
note_on channel=4 note=54 velocity=0 time=0
note_on channel=4 note=48 velocity=110 time=2
note_on channel=4 note=54 velocity=110 time=0
note_on channel=4 note=48 velocity=0 time=94
note_on channel=4 note=54 velocity=0 time=0
note_on channel=4 note=47 velocity=110 time=2
note_on channel=4 note=54 velocity=110 time=0
note_on channel=4 note=47 velocity=0 time=94
note_on channel=4 note=54 velocity=0 time=0
note_on channel=4 note=47 velocity=110 time=2
note_on channel=4 note=54 velocity=110 time=0
note_on channel=4 note=47 velocity=0 time=94
note_on channel=4 note=54 velocity=0 time=0
note_on channel=4 note=47 velocity=110 time=2
note_on channel=4 note=54 velocity=110 time=0
note_on channel=4 note=47 velocity=0 time=94
note_on channel=4 note=54 velocity=0 time=0
note_on channel=4 note=47 velocity=110 time=2
note_on channel=4 note=54 velocity=110 time=0
note_on channel=4 note=47 velocity=0 time=94
note_on channel=4 note=54 velocity=0 time=0
note_on channel=4 note=42 velocity=110 time=2
note_on channel=4 note=49 velocity=110 time=0
note_on channel=4 note=42 velocity=0 time=94
note_on channel=4 note=49 velocity=0 time=0
note_on channel=4 note=42 velocity=110 time=2
note_on channel=4 note=49 velocity=110 time=0
note_on channel=4 note=42 velocity=0 time=94
note_on channel=4 note=49 velocity=0 time=0
note_on channel=4 note=42 velocity=110 time=2
note_on channel=4 note=49 velocity=110 time=0
note_on channel=4 note=42 velocity=0 time=94
note_on channel=4 note=49 velocity=0 time=0
note_on channel=4 note=42 velocity=110 time=2
note_on channel=4 note=49 velocity=110 time=0
note_on channel=4 note=42 velocity=0 time=94
note_on channel=4 note=49 velocity=0 time=0
note_on channel=4 note=40 velocity=110 time=2
note_on channel=4 note=47 velocity=110 time=0
note_on channel=4 note=40 velocity=0 time=94
note_on channel=4 note=47 velocity=0 time=0
note_on channel=4 note=40 velocity=110 time=2
note_on channel=4 note=47 velocity=110 time=0
note_on channel=4 note=40 velocity=0 time=94
note_on channel=4 note=47 velocity=0 time=0
note_on channel=4 note=40 velocity=110 time=2
note_on channel=4 note=47 velocity=110 time=0
note_on channel=4 note=40 velocity=0 time=94
note_on channel=4 note=47 velocity=0 time=0
note_on channel=4 note=40 velocity=110 time=2
note_on channel=4 note=47 velocity=110 time=0
note_on channel=4 note=40 velocity=0 time=94
note_on channel=4 note=47 velocity=0 time=0
note_on channel=4 note=42 velocity=110 time=2
note_on channel=4 note=47 velocity=110 time=0
note_on channel=4 note=54 velocity=110 time=0
note_on channel=4 note=42 velocity=0 time=718
note_on channel=4 note=47 velocity=0 time=0
note_on channel=4 note=54 velocity=0 time=0
note_on channel=4 note=39 velocity=110 time=6002
note_on channel=4 note=39 velocity=0 time=142
note_on channel=4 note=41 velocity=110 time=2
note_on channel=4 note=41 velocity=0 time=46
note_on channel=4 note=42 velocity=110 time=2
note_on channel=4 note=49 velocity=110 time=0
note_on channel=4 note=42 velocity=0 time=94
note_on channel=4 note=49 velocity=0 time=0
note_on channel=4 note=42 velocity=110 time=2
note_on channel=4 note=49 velocity=110 time=0
note_on channel=4 note=42 velocity=0 time=94
note_on channel=4 note=49 velocity=0 time=0
note_on channel=4 note=42 velocity=110 time=2
note_on channel=4 note=49 velocity=110 time=0
note_on channel=4 note=42 velocity=0 time=94
note_on channel=4 note=49 velocity=0 time=0
note_on channel=4 note=42 velocity=110 time=2
note_on channel=4 note=49 velocity=110 time=0
note_on channel=4 note=42 velocity=0 time=94
note_on channel=4 note=49 velocity=0 time=0
note_on channel=4 note=47 velocity=110 time=2
note_on channel=4 note=54 velocity=110 time=0
note_on channel=4 note=47 velocity=0 time=94
note_on channel=4 note=54 velocity=0 time=0
note_on channel=4 note=47 velocity=110 time=2
note_on channel=4 note=54 velocity=110 time=0
note_on channel=4 note=47 velocity=0 time=94
note_on channel=4 note=54 velocity=0 time=0
note_on channel=4 note=47 velocity=110 time=2
note_on channel=4 note=54 velocity=110 time=0
note_on channel=4 note=47 velocity=0 time=94
note_on channel=4 note=54 velocity=0 time=0
note_on channel=4 note=47 velocity=110 time=2
note_on channel=4 note=54 velocity=110 time=0
note_on channel=4 note=47 velocity=0 time=94
note_on channel=4 note=54 velocity=0 time=0
note_on channel=4 note=48 velocity=110 time=2
note_on channel=4 note=54 velocity=110 time=0
note_on channel=4 note=48 velocity=0 time=94
note_on channel=4 note=54 velocity=0 time=0
note_on channel=4 note=48 velocity=110 time=2
note_on channel=4 note=54 velocity=110 time=0
note_on channel=4 note=48 velocity=0 time=94
note_on channel=4 note=54 velocity=0 time=0
note_on channel=4 note=48 velocity=110 time=2
note_on channel=4 note=54 velocity=110 time=0
note_on channel=4 note=48 velocity=0 time=94
note_on channel=4 note=54 velocity=0 time=0
note_on channel=4 note=48 velocity=110 time=2
note_on channel=4 note=54 velocity=110 time=0
note_on channel=4 note=48 velocity=0 time=94
note_on channel=4 note=54 velocity=0 time=0
note_on channel=4 note=47 velocity=110 time=2
note_on channel=4 note=54 velocity=110 time=0
note_on channel=4 note=47 velocity=0 time=94
note_on channel=4 note=54 velocity=0 time=0
note_on channel=4 note=47 velocity=110 time=2
note_on channel=4 note=54 velocity=110 time=0
note_on channel=4 note=47 velocity=0 time=94
note_on channel=4 note=54 velocity=0 time=0
note_on channel=4 note=47 velocity=110 time=2
note_on channel=4 note=54 velocity=110 time=0
note_on channel=4 note=47 velocity=0 time=94
note_on channel=4 note=54 velocity=0 time=0
note_on channel=4 note=47 velocity=110 time=2
note_on channel=4 note=54 velocity=110 time=0
note_on channel=4 note=47 velocity=0 time=94
note_on channel=4 note=54 velocity=0 time=0
note_on channel=4 note=42 velocity=110 time=2
note_on channel=4 note=49 velocity=110 time=0
note_on channel=4 note=42 velocity=0 time=94
note_on channel=4 note=49 velocity=0 time=0
note_on channel=4 note=42 velocity=110 time=2
note_on channel=4 note=49 velocity=110 time=0
note_on channel=4 note=42 velocity=0 time=94
note_on channel=4 note=49 velocity=0 time=0
note_on channel=4 note=42 velocity=110 time=2
note_on channel=4 note=49 velocity=110 time=0
note_on channel=4 note=42 velocity=0 time=94
note_on channel=4 note=49 velocity=0 time=0
note_on channel=4 note=42 velocity=110 time=2
note_on channel=4 note=49 velocity=110 time=0
note_on channel=4 note=42 velocity=0 time=94
note_on channel=4 note=49 velocity=0 time=0
note_on channel=4 note=47 velocity=110 time=2
note_on channel=4 note=54 velocity=110 time=0
note_on channel=4 note=47 velocity=0 time=94
note_on channel=4 note=54 velocity=0 time=0
note_on channel=4 note=47 velocity=110 time=2
note_on channel=4 note=54 velocity=110 time=0
note_on channel=4 note=47 velocity=0 time=94
note_on channel=4 note=54 velocity=0 time=0
note_on channel=4 note=47 velocity=110 time=2
note_on channel=4 note=54 velocity=110 time=0
note_on channel=4 note=47 velocity=0 time=94
note_on channel=4 note=54 velocity=0 time=0
note_on channel=4 note=47 velocity=110 time=2
note_on channel=4 note=54 velocity=110 time=0
note_on channel=4 note=47 velocity=0 time=94
note_on channel=4 note=54 velocity=0 time=0
note_on channel=4 note=48 velocity=110 time=2
note_on channel=4 note=54 velocity=110 time=0
note_on channel=4 note=48 velocity=0 time=94
note_on channel=4 note=54 velocity=0 time=0
note_on channel=4 note=48 velocity=110 time=2
note_on channel=4 note=54 velocity=110 time=0
note_on channel=4 note=48 velocity=0 time=94
note_on channel=4 note=54 velocity=0 time=0
note_on channel=4 note=48 velocity=110 time=2
note_on channel=4 note=54 velocity=110 time=0
note_on channel=4 note=48 velocity=0 time=94
note_on channel=4 note=54 velocity=0 time=0
note_on channel=4 note=48 velocity=110 time=2
note_on channel=4 note=54 velocity=110 time=0
note_on channel=4 note=48 velocity=0 time=94
note_on channel=4 note=54 velocity=0 time=0
note_on channel=4 note=47 velocity=110 time=2
note_on channel=4 note=54 velocity=110 time=0
note_on channel=4 note=47 velocity=0 time=94
note_on channel=4 note=54 velocity=0 time=0
note_on channel=4 note=47 velocity=110 time=2
note_on channel=4 note=54 velocity=110 time=0
note_on channel=4 note=47 velocity=0 time=94
note_on channel=4 note=54 velocity=0 time=0
note_on channel=4 note=47 velocity=110 time=2
note_on channel=4 note=54 velocity=110 time=0
note_on channel=4 note=47 velocity=0 time=94
note_on channel=4 note=54 velocity=0 time=0
note_on channel=4 note=47 velocity=110 time=2
note_on channel=4 note=54 velocity=110 time=0
note_on channel=4 note=47 velocity=0 time=94
note_on channel=4 note=54 velocity=0 time=0
note_on channel=4 note=42 velocity=110 time=2
note_on channel=4 note=49 velocity=110 time=0
note_on channel=4 note=42 velocity=0 time=94
note_on channel=4 note=49 velocity=0 time=0
note_on channel=4 note=42 velocity=110 time=2
note_on channel=4 note=49 velocity=110 time=0
note_on channel=4 note=42 velocity=0 time=94
note_on channel=4 note=49 velocity=0 time=0
note_on channel=4 note=42 velocity=110 time=2
note_on channel=4 note=49 velocity=110 time=0
note_on channel=4 note=42 velocity=0 time=94
note_on channel=4 note=49 velocity=0 time=0
note_on channel=4 note=42 velocity=110 time=2
note_on channel=4 note=49 velocity=110 time=0
note_on channel=4 note=42 velocity=0 time=94
note_on channel=4 note=49 velocity=0 time=0
note_on channel=4 note=47 velocity=110 time=2
note_on channel=4 note=54 velocity=110 time=0
note_on channel=4 note=47 velocity=0 time=94
note_on channel=4 note=54 velocity=0 time=0
note_on channel=4 note=47 velocity=110 time=2
note_on channel=4 note=54 velocity=110 time=0
note_on channel=4 note=47 velocity=0 time=94
note_on channel=4 note=54 velocity=0 time=0
note_on channel=4 note=47 velocity=110 time=2
note_on channel=4 note=54 velocity=110 time=0
note_on channel=4 note=47 velocity=0 time=94
note_on channel=4 note=54 velocity=0 time=0
note_on channel=4 note=47 velocity=110 time=2
note_on channel=4 note=54 velocity=110 time=0
note_on channel=4 note=47 velocity=0 time=94
note_on channel=4 note=54 velocity=0 time=0
note_on channel=4 note=48 velocity=110 time=2
note_on channel=4 note=54 velocity=110 time=0
note_on channel=4 note=48 velocity=0 time=94
note_on channel=4 note=54 velocity=0 time=0
note_on channel=4 note=48 velocity=110 time=2
note_on channel=4 note=54 velocity=110 time=0
note_on channel=4 note=48 velocity=0 time=94
note_on channel=4 note=54 velocity=0 time=0
note_on channel=4 note=48 velocity=110 time=2
note_on channel=4 note=54 velocity=110 time=0
note_on channel=4 note=48 velocity=0 time=94
note_on channel=4 note=54 velocity=0 time=0
note_on channel=4 note=48 velocity=110 time=2
note_on channel=4 note=54 velocity=110 time=0
note_on channel=4 note=48 velocity=0 time=94
note_on channel=4 note=54 velocity=0 time=0
note_on channel=4 note=47 velocity=110 time=2
note_on channel=4 note=54 velocity=110 time=0
note_on channel=4 note=47 velocity=0 time=94
note_on channel=4 note=54 velocity=0 time=0
note_on channel=4 note=47 velocity=110 time=2
note_on channel=4 note=54 velocity=110 time=0
note_on channel=4 note=47 velocity=0 time=94
note_on channel=4 note=54 velocity=0 time=0
note_on channel=4 note=47 velocity=110 time=2
note_on channel=4 note=54 velocity=110 time=0
note_on channel=4 note=47 velocity=0 time=94
note_on channel=4 note=54 velocity=0 time=0
note_on channel=4 note=47 velocity=110 time=2
note_on channel=4 note=54 velocity=110 time=0
note_on channel=4 note=47 velocity=0 time=94
note_on channel=4 note=54 velocity=0 time=0
note_on channel=4 note=42 velocity=110 time=2
note_on channel=4 note=49 velocity=110 time=0
note_on channel=4 note=42 velocity=0 time=94
note_on channel=4 note=49 velocity=0 time=0
note_on channel=4 note=42 velocity=110 time=2
note_on channel=4 note=49 velocity=110 time=0
note_on channel=4 note=42 velocity=0 time=94
note_on channel=4 note=49 velocity=0 time=0
note_on channel=4 note=42 velocity=110 time=2
note_on channel=4 note=49 velocity=110 time=0
note_on channel=4 note=42 velocity=0 time=94
note_on channel=4 note=49 velocity=0 time=0
note_on channel=4 note=42 velocity=110 time=2
note_on channel=4 note=49 velocity=110 time=0
note_on channel=4 note=42 velocity=0 time=94
note_on channel=4 note=49 velocity=0 time=0
note_on channel=4 note=40 velocity=110 time=2
note_on channel=4 note=47 velocity=110 time=0
note_on channel=4 note=40 velocity=0 time=94
note_on channel=4 note=47 velocity=0 time=0
note_on channel=4 note=40 velocity=110 time=2
note_on channel=4 note=47 velocity=110 time=0
note_on channel=4 note=40 velocity=0 time=94
note_on channel=4 note=47 velocity=0 time=0
note_on channel=4 note=40 velocity=110 time=2
note_on channel=4 note=47 velocity=110 time=0
note_on channel=4 note=40 velocity=0 time=94
note_on channel=4 note=47 velocity=0 time=0
note_on channel=4 note=40 velocity=110 time=2
note_on channel=4 note=47 velocity=110 time=0
note_on channel=4 note=40 velocity=0 time=94
note_on channel=4 note=47 velocity=0 time=0
note_on channel=4 note=42 velocity=110 time=2
note_on channel=4 note=47 velocity=110 time=0
note_on channel=4 note=54 velocity=110 time=0
note_on channel=4 note=42 velocity=0 time=718
note_on channel=4 note=47 velocity=0 time=0
note_on channel=4 note=54 velocity=0 time=0
note_on channel=4 note=39 velocity=110 time=6002
note_on channel=4 note=39 velocity=0 time=142
note_on channel=4 note=41 velocity=110 time=2
note_on channel=4 note=41 velocity=0 time=46
note_on channel=4 note=42 velocity=110 time=2
note_on channel=4 note=49 velocity=110 time=0
note_on channel=4 note=42 velocity=0 time=94
note_on channel=4 note=49 velocity=0 time=0
note_on channel=4 note=42 velocity=110 time=2
note_on channel=4 note=49 velocity=110 time=0
note_on channel=4 note=42 velocity=0 time=94
note_on channel=4 note=49 velocity=0 time=0
note_on channel=4 note=42 velocity=110 time=2
note_on channel=4 note=49 velocity=110 time=0
note_on channel=4 note=42 velocity=0 time=94
note_on channel=4 note=49 velocity=0 time=0
note_on channel=4 note=42 velocity=110 time=2
note_on channel=4 note=49 velocity=110 time=0
note_on channel=4 note=42 velocity=0 time=94
note_on channel=4 note=49 velocity=0 time=0
note_on channel=4 note=47 velocity=110 time=2
note_on channel=4 note=54 velocity=110 time=0
note_on channel=4 note=47 velocity=0 time=94
note_on channel=4 note=54 velocity=0 time=0
note_on channel=4 note=47 velocity=110 time=2
note_on channel=4 note=54 velocity=110 time=0
note_on channel=4 note=47 velocity=0 time=94
note_on channel=4 note=54 velocity=0 time=0
note_on channel=4 note=47 velocity=110 time=2
note_on channel=4 note=54 velocity=110 time=0
note_on channel=4 note=47 velocity=0 time=94
note_on channel=4 note=54 velocity=0 time=0
note_on channel=4 note=47 velocity=110 time=2
note_on channel=4 note=54 velocity=110 time=0
note_on channel=4 note=47 velocity=0 time=94
note_on channel=4 note=54 velocity=0 time=0
note_on channel=4 note=48 velocity=110 time=2
note_on channel=4 note=54 velocity=110 time=0
note_on channel=4 note=48 velocity=0 time=94
note_on channel=4 note=54 velocity=0 time=0
note_on channel=4 note=48 velocity=110 time=2
note_on channel=4 note=54 velocity=110 time=0
note_on channel=4 note=48 velocity=0 time=94
note_on channel=4 note=54 velocity=0 time=0
note_on channel=4 note=48 velocity=110 time=2
note_on channel=4 note=54 velocity=110 time=0
note_on channel=4 note=48 velocity=0 time=94
note_on channel=4 note=54 velocity=0 time=0
note_on channel=4 note=48 velocity=110 time=2
note_on channel=4 note=54 velocity=110 time=0
note_on channel=4 note=48 velocity=0 time=94
note_on channel=4 note=54 velocity=0 time=0
note_on channel=4 note=47 velocity=110 time=2
note_on channel=4 note=54 velocity=110 time=0
note_on channel=4 note=47 velocity=0 time=94
note_on channel=4 note=54 velocity=0 time=0
note_on channel=4 note=47 velocity=110 time=2
note_on channel=4 note=54 velocity=110 time=0
note_on channel=4 note=47 velocity=0 time=94
note_on channel=4 note=54 velocity=0 time=0
note_on channel=4 note=47 velocity=110 time=2
note_on channel=4 note=54 velocity=110 time=0
note_on channel=4 note=47 velocity=0 time=94
note_on channel=4 note=54 velocity=0 time=0
note_on channel=4 note=47 velocity=110 time=2
note_on channel=4 note=54 velocity=110 time=0
note_on channel=4 note=47 velocity=0 time=94
note_on channel=4 note=54 velocity=0 time=0
note_on channel=4 note=42 velocity=110 time=2
note_on channel=4 note=49 velocity=110 time=0
note_on channel=4 note=42 velocity=0 time=94
note_on channel=4 note=49 velocity=0 time=0
note_on channel=4 note=42 velocity=110 time=2
note_on channel=4 note=49 velocity=110 time=0
note_on channel=4 note=42 velocity=0 time=94
note_on channel=4 note=49 velocity=0 time=0
note_on channel=4 note=42 velocity=110 time=2
note_on channel=4 note=49 velocity=110 time=0
note_on channel=4 note=42 velocity=0 time=94
note_on channel=4 note=49 velocity=0 time=0
note_on channel=4 note=42 velocity=110 time=2
note_on channel=4 note=49 velocity=110 time=0
note_on channel=4 note=42 velocity=0 time=94
note_on channel=4 note=49 velocity=0 time=0
note_on channel=4 note=47 velocity=110 time=2
note_on channel=4 note=54 velocity=110 time=0
note_on channel=4 note=47 velocity=0 time=94
note_on channel=4 note=54 velocity=0 time=0
note_on channel=4 note=47 velocity=110 time=2
note_on channel=4 note=54 velocity=110 time=0
note_on channel=4 note=47 velocity=0 time=94
note_on channel=4 note=54 velocity=0 time=0
note_on channel=4 note=47 velocity=110 time=2
note_on channel=4 note=54 velocity=110 time=0
note_on channel=4 note=47 velocity=0 time=94
note_on channel=4 note=54 velocity=0 time=0
note_on channel=4 note=47 velocity=110 time=2
note_on channel=4 note=54 velocity=110 time=0
note_on channel=4 note=47 velocity=0 time=94
note_on channel=4 note=54 velocity=0 time=0
note_on channel=4 note=48 velocity=110 time=2
note_on channel=4 note=54 velocity=110 time=0
note_on channel=4 note=48 velocity=0 time=94
note_on channel=4 note=54 velocity=0 time=0
note_on channel=4 note=48 velocity=110 time=2
note_on channel=4 note=54 velocity=110 time=0
note_on channel=4 note=48 velocity=0 time=94
note_on channel=4 note=54 velocity=0 time=0
note_on channel=4 note=48 velocity=110 time=2
note_on channel=4 note=54 velocity=110 time=0
note_on channel=4 note=48 velocity=0 time=94
note_on channel=4 note=54 velocity=0 time=0
note_on channel=4 note=48 velocity=110 time=2
note_on channel=4 note=54 velocity=110 time=0
note_on channel=4 note=48 velocity=0 time=94
note_on channel=4 note=54 velocity=0 time=0
note_on channel=4 note=47 velocity=110 time=2
note_on channel=4 note=54 velocity=110 time=0
note_on channel=4 note=47 velocity=0 time=94
note_on channel=4 note=54 velocity=0 time=0
note_on channel=4 note=47 velocity=110 time=2
note_on channel=4 note=54 velocity=110 time=0
note_on channel=4 note=47 velocity=0 time=94
note_on channel=4 note=54 velocity=0 time=0
note_on channel=4 note=47 velocity=110 time=2
note_on channel=4 note=54 velocity=110 time=0
note_on channel=4 note=47 velocity=0 time=94
note_on channel=4 note=54 velocity=0 time=0
note_on channel=4 note=47 velocity=110 time=2
note_on channel=4 note=54 velocity=110 time=0
note_on channel=4 note=47 velocity=0 time=94
note_on channel=4 note=54 velocity=0 time=0
note_on channel=4 note=42 velocity=110 time=2
note_on channel=4 note=49 velocity=110 time=0
note_on channel=4 note=42 velocity=0 time=94
note_on channel=4 note=49 velocity=0 time=0
note_on channel=4 note=42 velocity=110 time=2
note_on channel=4 note=49 velocity=110 time=0
note_on channel=4 note=42 velocity=0 time=94
note_on channel=4 note=49 velocity=0 time=0
note_on channel=4 note=42 velocity=110 time=2
note_on channel=4 note=49 velocity=110 time=0
note_on channel=4 note=42 velocity=0 time=94
note_on channel=4 note=49 velocity=0 time=0
note_on channel=4 note=42 velocity=110 time=2
note_on channel=4 note=49 velocity=110 time=0
note_on channel=4 note=42 velocity=0 time=94
note_on channel=4 note=49 velocity=0 time=0
note_on channel=4 note=47 velocity=110 time=2
note_on channel=4 note=54 velocity=110 time=0
note_on channel=4 note=47 velocity=0 time=94
note_on channel=4 note=54 velocity=0 time=0
note_on channel=4 note=47 velocity=110 time=2
note_on channel=4 note=54 velocity=110 time=0
note_on channel=4 note=47 velocity=0 time=94
note_on channel=4 note=54 velocity=0 time=0
note_on channel=4 note=47 velocity=110 time=2
note_on channel=4 note=54 velocity=110 time=0
note_on channel=4 note=47 velocity=0 time=94
note_on channel=4 note=54 velocity=0 time=0
note_on channel=4 note=47 velocity=110 time=2
note_on channel=4 note=54 velocity=110 time=0
note_on channel=4 note=47 velocity=0 time=94
note_on channel=4 note=54 velocity=0 time=0
note_on channel=4 note=48 velocity=110 time=2
note_on channel=4 note=54 velocity=110 time=0
note_on channel=4 note=48 velocity=0 time=94
note_on channel=4 note=54 velocity=0 time=0
note_on channel=4 note=48 velocity=110 time=2
note_on channel=4 note=54 velocity=110 time=0
note_on channel=4 note=48 velocity=0 time=94
note_on channel=4 note=54 velocity=0 time=0
note_on channel=4 note=48 velocity=110 time=2
note_on channel=4 note=54 velocity=110 time=0
note_on channel=4 note=48 velocity=0 time=94
note_on channel=4 note=54 velocity=0 time=0
note_on channel=4 note=48 velocity=110 time=2
note_on channel=4 note=54 velocity=110 time=0
note_on channel=4 note=48 velocity=0 time=94
note_on channel=4 note=54 velocity=0 time=0
note_on channel=4 note=47 velocity=110 time=2
note_on channel=4 note=54 velocity=110 time=0
note_on channel=4 note=47 velocity=0 time=94
note_on channel=4 note=54 velocity=0 time=0
note_on channel=4 note=47 velocity=110 time=2
note_on channel=4 note=54 velocity=110 time=0
note_on channel=4 note=47 velocity=0 time=94
note_on channel=4 note=54 velocity=0 time=0
note_on channel=4 note=47 velocity=110 time=2
note_on channel=4 note=54 velocity=110 time=0
note_on channel=4 note=47 velocity=0 time=94
note_on channel=4 note=54 velocity=0 time=0
note_on channel=4 note=47 velocity=110 time=2
note_on channel=4 note=54 velocity=110 time=0
note_on channel=4 note=47 velocity=0 time=94
note_on channel=4 note=54 velocity=0 time=0
note_on channel=4 note=42 velocity=110 time=2
note_on channel=4 note=49 velocity=110 time=0
note_on channel=4 note=42 velocity=0 time=94
note_on channel=4 note=49 velocity=0 time=0
note_on channel=4 note=42 velocity=110 time=2
note_on channel=4 note=49 velocity=110 time=0
note_on channel=4 note=42 velocity=0 time=94
note_on channel=4 note=49 velocity=0 time=0
note_on channel=4 note=42 velocity=110 time=2
note_on channel=4 note=49 velocity=110 time=0
note_on channel=4 note=42 velocity=0 time=94
note_on channel=4 note=49 velocity=0 time=0
note_on channel=4 note=42 velocity=110 time=2
note_on channel=4 note=49 velocity=110 time=0
note_on channel=4 note=42 velocity=0 time=94
note_on channel=4 note=49 velocity=0 time=0
note_on channel=4 note=40 velocity=110 time=2
note_on channel=4 note=47 velocity=110 time=0
note_on channel=4 note=40 velocity=0 time=94
note_on channel=4 note=47 velocity=0 time=0
note_on channel=4 note=40 velocity=110 time=2
note_on channel=4 note=47 velocity=110 time=0
note_on channel=4 note=40 velocity=0 time=94
note_on channel=4 note=47 velocity=0 time=0
note_on channel=4 note=40 velocity=110 time=2
note_on channel=4 note=47 velocity=110 time=0
note_on channel=4 note=40 velocity=0 time=94
note_on channel=4 note=47 velocity=0 time=0
note_on channel=4 note=40 velocity=110 time=2
note_on channel=4 note=47 velocity=110 time=0
note_on channel=4 note=40 velocity=0 time=94
note_on channel=4 note=47 velocity=0 time=0
note_on channel=4 note=39 velocity=110 time=12098
note_on channel=4 note=39 velocity=0 time=142
note_on channel=4 note=41 velocity=110 time=2
note_on channel=4 note=41 velocity=0 time=46
note_on channel=4 note=42 velocity=110 time=2
note_on channel=4 note=49 velocity=110 time=0
note_on channel=4 note=42 velocity=0 time=94
note_on channel=4 note=49 velocity=0 time=0
note_on channel=4 note=42 velocity=110 time=2
note_on channel=4 note=49 velocity=110 time=0
note_on channel=4 note=42 velocity=0 time=94
note_on channel=4 note=49 velocity=0 time=0
note_on channel=4 note=42 velocity=110 time=2
note_on channel=4 note=49 velocity=110 time=0
note_on channel=4 note=42 velocity=0 time=94
note_on channel=4 note=49 velocity=0 time=0
note_on channel=4 note=42 velocity=110 time=2
note_on channel=4 note=49 velocity=110 time=0
note_on channel=4 note=42 velocity=0 time=94
note_on channel=4 note=49 velocity=0 time=0
note_on channel=4 note=47 velocity=110 time=2
note_on channel=4 note=54 velocity=110 time=0
note_on channel=4 note=47 velocity=0 time=94
note_on channel=4 note=54 velocity=0 time=0
note_on channel=4 note=47 velocity=110 time=2
note_on channel=4 note=54 velocity=110 time=0
note_on channel=4 note=47 velocity=0 time=94
note_on channel=4 note=54 velocity=0 time=0
note_on channel=4 note=47 velocity=110 time=2
note_on channel=4 note=54 velocity=110 time=0
note_on channel=4 note=47 velocity=0 time=94
note_on channel=4 note=54 velocity=0 time=0
note_on channel=4 note=47 velocity=110 time=2
note_on channel=4 note=54 velocity=110 time=0
note_on channel=4 note=47 velocity=0 time=94
note_on channel=4 note=54 velocity=0 time=0
note_on channel=4 note=48 velocity=110 time=2
note_on channel=4 note=54 velocity=110 time=0
note_on channel=4 note=48 velocity=0 time=94
note_on channel=4 note=54 velocity=0 time=0
note_on channel=4 note=48 velocity=110 time=2
note_on channel=4 note=54 velocity=110 time=0
note_on channel=4 note=48 velocity=0 time=94
note_on channel=4 note=54 velocity=0 time=0
note_on channel=4 note=48 velocity=110 time=2
note_on channel=4 note=54 velocity=110 time=0
note_on channel=4 note=48 velocity=0 time=94
note_on channel=4 note=54 velocity=0 time=0
note_on channel=4 note=48 velocity=110 time=2
note_on channel=4 note=54 velocity=110 time=0
note_on channel=4 note=48 velocity=0 time=94
note_on channel=4 note=54 velocity=0 time=0
note_on channel=4 note=47 velocity=110 time=2
note_on channel=4 note=54 velocity=110 time=0
note_on channel=4 note=47 velocity=0 time=94
note_on channel=4 note=54 velocity=0 time=0
note_on channel=4 note=47 velocity=110 time=2
note_on channel=4 note=54 velocity=110 time=0
note_on channel=4 note=47 velocity=0 time=94
note_on channel=4 note=54 velocity=0 time=0
note_on channel=4 note=47 velocity=110 time=2
note_on channel=4 note=54 velocity=110 time=0
note_on channel=4 note=47 velocity=0 time=94
note_on channel=4 note=54 velocity=0 time=0
note_on channel=4 note=47 velocity=110 time=2
note_on channel=4 note=54 velocity=110 time=0
note_on channel=4 note=47 velocity=0 time=94
note_on channel=4 note=54 velocity=0 time=0
note_on channel=4 note=42 velocity=110 time=2
note_on channel=4 note=49 velocity=110 time=0
note_on channel=4 note=42 velocity=0 time=94
note_on channel=4 note=49 velocity=0 time=0
note_on channel=4 note=42 velocity=110 time=2
note_on channel=4 note=49 velocity=110 time=0
note_on channel=4 note=42 velocity=0 time=94
note_on channel=4 note=49 velocity=0 time=0
note_on channel=4 note=42 velocity=110 time=2
note_on channel=4 note=49 velocity=110 time=0
note_on channel=4 note=42 velocity=0 time=94
note_on channel=4 note=49 velocity=0 time=0
note_on channel=4 note=42 velocity=110 time=2
note_on channel=4 note=49 velocity=110 time=0
note_on channel=4 note=42 velocity=0 time=94
note_on channel=4 note=49 velocity=0 time=0
note_on channel=4 note=47 velocity=110 time=2
note_on channel=4 note=54 velocity=110 time=0
note_on channel=4 note=47 velocity=0 time=94
note_on channel=4 note=54 velocity=0 time=0
note_on channel=4 note=47 velocity=110 time=2
note_on channel=4 note=54 velocity=110 time=0
note_on channel=4 note=47 velocity=0 time=94
note_on channel=4 note=54 velocity=0 time=0
note_on channel=4 note=47 velocity=110 time=2
note_on channel=4 note=54 velocity=110 time=0
note_on channel=4 note=47 velocity=0 time=94
note_on channel=4 note=54 velocity=0 time=0
note_on channel=4 note=47 velocity=110 time=2
note_on channel=4 note=54 velocity=110 time=0
note_on channel=4 note=47 velocity=0 time=94
note_on channel=4 note=54 velocity=0 time=0
note_on channel=4 note=48 velocity=110 time=2
note_on channel=4 note=54 velocity=110 time=0
note_on channel=4 note=48 velocity=0 time=94
note_on channel=4 note=54 velocity=0 time=0
note_on channel=4 note=48 velocity=110 time=2
note_on channel=4 note=54 velocity=110 time=0
note_on channel=4 note=48 velocity=0 time=94
note_on channel=4 note=54 velocity=0 time=0
note_on channel=4 note=48 velocity=110 time=2
note_on channel=4 note=54 velocity=110 time=0
note_on channel=4 note=48 velocity=0 time=94
note_on channel=4 note=54 velocity=0 time=0
note_on channel=4 note=48 velocity=110 time=2
note_on channel=4 note=54 velocity=110 time=0
note_on channel=4 note=48 velocity=0 time=94
note_on channel=4 note=54 velocity=0 time=0
note_on channel=4 note=47 velocity=110 time=2
note_on channel=4 note=54 velocity=110 time=0
note_on channel=4 note=47 velocity=0 time=94
note_on channel=4 note=54 velocity=0 time=0
note_on channel=4 note=47 velocity=110 time=2
note_on channel=4 note=54 velocity=110 time=0
note_on channel=4 note=47 velocity=0 time=94
note_on channel=4 note=54 velocity=0 time=0
note_on channel=4 note=47 velocity=110 time=2
note_on channel=4 note=54 velocity=110 time=0
note_on channel=4 note=47 velocity=0 time=94
note_on channel=4 note=54 velocity=0 time=0
note_on channel=4 note=47 velocity=110 time=2
note_on channel=4 note=54 velocity=110 time=0
note_on channel=4 note=47 velocity=0 time=94
note_on channel=4 note=54 velocity=0 time=0
note_on channel=4 note=42 velocity=110 time=2
note_on channel=4 note=49 velocity=110 time=0
note_on channel=4 note=42 velocity=0 time=94
note_on channel=4 note=49 velocity=0 time=0
note_on channel=4 note=42 velocity=110 time=2
note_on channel=4 note=49 velocity=110 time=0
note_on channel=4 note=42 velocity=0 time=94
note_on channel=4 note=49 velocity=0 time=0
note_on channel=4 note=42 velocity=110 time=2
note_on channel=4 note=49 velocity=110 time=0
note_on channel=4 note=42 velocity=0 time=94
note_on channel=4 note=49 velocity=0 time=0
note_on channel=4 note=42 velocity=110 time=2
note_on channel=4 note=49 velocity=110 time=0
note_on channel=4 note=42 velocity=0 time=94
note_on channel=4 note=49 velocity=0 time=0
note_on channel=4 note=47 velocity=110 time=2
note_on channel=4 note=54 velocity=110 time=0
note_on channel=4 note=47 velocity=0 time=94
note_on channel=4 note=54 velocity=0 time=0
note_on channel=4 note=47 velocity=110 time=2
note_on channel=4 note=54 velocity=110 time=0
note_on channel=4 note=47 velocity=0 time=94
note_on channel=4 note=54 velocity=0 time=0
note_on channel=4 note=47 velocity=110 time=2
note_on channel=4 note=54 velocity=110 time=0
note_on channel=4 note=47 velocity=0 time=94
note_on channel=4 note=54 velocity=0 time=0
note_on channel=4 note=47 velocity=110 time=2
note_on channel=4 note=54 velocity=110 time=0
note_on channel=4 note=47 velocity=0 time=94
note_on channel=4 note=54 velocity=0 time=0
note_on channel=4 note=48 velocity=110 time=2
note_on channel=4 note=54 velocity=110 time=0
note_on channel=4 note=48 velocity=0 time=94
note_on channel=4 note=54 velocity=0 time=0
note_on channel=4 note=48 velocity=110 time=2
note_on channel=4 note=54 velocity=110 time=0
note_on channel=4 note=48 velocity=0 time=94
note_on channel=4 note=54 velocity=0 time=0
note_on channel=4 note=48 velocity=110 time=2
note_on channel=4 note=54 velocity=110 time=0
note_on channel=4 note=48 velocity=0 time=94
note_on channel=4 note=54 velocity=0 time=0
note_on channel=4 note=48 velocity=110 time=2
note_on channel=4 note=54 velocity=110 time=0
note_on channel=4 note=48 velocity=0 time=94
note_on channel=4 note=54 velocity=0 time=0
note_on channel=4 note=47 velocity=110 time=2
note_on channel=4 note=54 velocity=110 time=0
note_on channel=4 note=47 velocity=0 time=94
note_on channel=4 note=54 velocity=0 time=0
note_on channel=4 note=47 velocity=110 time=2
note_on channel=4 note=54 velocity=110 time=0
note_on channel=4 note=47 velocity=0 time=94
note_on channel=4 note=54 velocity=0 time=0
note_on channel=4 note=47 velocity=110 time=2
note_on channel=4 note=54 velocity=110 time=0
note_on channel=4 note=47 velocity=0 time=94
note_on channel=4 note=54 velocity=0 time=0
note_on channel=4 note=47 velocity=110 time=2
note_on channel=4 note=54 velocity=110 time=0
note_on channel=4 note=47 velocity=0 time=94
note_on channel=4 note=54 velocity=0 time=0
note_on channel=4 note=42 velocity=110 time=2
note_on channel=4 note=49 velocity=110 time=0
note_on channel=4 note=42 velocity=0 time=94
note_on channel=4 note=49 velocity=0 time=0
note_on channel=4 note=42 velocity=110 time=2
note_on channel=4 note=49 velocity=110 time=0
note_on channel=4 note=42 velocity=0 time=94
note_on channel=4 note=49 velocity=0 time=0
note_on channel=4 note=42 velocity=110 time=2
note_on channel=4 note=49 velocity=110 time=0
note_on channel=4 note=42 velocity=0 time=94
note_on channel=4 note=49 velocity=0 time=0
note_on channel=4 note=42 velocity=110 time=2
note_on channel=4 note=49 velocity=110 time=0
note_on channel=4 note=42 velocity=0 time=94
note_on channel=4 note=49 velocity=0 time=0
note_on channel=4 note=47 velocity=110 time=2
note_on channel=4 note=54 velocity=110 time=0
note_on channel=4 note=47 velocity=0 time=94
note_on channel=4 note=54 velocity=0 time=0
note_on channel=4 note=47 velocity=110 time=2
note_on channel=4 note=54 velocity=110 time=0
note_on channel=4 note=47 velocity=0 time=94
note_on channel=4 note=54 velocity=0 time=0
note_on channel=4 note=47 velocity=110 time=2
note_on channel=4 note=54 velocity=110 time=0
note_on channel=4 note=47 velocity=0 time=94
note_on channel=4 note=54 velocity=0 time=0
note_on channel=4 note=47 velocity=110 time=2
note_on channel=4 note=54 velocity=110 time=0
note_on channel=4 note=47 velocity=0 time=94
note_on channel=4 note=54 velocity=0 time=0
note_on channel=4 note=48 velocity=110 time=2
note_on channel=4 note=54 velocity=110 time=0
note_on channel=4 note=48 velocity=0 time=94
note_on channel=4 note=54 velocity=0 time=0
note_on channel=4 note=48 velocity=110 time=2
note_on channel=4 note=54 velocity=110 time=0
note_on channel=4 note=48 velocity=0 time=94
note_on channel=4 note=54 velocity=0 time=0
note_on channel=4 note=48 velocity=110 time=2
note_on channel=4 note=54 velocity=110 time=0
note_on channel=4 note=48 velocity=0 time=94
note_on channel=4 note=54 velocity=0 time=0
note_on channel=4 note=48 velocity=110 time=2
note_on channel=4 note=54 velocity=110 time=0
note_on channel=4 note=48 velocity=0 time=94
note_on channel=4 note=54 velocity=0 time=0
note_on channel=4 note=47 velocity=110 time=2
note_on channel=4 note=54 velocity=110 time=0
note_on channel=4 note=47 velocity=0 time=94
note_on channel=4 note=54 velocity=0 time=0
note_on channel=4 note=47 velocity=110 time=2
note_on channel=4 note=54 velocity=110 time=0
note_on channel=4 note=47 velocity=0 time=94
note_on channel=4 note=54 velocity=0 time=0
note_on channel=4 note=47 velocity=110 time=2
note_on channel=4 note=54 velocity=110 time=0
note_on channel=4 note=47 velocity=0 time=94
note_on channel=4 note=54 velocity=0 time=0
note_on channel=4 note=47 velocity=110 time=2
note_on channel=4 note=54 velocity=110 time=0
note_on channel=4 note=47 velocity=0 time=94
note_on channel=4 note=54 velocity=0 time=0
note_on channel=4 note=42 velocity=110 time=2
note_on channel=4 note=49 velocity=110 time=0
note_on channel=4 note=42 velocity=0 time=94
note_on channel=4 note=49 velocity=0 time=0
note_on channel=4 note=42 velocity=110 time=2
note_on channel=4 note=49 velocity=110 time=0
note_on channel=4 note=42 velocity=0 time=94
note_on channel=4 note=49 velocity=0 time=0
note_on channel=4 note=42 velocity=110 time=2
note_on channel=4 note=49 velocity=110 time=0
note_on channel=4 note=42 velocity=0 time=94
note_on channel=4 note=49 velocity=0 time=0
note_on channel=4 note=42 velocity=110 time=2
note_on channel=4 note=49 velocity=110 time=0
note_on channel=4 note=42 velocity=0 time=94
note_on channel=4 note=49 velocity=0 time=0
note_on channel=4 note=47 velocity=110 time=2
note_on channel=4 note=54 velocity=110 time=0
note_on channel=4 note=47 velocity=0 time=94
note_on channel=4 note=54 velocity=0 time=0
note_on channel=4 note=47 velocity=110 time=2
note_on channel=4 note=54 velocity=110 time=0
note_on channel=4 note=47 velocity=0 time=94
note_on channel=4 note=54 velocity=0 time=0
note_on channel=4 note=47 velocity=110 time=2
note_on channel=4 note=54 velocity=110 time=0
note_on channel=4 note=47 velocity=0 time=94
note_on channel=4 note=54 velocity=0 time=0
note_on channel=4 note=47 velocity=110 time=2
note_on channel=4 note=54 velocity=110 time=0
note_on channel=4 note=47 velocity=0 time=94
note_on channel=4 note=54 velocity=0 time=0
note_on channel=4 note=48 velocity=110 time=2
note_on channel=4 note=54 velocity=110 time=0
note_on channel=4 note=48 velocity=0 time=94
note_on channel=4 note=54 velocity=0 time=0
note_on channel=4 note=48 velocity=110 time=2
note_on channel=4 note=54 velocity=110 time=0
note_on channel=4 note=48 velocity=0 time=94
note_on channel=4 note=54 velocity=0 time=0
note_on channel=4 note=48 velocity=110 time=2
note_on channel=4 note=54 velocity=110 time=0
note_on channel=4 note=48 velocity=0 time=94
note_on channel=4 note=54 velocity=0 time=0
note_on channel=4 note=48 velocity=110 time=2
note_on channel=4 note=54 velocity=110 time=0
note_on channel=4 note=48 velocity=0 time=94
note_on channel=4 note=54 velocity=0 time=0
note_on channel=4 note=47 velocity=110 time=2
note_on channel=4 note=54 velocity=110 time=0
note_on channel=4 note=47 velocity=0 time=94
note_on channel=4 note=54 velocity=0 time=0
note_on channel=4 note=47 velocity=110 time=2
note_on channel=4 note=54 velocity=110 time=0
note_on channel=4 note=47 velocity=0 time=94
note_on channel=4 note=54 velocity=0 time=0
note_on channel=4 note=47 velocity=110 time=2
note_on channel=4 note=54 velocity=110 time=0
note_on channel=4 note=47 velocity=0 time=94
note_on channel=4 note=54 velocity=0 time=0
note_on channel=4 note=47 velocity=110 time=2
note_on channel=4 note=54 velocity=110 time=0
note_on channel=4 note=47 velocity=0 time=94
note_on channel=4 note=54 velocity=0 time=0
note_on channel=4 note=42 velocity=110 time=2
note_on channel=4 note=49 velocity=110 time=0
note_on channel=4 note=42 velocity=0 time=94
note_on channel=4 note=49 velocity=0 time=0
note_on channel=4 note=42 velocity=110 time=2
note_on channel=4 note=49 velocity=110 time=0
note_on channel=4 note=42 velocity=0 time=94
note_on channel=4 note=49 velocity=0 time=0
note_on channel=4 note=42 velocity=110 time=2
note_on channel=4 note=49 velocity=110 time=0
note_on channel=4 note=42 velocity=0 time=94
note_on channel=4 note=49 velocity=0 time=0
note_on channel=4 note=42 velocity=110 time=2
note_on channel=4 note=49 velocity=110 time=0
note_on channel=4 note=42 velocity=0 time=94
note_on channel=4 note=49 velocity=0 time=0
note_on channel=4 note=40 velocity=110 time=2
note_on channel=4 note=47 velocity=110 time=0
note_on channel=4 note=40 velocity=0 time=94
note_on channel=4 note=47 velocity=0 time=0
note_on channel=4 note=40 velocity=110 time=2
note_on channel=4 note=47 velocity=110 time=0
note_on channel=4 note=40 velocity=0 time=94
note_on channel=4 note=47 velocity=0 time=0
note_on channel=4 note=40 velocity=110 time=2
note_on channel=4 note=47 velocity=110 time=0
note_on channel=4 note=40 velocity=0 time=94
note_on channel=4 note=47 velocity=0 time=0
note_on channel=4 note=40 velocity=110 time=2
note_on channel=4 note=47 velocity=110 time=0
note_on channel=4 note=40 velocity=0 time=94
note_on channel=4 note=47 velocity=0 time=0
note_on channel=4 note=42 velocity=110 time=2
note_on channel=4 note=47 velocity=110 time=0
note_on channel=4 note=54 velocity=110 time=0
note_on channel=4 note=42 velocity=0 time=718
note_on channel=4 note=47 velocity=0 time=0
note_on channel=4 note=54 velocity=0 time=0
MetaMessage('end_of_track', time=0)
Track 3: Staff-8
MetaMessage('midi_port', port=0, time=0)
MetaMessage('track_name', name='Staff-8', time=0)
program_change channel=7 program=25 time=0
control_change channel=7 control=7 value=127 time=0
control_change channel=7 control=10 value=64 time=0
note_on channel=7 note=49 velocity=110 time=31488
note_on channel=7 note=49 velocity=0 time=94
note_on channel=7 note=42 velocity=110 time=11426
note_on channel=7 note=42 velocity=0 time=94
note_on channel=7 note=58 velocity=110 time=2
note_on channel=7 note=58 velocity=0 time=94
note_on channel=7 note=54 velocity=110 time=2
note_on channel=7 note=54 velocity=0 time=94
note_on channel=7 note=48 velocity=110 time=2
note_on channel=7 note=48 velocity=0 time=94
note_on channel=7 note=49 velocity=110 time=2
note_on channel=7 note=49 velocity=0 time=94
note_on channel=7 note=58 velocity=110 time=2
note_on channel=7 note=58 velocity=0 time=94
note_on channel=7 note=56 velocity=110 time=2
note_on channel=7 note=56 velocity=0 time=94
note_on channel=7 note=51 velocity=110 time=2
note_on channel=7 note=66 velocity=110 time=0
note_on channel=7 note=51 velocity=0 time=94
note_on channel=7 note=66 velocity=0 time=0
note_on channel=7 note=44 velocity=110 time=2
note_on channel=7 note=44 velocity=0 time=94
note_on channel=7 note=58 velocity=110 time=2
note_on channel=7 note=58 velocity=0 time=94
note_on channel=7 note=54 velocity=110 time=2
note_on channel=7 note=54 velocity=0 time=94
note_on channel=7 note=46 velocity=110 time=2
note_on channel=7 note=46 velocity=0 time=94
note_on channel=7 note=47 velocity=110 time=2
note_on channel=7 note=47 velocity=0 time=94
note_on channel=7 note=58 velocity=110 time=2
note_on channel=7 note=58 velocity=0 time=94
note_on channel=7 note=54 velocity=110 time=2
note_on channel=7 note=54 velocity=0 time=94
note_on channel=7 note=49 velocity=110 time=2
note_on channel=7 note=61 velocity=110 time=0
note_on channel=7 note=49 velocity=0 time=94
note_on channel=7 note=61 velocity=0 time=0
note_on channel=7 note=42 velocity=110 time=2
note_on channel=7 note=42 velocity=0 time=94
note_on channel=7 note=58 velocity=110 time=2
note_on channel=7 note=58 velocity=0 time=94
note_on channel=7 note=54 velocity=110 time=2
note_on channel=7 note=54 velocity=0 time=94
note_on channel=7 note=48 velocity=110 time=2
note_on channel=7 note=48 velocity=0 time=94
note_on channel=7 note=49 velocity=110 time=2
note_on channel=7 note=49 velocity=0 time=94
note_on channel=7 note=58 velocity=110 time=2
note_on channel=7 note=58 velocity=0 time=94
note_on channel=7 note=56 velocity=110 time=2
note_on channel=7 note=56 velocity=0 time=94
note_on channel=7 note=51 velocity=110 time=2
note_on channel=7 note=66 velocity=110 time=0
note_on channel=7 note=51 velocity=0 time=94
note_on channel=7 note=66 velocity=0 time=0
note_on channel=7 note=44 velocity=110 time=2
note_on channel=7 note=44 velocity=0 time=94
note_on channel=7 note=58 velocity=110 time=2
note_on channel=7 note=58 velocity=0 time=94
note_on channel=7 note=54 velocity=110 time=2
note_on channel=7 note=54 velocity=0 time=94
note_on channel=7 note=46 velocity=110 time=2
note_on channel=7 note=46 velocity=0 time=94
note_on channel=7 note=47 velocity=110 time=2
note_on channel=7 note=47 velocity=0 time=94
note_on channel=7 note=58 velocity=110 time=2
note_on channel=7 note=58 velocity=0 time=94
note_on channel=7 note=54 velocity=110 time=2
note_on channel=7 note=54 velocity=0 time=94
note_on channel=7 note=49 velocity=110 time=2
note_on channel=7 note=61 velocity=110 time=0
note_on channel=7 note=49 velocity=0 time=94
note_on channel=7 note=61 velocity=0 time=0
note_on channel=7 note=42 velocity=110 time=2
note_on channel=7 note=42 velocity=0 time=94
note_on channel=7 note=58 velocity=110 time=2
note_on channel=7 note=58 velocity=0 time=94
note_on channel=7 note=54 velocity=110 time=2
note_on channel=7 note=54 velocity=0 time=94
note_on channel=7 note=48 velocity=110 time=2
note_on channel=7 note=48 velocity=0 time=94
note_on channel=7 note=49 velocity=110 time=2
note_on channel=7 note=49 velocity=0 time=94
note_on channel=7 note=58 velocity=110 time=2
note_on channel=7 note=58 velocity=0 time=94
note_on channel=7 note=56 velocity=110 time=2
note_on channel=7 note=56 velocity=0 time=94
note_on channel=7 note=51 velocity=110 time=2
note_on channel=7 note=66 velocity=110 time=0
note_on channel=7 note=51 velocity=0 time=94
note_on channel=7 note=66 velocity=0 time=0
note_on channel=7 note=44 velocity=110 time=2
note_on channel=7 note=44 velocity=0 time=94
note_on channel=7 note=58 velocity=110 time=2
note_on channel=7 note=58 velocity=0 time=94
note_on channel=7 note=54 velocity=110 time=2
note_on channel=7 note=54 velocity=0 time=94
note_on channel=7 note=46 velocity=110 time=2
note_on channel=7 note=46 velocity=0 time=94
note_on channel=7 note=47 velocity=110 time=2
note_on channel=7 note=47 velocity=0 time=94
note_on channel=7 note=58 velocity=110 time=2
note_on channel=7 note=58 velocity=0 time=94
note_on channel=7 note=54 velocity=110 time=2
note_on channel=7 note=54 velocity=0 time=94
note_on channel=7 note=49 velocity=110 time=2
note_on channel=7 note=61 velocity=110 time=0
note_on channel=7 note=49 velocity=0 time=94
note_on channel=7 note=61 velocity=0 time=0
note_on channel=7 note=42 velocity=110 time=2
note_on channel=7 note=42 velocity=0 time=94
note_on channel=7 note=58 velocity=110 time=2
note_on channel=7 note=58 velocity=0 time=94
note_on channel=7 note=54 velocity=110 time=2
note_on channel=7 note=54 velocity=0 time=94
note_on channel=7 note=48 velocity=110 time=2
note_on channel=7 note=48 velocity=0 time=94
note_on channel=7 note=49 velocity=110 time=2
note_on channel=7 note=49 velocity=0 time=94
note_on channel=7 note=58 velocity=110 time=2
note_on channel=7 note=58 velocity=0 time=94
note_on channel=7 note=56 velocity=110 time=2
note_on channel=7 note=56 velocity=0 time=94
note_on channel=7 note=51 velocity=110 time=2
note_on channel=7 note=66 velocity=110 time=0
note_on channel=7 note=51 velocity=0 time=94
note_on channel=7 note=66 velocity=0 time=0
note_on channel=7 note=42 velocity=110 time=770
note_on channel=7 note=42 velocity=0 time=94
note_on channel=7 note=49 velocity=110 time=2
note_on channel=7 note=49 velocity=0 time=94
note_on channel=7 note=54 velocity=110 time=2
note_on channel=7 note=54 velocity=0 time=94
note_on channel=7 note=49 velocity=110 time=2
note_on channel=7 note=49 velocity=0 time=94
note_on channel=7 note=47 velocity=110 time=2
note_on channel=7 note=47 velocity=0 time=94
note_on channel=7 note=51 velocity=110 time=2
note_on channel=7 note=51 velocity=0 time=94
note_on channel=7 note=54 velocity=110 time=2
note_on channel=7 note=54 velocity=0 time=94
note_on channel=7 note=51 velocity=110 time=2
note_on channel=7 note=51 velocity=0 time=94
note_on channel=7 note=48 velocity=110 time=2
note_on channel=7 note=48 velocity=0 time=94
note_on channel=7 note=51 velocity=110 time=2
note_on channel=7 note=51 velocity=0 time=94
note_on channel=7 note=54 velocity=110 time=2
note_on channel=7 note=54 velocity=0 time=94
note_on channel=7 note=51 velocity=110 time=2
note_on channel=7 note=51 velocity=0 time=94
note_on channel=7 note=47 velocity=110 time=2
note_on channel=7 note=47 velocity=0 time=94
note_on channel=7 note=51 velocity=110 time=2
note_on channel=7 note=51 velocity=0 time=94
note_on channel=7 note=54 velocity=110 time=2
note_on channel=7 note=54 velocity=0 time=94
note_on channel=7 note=51 velocity=110 time=2
note_on channel=7 note=51 velocity=0 time=94
note_on channel=7 note=42 velocity=110 time=2
note_on channel=7 note=42 velocity=0 time=94
note_on channel=7 note=49 velocity=110 time=2
note_on channel=7 note=49 velocity=0 time=94
note_on channel=7 note=54 velocity=110 time=2
note_on channel=7 note=54 velocity=0 time=94
note_on channel=7 note=49 velocity=110 time=2
note_on channel=7 note=49 velocity=0 time=94
note_on channel=7 note=47 velocity=110 time=2
note_on channel=7 note=47 velocity=0 time=94
note_on channel=7 note=51 velocity=110 time=2
note_on channel=7 note=51 velocity=0 time=94
note_on channel=7 note=54 velocity=110 time=2
note_on channel=7 note=54 velocity=0 time=94
note_on channel=7 note=51 velocity=110 time=2
note_on channel=7 note=51 velocity=0 time=94
note_on channel=7 note=48 velocity=110 time=2
note_on channel=7 note=48 velocity=0 time=94
note_on channel=7 note=51 velocity=110 time=2
note_on channel=7 note=51 velocity=0 time=94
note_on channel=7 note=54 velocity=110 time=2
note_on channel=7 note=54 velocity=0 time=94
note_on channel=7 note=51 velocity=110 time=2
note_on channel=7 note=51 velocity=0 time=94
note_on channel=7 note=47 velocity=110 time=2
note_on channel=7 note=47 velocity=0 time=94
note_on channel=7 note=51 velocity=110 time=2
note_on channel=7 note=51 velocity=0 time=94
note_on channel=7 note=54 velocity=110 time=2
note_on channel=7 note=54 velocity=0 time=94
note_on channel=7 note=51 velocity=110 time=2
note_on channel=7 note=51 velocity=0 time=94
note_on channel=7 note=42 velocity=110 time=2
note_on channel=7 note=42 velocity=0 time=94
note_on channel=7 note=49 velocity=110 time=2
note_on channel=7 note=49 velocity=0 time=94
note_on channel=7 note=54 velocity=110 time=2
note_on channel=7 note=54 velocity=0 time=94
note_on channel=7 note=49 velocity=110 time=2
note_on channel=7 note=49 velocity=0 time=94
note_on channel=7 note=47 velocity=110 time=2
note_on channel=7 note=47 velocity=0 time=94
note_on channel=7 note=51 velocity=110 time=2
note_on channel=7 note=51 velocity=0 time=94
note_on channel=7 note=54 velocity=110 time=2
note_on channel=7 note=54 velocity=0 time=94
note_on channel=7 note=51 velocity=110 time=2
note_on channel=7 note=51 velocity=0 time=94
note_on channel=7 note=48 velocity=110 time=2
note_on channel=7 note=48 velocity=0 time=94
note_on channel=7 note=51 velocity=110 time=2
note_on channel=7 note=51 velocity=0 time=94
note_on channel=7 note=54 velocity=110 time=2
note_on channel=7 note=54 velocity=0 time=94
note_on channel=7 note=51 velocity=110 time=2
note_on channel=7 note=51 velocity=0 time=94
note_on channel=7 note=47 velocity=110 time=2
note_on channel=7 note=47 velocity=0 time=94
note_on channel=7 note=51 velocity=110 time=2
note_on channel=7 note=51 velocity=0 time=94
note_on channel=7 note=54 velocity=110 time=2
note_on channel=7 note=54 velocity=0 time=94
note_on channel=7 note=51 velocity=110 time=2
note_on channel=7 note=51 velocity=0 time=94
note_on channel=7 note=42 velocity=110 time=2
note_on channel=7 note=42 velocity=0 time=94
note_on channel=7 note=49 velocity=110 time=2
note_on channel=7 note=49 velocity=0 time=94
note_on channel=7 note=54 velocity=110 time=2
note_on channel=7 note=54 velocity=0 time=94
note_on channel=7 note=49 velocity=110 time=2
note_on channel=7 note=49 velocity=0 time=94
note_on channel=7 note=47 velocity=110 time=2
note_on channel=7 note=47 velocity=0 time=94
note_on channel=7 note=51 velocity=110 time=2
note_on channel=7 note=51 velocity=0 time=94
note_on channel=7 note=54 velocity=110 time=2
note_on channel=7 note=54 velocity=0 time=94
note_on channel=7 note=51 velocity=110 time=2
note_on channel=7 note=51 velocity=0 time=94
note_on channel=7 note=48 velocity=110 time=2
note_on channel=7 note=48 velocity=0 time=94
note_on channel=7 note=51 velocity=110 time=2
note_on channel=7 note=51 velocity=0 time=94
note_on channel=7 note=54 velocity=110 time=2
note_on channel=7 note=54 velocity=0 time=94
note_on channel=7 note=51 velocity=110 time=2
note_on channel=7 note=51 velocity=0 time=94
note_on channel=7 note=47 velocity=110 time=2
note_on channel=7 note=47 velocity=0 time=94
note_on channel=7 note=51 velocity=110 time=2
note_on channel=7 note=51 velocity=0 time=94
note_on channel=7 note=42 velocity=110 time=8642
note_on channel=7 note=47 velocity=110 time=0
note_on channel=7 note=54 velocity=110 time=0
note_on channel=7 note=42 velocity=0 time=718
note_on channel=7 note=47 velocity=0 time=0
note_on channel=7 note=54 velocity=0 time=0
MetaMessage('end_of_track', time=0)
Track 4: Staff-1
MetaMessage('midi_port', port=0, time=0)
MetaMessage('track_name', name='Staff-1', time=0)
program_change channel=1 program=33 time=0
control_change channel=1 control=7 value=127 time=0
control_change channel=1 control=10 value=64 time=0
note_on channel=1 note=30 velocity=110 time=768
note_on channel=1 note=30 velocity=0 time=94
note_on channel=1 note=36 velocity=110 time=194
note_on channel=1 note=36 velocity=0 time=94
note_on channel=1 note=37 velocity=110 time=2
note_on channel=1 note=37 velocity=0 time=94
note_on channel=1 note=39 velocity=110 time=194
note_on channel=1 note=39 velocity=0 time=94
note_on channel=1 note=32 velocity=110 time=2
note_on channel=1 note=32 velocity=0 time=94
note_on channel=1 note=34 velocity=110 time=194
note_on channel=1 note=34 velocity=0 time=94
note_on channel=1 note=35 velocity=110 time=2
note_on channel=1 note=35 velocity=0 time=94
note_on channel=1 note=37 velocity=110 time=194
note_on channel=1 note=37 velocity=0 time=94
note_on channel=1 note=30 velocity=110 time=2
note_on channel=1 note=30 velocity=0 time=94
note_on channel=1 note=36 velocity=110 time=194
note_on channel=1 note=36 velocity=0 time=94
note_on channel=1 note=37 velocity=110 time=2
note_on channel=1 note=37 velocity=0 time=94
note_on channel=1 note=39 velocity=110 time=194
note_on channel=1 note=39 velocity=0 time=94
note_on channel=1 note=32 velocity=110 time=2
note_on channel=1 note=32 velocity=0 time=94
note_on channel=1 note=34 velocity=110 time=194
note_on channel=1 note=34 velocity=0 time=94
note_on channel=1 note=35 velocity=110 time=2
note_on channel=1 note=35 velocity=0 time=94
note_on channel=1 note=37 velocity=110 time=194
note_on channel=1 note=37 velocity=0 time=94
note_on channel=1 note=30 velocity=110 time=2
note_on channel=1 note=30 velocity=0 time=94
note_on channel=1 note=36 velocity=110 time=194
note_on channel=1 note=36 velocity=0 time=94
note_on channel=1 note=37 velocity=110 time=2
note_on channel=1 note=37 velocity=0 time=94
note_on channel=1 note=39 velocity=110 time=194
note_on channel=1 note=39 velocity=0 time=94
note_on channel=1 note=32 velocity=110 time=2
note_on channel=1 note=32 velocity=0 time=94
note_on channel=1 note=34 velocity=110 time=194
note_on channel=1 note=34 velocity=0 time=94
note_on channel=1 note=35 velocity=110 time=2
note_on channel=1 note=35 velocity=0 time=94
note_on channel=1 note=37 velocity=110 time=194
note_on channel=1 note=37 velocity=0 time=94
note_on channel=1 note=30 velocity=110 time=2
note_on channel=1 note=30 velocity=0 time=94
note_on channel=1 note=36 velocity=110 time=194
note_on channel=1 note=36 velocity=0 time=94
note_on channel=1 note=37 velocity=110 time=2
note_on channel=1 note=37 velocity=0 time=94
note_on channel=1 note=39 velocity=110 time=194
note_on channel=1 note=39 velocity=0 time=94
note_on channel=1 note=32 velocity=110 time=2
note_on channel=1 note=32 velocity=0 time=94
note_on channel=1 note=34 velocity=110 time=194
note_on channel=1 note=34 velocity=0 time=94
note_on channel=1 note=35 velocity=110 time=2
note_on channel=1 note=35 velocity=0 time=94
note_on channel=1 note=37 velocity=110 time=194
note_on channel=1 note=37 velocity=0 time=94
note_on channel=1 note=30 velocity=110 time=2
note_on channel=1 note=30 velocity=0 time=94
note_on channel=1 note=36 velocity=110 time=194
note_on channel=1 note=36 velocity=0 time=94
note_on channel=1 note=37 velocity=110 time=2
note_on channel=1 note=37 velocity=0 time=94
note_on channel=1 note=39 velocity=110 time=194
note_on channel=1 note=39 velocity=0 time=94
note_on channel=1 note=32 velocity=110 time=2
note_on channel=1 note=32 velocity=0 time=94
note_on channel=1 note=34 velocity=110 time=194
note_on channel=1 note=34 velocity=0 time=94
note_on channel=1 note=35 velocity=110 time=2
note_on channel=1 note=35 velocity=0 time=94
note_on channel=1 note=37 velocity=110 time=194
note_on channel=1 note=37 velocity=0 time=94
note_on channel=1 note=30 velocity=110 time=2
note_on channel=1 note=30 velocity=0 time=94
note_on channel=1 note=36 velocity=110 time=194
note_on channel=1 note=36 velocity=0 time=94
note_on channel=1 note=37 velocity=110 time=2
note_on channel=1 note=37 velocity=0 time=94
note_on channel=1 note=39 velocity=110 time=194
note_on channel=1 note=39 velocity=0 time=94
note_on channel=1 note=32 velocity=110 time=2
note_on channel=1 note=32 velocity=0 time=94
note_on channel=1 note=34 velocity=110 time=194
note_on channel=1 note=34 velocity=0 time=94
note_on channel=1 note=35 velocity=110 time=2
note_on channel=1 note=35 velocity=0 time=94
note_on channel=1 note=37 velocity=110 time=194
note_on channel=1 note=37 velocity=0 time=94
note_on channel=1 note=30 velocity=110 time=2
note_on channel=1 note=30 velocity=0 time=94
note_on channel=1 note=36 velocity=110 time=194
note_on channel=1 note=36 velocity=0 time=94
note_on channel=1 note=37 velocity=110 time=2
note_on channel=1 note=37 velocity=0 time=94
note_on channel=1 note=39 velocity=110 time=194
note_on channel=1 note=39 velocity=0 time=94
note_on channel=1 note=32 velocity=110 time=2
note_on channel=1 note=32 velocity=0 time=94
note_on channel=1 note=34 velocity=110 time=194
note_on channel=1 note=34 velocity=0 time=94
note_on channel=1 note=35 velocity=110 time=2
note_on channel=1 note=35 velocity=0 time=94
note_on channel=1 note=37 velocity=110 time=194
note_on channel=1 note=37 velocity=0 time=94
note_on channel=1 note=30 velocity=110 time=2
note_on channel=1 note=30 velocity=0 time=94
note_on channel=1 note=36 velocity=110 time=194
note_on channel=1 note=36 velocity=0 time=94
note_on channel=1 note=37 velocity=110 time=2
note_on channel=1 note=37 velocity=0 time=94
note_on channel=1 note=39 velocity=110 time=194
note_on channel=1 note=39 velocity=0 time=94
note_on channel=1 note=32 velocity=110 time=2
note_on channel=1 note=32 velocity=0 time=94
note_on channel=1 note=34 velocity=110 time=194
note_on channel=1 note=34 velocity=0 time=94
note_on channel=1 note=35 velocity=110 time=2
note_on channel=1 note=35 velocity=0 time=94
note_on channel=1 note=39 velocity=110 time=98
note_on channel=1 note=39 velocity=0 time=142
note_on channel=1 note=41 velocity=110 time=2
note_on channel=1 note=41 velocity=0 time=46
note_on channel=1 note=42 velocity=110 time=2
note_on channel=1 note=42 velocity=0 time=94
note_on channel=1 note=42 velocity=110 time=2
note_on channel=1 note=42 velocity=0 time=94
note_on channel=1 note=42 velocity=110 time=2
note_on channel=1 note=42 velocity=0 time=94
note_on channel=1 note=42 velocity=110 time=2
note_on channel=1 note=42 velocity=0 time=94
note_on channel=1 note=47 velocity=110 time=2
note_on channel=1 note=47 velocity=0 time=94
note_on channel=1 note=47 velocity=110 time=2
note_on channel=1 note=47 velocity=0 time=94
note_on channel=1 note=47 velocity=110 time=2
note_on channel=1 note=47 velocity=0 time=94
note_on channel=1 note=47 velocity=110 time=2
note_on channel=1 note=47 velocity=0 time=94
note_on channel=1 note=48 velocity=110 time=2
note_on channel=1 note=48 velocity=0 time=94
note_on channel=1 note=48 velocity=110 time=2
note_on channel=1 note=48 velocity=0 time=94
note_on channel=1 note=48 velocity=110 time=2
note_on channel=1 note=48 velocity=0 time=94
note_on channel=1 note=48 velocity=110 time=2
note_on channel=1 note=48 velocity=0 time=94
note_on channel=1 note=47 velocity=110 time=2
note_on channel=1 note=47 velocity=0 time=94
note_on channel=1 note=47 velocity=110 time=2
note_on channel=1 note=47 velocity=0 time=94
note_on channel=1 note=47 velocity=110 time=2
note_on channel=1 note=47 velocity=0 time=94
note_on channel=1 note=47 velocity=110 time=2
note_on channel=1 note=47 velocity=0 time=94
note_on channel=1 note=42 velocity=110 time=2
note_on channel=1 note=42 velocity=0 time=94
note_on channel=1 note=42 velocity=110 time=2
note_on channel=1 note=42 velocity=0 time=94
note_on channel=1 note=42 velocity=110 time=2
note_on channel=1 note=42 velocity=0 time=94
note_on channel=1 note=42 velocity=110 time=2
note_on channel=1 note=42 velocity=0 time=94
note_on channel=1 note=47 velocity=110 time=2
note_on channel=1 note=47 velocity=0 time=94
note_on channel=1 note=47 velocity=110 time=2
note_on channel=1 note=47 velocity=0 time=94
note_on channel=1 note=47 velocity=110 time=2
note_on channel=1 note=47 velocity=0 time=94
note_on channel=1 note=47 velocity=110 time=2
note_on channel=1 note=47 velocity=0 time=94
note_on channel=1 note=48 velocity=110 time=2
note_on channel=1 note=48 velocity=0 time=94
note_on channel=1 note=48 velocity=110 time=2
note_on channel=1 note=48 velocity=0 time=94
note_on channel=1 note=48 velocity=110 time=2
note_on channel=1 note=48 velocity=0 time=94
note_on channel=1 note=48 velocity=110 time=2
note_on channel=1 note=48 velocity=0 time=94
note_on channel=1 note=47 velocity=110 time=2
note_on channel=1 note=47 velocity=0 time=94
note_on channel=1 note=47 velocity=110 time=2
note_on channel=1 note=47 velocity=0 time=94
note_on channel=1 note=47 velocity=110 time=2
note_on channel=1 note=47 velocity=0 time=94
note_on channel=1 note=47 velocity=110 time=2
note_on channel=1 note=47 velocity=0 time=94
note_on channel=1 note=42 velocity=110 time=2
note_on channel=1 note=42 velocity=0 time=94
note_on channel=1 note=42 velocity=110 time=2
note_on channel=1 note=42 velocity=0 time=94
note_on channel=1 note=42 velocity=110 time=2
note_on channel=1 note=42 velocity=0 time=94
note_on channel=1 note=42 velocity=110 time=2
note_on channel=1 note=42 velocity=0 time=94
note_on channel=1 note=47 velocity=110 time=2
note_on channel=1 note=47 velocity=0 time=94
note_on channel=1 note=47 velocity=110 time=2
note_on channel=1 note=47 velocity=0 time=94
note_on channel=1 note=47 velocity=110 time=2
note_on channel=1 note=47 velocity=0 time=94
note_on channel=1 note=47 velocity=110 time=2
note_on channel=1 note=47 velocity=0 time=94
note_on channel=1 note=48 velocity=110 time=2
note_on channel=1 note=48 velocity=0 time=94
note_on channel=1 note=48 velocity=110 time=2
note_on channel=1 note=48 velocity=0 time=94
note_on channel=1 note=48 velocity=110 time=2
note_on channel=1 note=48 velocity=0 time=94
note_on channel=1 note=48 velocity=110 time=2
note_on channel=1 note=48 velocity=0 time=94
note_on channel=1 note=47 velocity=110 time=2
note_on channel=1 note=47 velocity=0 time=94
note_on channel=1 note=47 velocity=110 time=2
note_on channel=1 note=47 velocity=0 time=94
note_on channel=1 note=47 velocity=110 time=2
note_on channel=1 note=47 velocity=0 time=94
note_on channel=1 note=47 velocity=110 time=2
note_on channel=1 note=47 velocity=0 time=94
note_on channel=1 note=42 velocity=110 time=2
note_on channel=1 note=42 velocity=0 time=94
note_on channel=1 note=42 velocity=110 time=2
note_on channel=1 note=42 velocity=0 time=94
note_on channel=1 note=42 velocity=110 time=2
note_on channel=1 note=42 velocity=0 time=94
note_on channel=1 note=42 velocity=110 time=2
note_on channel=1 note=42 velocity=0 time=94
note_on channel=1 note=40 velocity=110 time=2
note_on channel=1 note=40 velocity=0 time=94
note_on channel=1 note=40 velocity=110 time=2
note_on channel=1 note=40 velocity=0 time=94
note_on channel=1 note=40 velocity=110 time=2
note_on channel=1 note=40 velocity=0 time=94
note_on channel=1 note=40 velocity=110 time=2
note_on channel=1 note=40 velocity=0 time=94
note_on channel=1 note=47 velocity=110 time=2
note_on channel=1 note=47 velocity=0 time=718
note_on channel=1 note=30 velocity=110 time=50
note_on channel=1 note=30 velocity=0 time=94
note_on channel=1 note=36 velocity=110 time=194
note_on channel=1 note=36 velocity=0 time=94
note_on channel=1 note=37 velocity=110 time=2
note_on channel=1 note=37 velocity=0 time=94
note_on channel=1 note=39 velocity=110 time=194
note_on channel=1 note=39 velocity=0 time=94
note_on channel=1 note=32 velocity=110 time=2
note_on channel=1 note=32 velocity=0 time=94
note_on channel=1 note=34 velocity=110 time=194
note_on channel=1 note=34 velocity=0 time=94
note_on channel=1 note=35 velocity=110 time=2
note_on channel=1 note=35 velocity=0 time=94
note_on channel=1 note=37 velocity=110 time=194
note_on channel=1 note=37 velocity=0 time=94
note_on channel=1 note=30 velocity=110 time=2
note_on channel=1 note=30 velocity=0 time=94
note_on channel=1 note=36 velocity=110 time=194
note_on channel=1 note=36 velocity=0 time=94
note_on channel=1 note=37 velocity=110 time=2
note_on channel=1 note=37 velocity=0 time=94
note_on channel=1 note=39 velocity=110 time=194
note_on channel=1 note=39 velocity=0 time=94
note_on channel=1 note=32 velocity=110 time=2
note_on channel=1 note=32 velocity=0 time=94
note_on channel=1 note=34 velocity=110 time=194
note_on channel=1 note=34 velocity=0 time=94
note_on channel=1 note=35 velocity=110 time=2
note_on channel=1 note=35 velocity=0 time=94
note_on channel=1 note=37 velocity=110 time=194
note_on channel=1 note=37 velocity=0 time=94
note_on channel=1 note=30 velocity=110 time=2
note_on channel=1 note=30 velocity=0 time=94
note_on channel=1 note=36 velocity=110 time=194
note_on channel=1 note=36 velocity=0 time=94
note_on channel=1 note=37 velocity=110 time=2
note_on channel=1 note=37 velocity=0 time=94
note_on channel=1 note=39 velocity=110 time=194
note_on channel=1 note=39 velocity=0 time=94
note_on channel=1 note=32 velocity=110 time=2
note_on channel=1 note=32 velocity=0 time=94
note_on channel=1 note=34 velocity=110 time=194
note_on channel=1 note=34 velocity=0 time=94
note_on channel=1 note=35 velocity=110 time=2
note_on channel=1 note=35 velocity=0 time=94
note_on channel=1 note=37 velocity=110 time=194
note_on channel=1 note=37 velocity=0 time=94
note_on channel=1 note=30 velocity=110 time=2
note_on channel=1 note=30 velocity=0 time=94
note_on channel=1 note=36 velocity=110 time=194
note_on channel=1 note=36 velocity=0 time=94
note_on channel=1 note=37 velocity=110 time=2
note_on channel=1 note=37 velocity=0 time=94
note_on channel=1 note=39 velocity=110 time=194
note_on channel=1 note=39 velocity=0 time=94
note_on channel=1 note=32 velocity=110 time=2
note_on channel=1 note=32 velocity=0 time=94
note_on channel=1 note=34 velocity=110 time=194
note_on channel=1 note=34 velocity=0 time=94
note_on channel=1 note=35 velocity=110 time=2
note_on channel=1 note=35 velocity=0 time=94
note_on channel=1 note=39 velocity=110 time=98
note_on channel=1 note=39 velocity=0 time=142
note_on channel=1 note=41 velocity=110 time=2
note_on channel=1 note=41 velocity=0 time=46
note_on channel=1 note=42 velocity=110 time=2
note_on channel=1 note=42 velocity=0 time=94
note_on channel=1 note=42 velocity=110 time=2
note_on channel=1 note=42 velocity=0 time=94
note_on channel=1 note=42 velocity=110 time=2
note_on channel=1 note=42 velocity=0 time=94
note_on channel=1 note=42 velocity=110 time=2
note_on channel=1 note=42 velocity=0 time=94
note_on channel=1 note=47 velocity=110 time=2
note_on channel=1 note=47 velocity=0 time=94
note_on channel=1 note=47 velocity=110 time=2
note_on channel=1 note=47 velocity=0 time=94
note_on channel=1 note=47 velocity=110 time=2
note_on channel=1 note=47 velocity=0 time=94
note_on channel=1 note=47 velocity=110 time=2
note_on channel=1 note=47 velocity=0 time=94
note_on channel=1 note=48 velocity=110 time=2
note_on channel=1 note=48 velocity=0 time=94
note_on channel=1 note=48 velocity=110 time=2
note_on channel=1 note=48 velocity=0 time=94
note_on channel=1 note=48 velocity=110 time=2
note_on channel=1 note=48 velocity=0 time=94
note_on channel=1 note=48 velocity=110 time=2
note_on channel=1 note=48 velocity=0 time=94
note_on channel=1 note=47 velocity=110 time=2
note_on channel=1 note=47 velocity=0 time=94
note_on channel=1 note=47 velocity=110 time=2
note_on channel=1 note=47 velocity=0 time=94
note_on channel=1 note=47 velocity=110 time=2
note_on channel=1 note=47 velocity=0 time=94
note_on channel=1 note=47 velocity=110 time=2
note_on channel=1 note=47 velocity=0 time=94
note_on channel=1 note=42 velocity=110 time=2
note_on channel=1 note=42 velocity=0 time=94
note_on channel=1 note=42 velocity=110 time=2
note_on channel=1 note=42 velocity=0 time=94
note_on channel=1 note=42 velocity=110 time=2
note_on channel=1 note=42 velocity=0 time=94
note_on channel=1 note=42 velocity=110 time=2
note_on channel=1 note=42 velocity=0 time=94
note_on channel=1 note=47 velocity=110 time=2
note_on channel=1 note=47 velocity=0 time=94
note_on channel=1 note=47 velocity=110 time=2
note_on channel=1 note=47 velocity=0 time=94
note_on channel=1 note=47 velocity=110 time=2
note_on channel=1 note=47 velocity=0 time=94
note_on channel=1 note=47 velocity=110 time=2
note_on channel=1 note=47 velocity=0 time=94
note_on channel=1 note=48 velocity=110 time=2
note_on channel=1 note=48 velocity=0 time=94
note_on channel=1 note=48 velocity=110 time=2
note_on channel=1 note=48 velocity=0 time=94
note_on channel=1 note=48 velocity=110 time=2
note_on channel=1 note=48 velocity=0 time=94
note_on channel=1 note=48 velocity=110 time=2
note_on channel=1 note=48 velocity=0 time=94
note_on channel=1 note=47 velocity=110 time=2
note_on channel=1 note=47 velocity=0 time=94
note_on channel=1 note=47 velocity=110 time=2
note_on channel=1 note=47 velocity=0 time=94
note_on channel=1 note=47 velocity=110 time=2
note_on channel=1 note=47 velocity=0 time=94
note_on channel=1 note=47 velocity=110 time=2
note_on channel=1 note=47 velocity=0 time=94
note_on channel=1 note=42 velocity=110 time=2
note_on channel=1 note=42 velocity=0 time=94
note_on channel=1 note=42 velocity=110 time=2
note_on channel=1 note=42 velocity=0 time=94
note_on channel=1 note=42 velocity=110 time=2
note_on channel=1 note=42 velocity=0 time=94
note_on channel=1 note=42 velocity=110 time=2
note_on channel=1 note=42 velocity=0 time=94
note_on channel=1 note=47 velocity=110 time=2
note_on channel=1 note=47 velocity=0 time=94
note_on channel=1 note=47 velocity=110 time=2
note_on channel=1 note=47 velocity=0 time=94
note_on channel=1 note=47 velocity=110 time=2
note_on channel=1 note=47 velocity=0 time=94
note_on channel=1 note=47 velocity=110 time=2
note_on channel=1 note=47 velocity=0 time=94
note_on channel=1 note=48 velocity=110 time=2
note_on channel=1 note=48 velocity=0 time=94
note_on channel=1 note=48 velocity=110 time=2
note_on channel=1 note=48 velocity=0 time=94
note_on channel=1 note=48 velocity=110 time=2
note_on channel=1 note=48 velocity=0 time=94
note_on channel=1 note=48 velocity=110 time=2
note_on channel=1 note=48 velocity=0 time=94
note_on channel=1 note=47 velocity=110 time=2
note_on channel=1 note=47 velocity=0 time=94
note_on channel=1 note=47 velocity=110 time=2
note_on channel=1 note=47 velocity=0 time=94
note_on channel=1 note=47 velocity=110 time=2
note_on channel=1 note=47 velocity=0 time=94
note_on channel=1 note=47 velocity=110 time=2
note_on channel=1 note=47 velocity=0 time=94
note_on channel=1 note=42 velocity=110 time=2
note_on channel=1 note=42 velocity=0 time=94
note_on channel=1 note=42 velocity=110 time=2
note_on channel=1 note=42 velocity=0 time=94
note_on channel=1 note=42 velocity=110 time=2
note_on channel=1 note=42 velocity=0 time=94
note_on channel=1 note=42 velocity=110 time=2
note_on channel=1 note=42 velocity=0 time=94
note_on channel=1 note=40 velocity=110 time=2
note_on channel=1 note=40 velocity=0 time=94
note_on channel=1 note=40 velocity=110 time=2
note_on channel=1 note=40 velocity=0 time=94
note_on channel=1 note=40 velocity=110 time=2
note_on channel=1 note=40 velocity=0 time=94
note_on channel=1 note=40 velocity=110 time=2
note_on channel=1 note=40 velocity=0 time=94
note_on channel=1 note=47 velocity=110 time=2
note_on channel=1 note=47 velocity=0 time=718
note_on channel=1 note=42 velocity=110 time=50
note_on channel=1 note=42 velocity=0 time=94
note_on channel=1 note=47 velocity=110 time=290
note_on channel=1 note=47 velocity=0 time=94
note_on channel=1 note=47 velocity=110 time=194
note_on channel=1 note=47 velocity=0 time=94
note_on channel=1 note=48 velocity=110 time=2
note_on channel=1 note=48 velocity=0 time=94
note_on channel=1 note=47 velocity=110 time=290
note_on channel=1 note=47 velocity=0 time=94
note_on channel=1 note=42 velocity=110 time=290
note_on channel=1 note=42 velocity=0 time=94
note_on channel=1 note=47 velocity=110 time=290
note_on channel=1 note=47 velocity=0 time=94
note_on channel=1 note=47 velocity=110 time=194
note_on channel=1 note=47 velocity=0 time=94
note_on channel=1 note=48 velocity=110 time=2
note_on channel=1 note=48 velocity=0 time=94
note_on channel=1 note=47 velocity=110 time=290
note_on channel=1 note=47 velocity=0 time=94
note_on channel=1 note=42 velocity=110 time=290
note_on channel=1 note=42 velocity=0 time=94
note_on channel=1 note=47 velocity=110 time=290
note_on channel=1 note=47 velocity=0 time=94
note_on channel=1 note=47 velocity=110 time=194
note_on channel=1 note=47 velocity=0 time=94
note_on channel=1 note=48 velocity=110 time=2
note_on channel=1 note=48 velocity=0 time=94
note_on channel=1 note=47 velocity=110 time=290
note_on channel=1 note=47 velocity=0 time=94
note_on channel=1 note=42 velocity=110 time=290
note_on channel=1 note=42 velocity=0 time=94
note_on channel=1 note=47 velocity=110 time=290
note_on channel=1 note=47 velocity=0 time=94
note_on channel=1 note=47 velocity=110 time=194
note_on channel=1 note=47 velocity=0 time=94
note_on channel=1 note=48 velocity=110 time=2
note_on channel=1 note=48 velocity=0 time=94
note_on channel=1 note=47 velocity=110 time=290
note_on channel=1 note=47 velocity=0 time=94
note_on channel=1 note=39 velocity=110 time=98
note_on channel=1 note=39 velocity=0 time=142
note_on channel=1 note=41 velocity=110 time=2
note_on channel=1 note=41 velocity=0 time=46
note_on channel=1 note=42 velocity=110 time=2
note_on channel=1 note=42 velocity=0 time=94
note_on channel=1 note=42 velocity=110 time=2
note_on channel=1 note=42 velocity=0 time=94
note_on channel=1 note=42 velocity=110 time=2
note_on channel=1 note=42 velocity=0 time=94
note_on channel=1 note=42 velocity=110 time=2
note_on channel=1 note=42 velocity=0 time=94
note_on channel=1 note=47 velocity=110 time=2
note_on channel=1 note=47 velocity=0 time=94
note_on channel=1 note=47 velocity=110 time=2
note_on channel=1 note=47 velocity=0 time=94
note_on channel=1 note=47 velocity=110 time=2
note_on channel=1 note=47 velocity=0 time=94
note_on channel=1 note=47 velocity=110 time=2
note_on channel=1 note=47 velocity=0 time=94
note_on channel=1 note=48 velocity=110 time=2
note_on channel=1 note=48 velocity=0 time=94
note_on channel=1 note=48 velocity=110 time=2
note_on channel=1 note=48 velocity=0 time=94
note_on channel=1 note=48 velocity=110 time=2
note_on channel=1 note=48 velocity=0 time=94
note_on channel=1 note=48 velocity=110 time=2
note_on channel=1 note=48 velocity=0 time=94
note_on channel=1 note=47 velocity=110 time=2
note_on channel=1 note=47 velocity=0 time=94
note_on channel=1 note=47 velocity=110 time=2
note_on channel=1 note=47 velocity=0 time=94
note_on channel=1 note=47 velocity=110 time=2
note_on channel=1 note=47 velocity=0 time=94
note_on channel=1 note=47 velocity=110 time=2
note_on channel=1 note=47 velocity=0 time=94
note_on channel=1 note=42 velocity=110 time=2
note_on channel=1 note=42 velocity=0 time=94
note_on channel=1 note=42 velocity=110 time=2
note_on channel=1 note=42 velocity=0 time=94
note_on channel=1 note=42 velocity=110 time=2
note_on channel=1 note=42 velocity=0 time=94
note_on channel=1 note=42 velocity=110 time=2
note_on channel=1 note=42 velocity=0 time=94
note_on channel=1 note=47 velocity=110 time=2
note_on channel=1 note=47 velocity=0 time=94
note_on channel=1 note=47 velocity=110 time=2
note_on channel=1 note=47 velocity=0 time=94
note_on channel=1 note=47 velocity=110 time=2
note_on channel=1 note=47 velocity=0 time=94
note_on channel=1 note=47 velocity=110 time=2
note_on channel=1 note=47 velocity=0 time=94
note_on channel=1 note=48 velocity=110 time=2
note_on channel=1 note=48 velocity=0 time=94
note_on channel=1 note=48 velocity=110 time=2
note_on channel=1 note=48 velocity=0 time=94
note_on channel=1 note=48 velocity=110 time=2
note_on channel=1 note=48 velocity=0 time=94
note_on channel=1 note=48 velocity=110 time=2
note_on channel=1 note=48 velocity=0 time=94
note_on channel=1 note=47 velocity=110 time=2
note_on channel=1 note=47 velocity=0 time=94
note_on channel=1 note=47 velocity=110 time=2
note_on channel=1 note=47 velocity=0 time=94
note_on channel=1 note=47 velocity=110 time=2
note_on channel=1 note=47 velocity=0 time=94
note_on channel=1 note=47 velocity=110 time=2
note_on channel=1 note=47 velocity=0 time=94
note_on channel=1 note=42 velocity=110 time=2
note_on channel=1 note=42 velocity=0 time=94
note_on channel=1 note=42 velocity=110 time=2
note_on channel=1 note=42 velocity=0 time=94
note_on channel=1 note=42 velocity=110 time=2
note_on channel=1 note=42 velocity=0 time=94
note_on channel=1 note=42 velocity=110 time=2
note_on channel=1 note=42 velocity=0 time=94
note_on channel=1 note=47 velocity=110 time=2
note_on channel=1 note=47 velocity=0 time=94
note_on channel=1 note=47 velocity=110 time=2
note_on channel=1 note=47 velocity=0 time=94
note_on channel=1 note=47 velocity=110 time=2
note_on channel=1 note=47 velocity=0 time=94
note_on channel=1 note=47 velocity=110 time=2
note_on channel=1 note=47 velocity=0 time=94
note_on channel=1 note=48 velocity=110 time=2
note_on channel=1 note=48 velocity=0 time=94
note_on channel=1 note=48 velocity=110 time=2
note_on channel=1 note=48 velocity=0 time=94
note_on channel=1 note=48 velocity=110 time=2
note_on channel=1 note=48 velocity=0 time=94
note_on channel=1 note=48 velocity=110 time=2
note_on channel=1 note=48 velocity=0 time=94
note_on channel=1 note=47 velocity=110 time=2
note_on channel=1 note=47 velocity=0 time=94
note_on channel=1 note=47 velocity=110 time=2
note_on channel=1 note=47 velocity=0 time=94
note_on channel=1 note=47 velocity=110 time=2
note_on channel=1 note=47 velocity=0 time=94
note_on channel=1 note=47 velocity=110 time=2
note_on channel=1 note=47 velocity=0 time=94
note_on channel=1 note=42 velocity=110 time=2
note_on channel=1 note=42 velocity=0 time=94
note_on channel=1 note=42 velocity=110 time=2
note_on channel=1 note=42 velocity=0 time=94
note_on channel=1 note=42 velocity=110 time=2
note_on channel=1 note=42 velocity=0 time=94
note_on channel=1 note=42 velocity=110 time=2
note_on channel=1 note=42 velocity=0 time=94
note_on channel=1 note=40 velocity=110 time=2
note_on channel=1 note=40 velocity=0 time=94
note_on channel=1 note=40 velocity=110 time=2
note_on channel=1 note=40 velocity=0 time=94
note_on channel=1 note=40 velocity=110 time=2
note_on channel=1 note=40 velocity=0 time=94
note_on channel=1 note=40 velocity=110 time=2
note_on channel=1 note=40 velocity=0 time=94
note_on channel=1 note=30 velocity=110 time=2
note_on channel=1 note=30 velocity=0 time=94
note_on channel=1 note=36 velocity=110 time=194
note_on channel=1 note=36 velocity=0 time=94
note_on channel=1 note=37 velocity=110 time=2
note_on channel=1 note=37 velocity=0 time=94
note_on channel=1 note=39 velocity=110 time=194
note_on channel=1 note=39 velocity=0 time=94
note_on channel=1 note=32 velocity=110 time=2
note_on channel=1 note=32 velocity=0 time=94
note_on channel=1 note=34 velocity=110 time=194
note_on channel=1 note=34 velocity=0 time=94
note_on channel=1 note=35 velocity=110 time=2
note_on channel=1 note=35 velocity=0 time=94
note_on channel=1 note=37 velocity=110 time=194
note_on channel=1 note=37 velocity=0 time=94
note_on channel=1 note=30 velocity=110 time=2
note_on channel=1 note=30 velocity=0 time=94
note_on channel=1 note=36 velocity=110 time=194
note_on channel=1 note=36 velocity=0 time=94
note_on channel=1 note=37 velocity=110 time=2
note_on channel=1 note=37 velocity=0 time=94
note_on channel=1 note=39 velocity=110 time=194
note_on channel=1 note=39 velocity=0 time=94
note_on channel=1 note=32 velocity=110 time=2
note_on channel=1 note=32 velocity=0 time=94
note_on channel=1 note=34 velocity=110 time=194
note_on channel=1 note=34 velocity=0 time=94
note_on channel=1 note=35 velocity=110 time=2
note_on channel=1 note=35 velocity=0 time=94
note_on channel=1 note=37 velocity=110 time=194
note_on channel=1 note=37 velocity=0 time=94
note_on channel=1 note=30 velocity=110 time=2
note_on channel=1 note=30 velocity=0 time=94
note_on channel=1 note=36 velocity=110 time=194
note_on channel=1 note=36 velocity=0 time=94
note_on channel=1 note=37 velocity=110 time=2
note_on channel=1 note=37 velocity=0 time=94
note_on channel=1 note=39 velocity=110 time=194
note_on channel=1 note=39 velocity=0 time=94
note_on channel=1 note=32 velocity=110 time=2
note_on channel=1 note=32 velocity=0 time=94
note_on channel=1 note=34 velocity=110 time=194
note_on channel=1 note=34 velocity=0 time=94
note_on channel=1 note=35 velocity=110 time=2
note_on channel=1 note=35 velocity=0 time=94
note_on channel=1 note=37 velocity=110 time=194
note_on channel=1 note=37 velocity=0 time=94
note_on channel=1 note=30 velocity=110 time=2
note_on channel=1 note=30 velocity=0 time=94
note_on channel=1 note=36 velocity=110 time=194
note_on channel=1 note=36 velocity=0 time=94
note_on channel=1 note=37 velocity=110 time=2
note_on channel=1 note=37 velocity=0 time=94
note_on channel=1 note=32 velocity=110 time=194
note_on channel=1 note=32 velocity=0 time=94
note_on channel=1 note=30 velocity=110 time=770
note_on channel=1 note=30 velocity=0 time=160
note_on channel=1 note=35 velocity=110 time=224
note_on channel=1 note=35 velocity=0 time=160
note_on channel=1 note=36 velocity=110 time=224
note_on channel=1 note=36 velocity=0 time=160
note_on channel=1 note=35 velocity=110 time=224
note_on channel=1 note=35 velocity=0 time=160
note_on channel=1 note=30 velocity=110 time=224
note_on channel=1 note=30 velocity=0 time=160
note_on channel=1 note=35 velocity=110 time=224
note_on channel=1 note=35 velocity=0 time=160
note_on channel=1 note=36 velocity=110 time=224
note_on channel=1 note=36 velocity=0 time=160
note_on channel=1 note=35 velocity=110 time=224
note_on channel=1 note=35 velocity=0 time=160
note_on channel=1 note=30 velocity=110 time=224
note_on channel=1 note=30 velocity=0 time=160
note_on channel=1 note=35 velocity=110 time=224
note_on channel=1 note=35 velocity=0 time=160
note_on channel=1 note=36 velocity=110 time=224
note_on channel=1 note=36 velocity=0 time=160
note_on channel=1 note=35 velocity=110 time=224
note_on channel=1 note=35 velocity=0 time=160
note_on channel=1 note=30 velocity=110 time=224
note_on channel=1 note=30 velocity=0 time=160
note_on channel=1 note=35 velocity=110 time=224
note_on channel=1 note=35 velocity=0 time=160
note_on channel=1 note=36 velocity=110 time=224
note_on channel=1 note=36 velocity=0 time=160
note_on channel=1 note=35 velocity=110 time=224
note_on channel=1 note=35 velocity=0 time=160
note_on channel=1 note=39 velocity=110 time=32
note_on channel=1 note=39 velocity=0 time=142
note_on channel=1 note=41 velocity=110 time=2
note_on channel=1 note=41 velocity=0 time=46
note_on channel=1 note=42 velocity=110 time=2
note_on channel=1 note=42 velocity=0 time=94
note_on channel=1 note=42 velocity=110 time=2
note_on channel=1 note=42 velocity=0 time=94
note_on channel=1 note=42 velocity=110 time=2
note_on channel=1 note=42 velocity=0 time=94
note_on channel=1 note=42 velocity=110 time=2
note_on channel=1 note=42 velocity=0 time=94
note_on channel=1 note=47 velocity=110 time=2
note_on channel=1 note=47 velocity=0 time=94
note_on channel=1 note=47 velocity=110 time=2
note_on channel=1 note=47 velocity=0 time=94
note_on channel=1 note=47 velocity=110 time=2
note_on channel=1 note=47 velocity=0 time=94
note_on channel=1 note=47 velocity=110 time=2
note_on channel=1 note=47 velocity=0 time=94
note_on channel=1 note=48 velocity=110 time=2
note_on channel=1 note=48 velocity=0 time=94
note_on channel=1 note=48 velocity=110 time=2
note_on channel=1 note=48 velocity=0 time=94
note_on channel=1 note=48 velocity=110 time=2
note_on channel=1 note=48 velocity=0 time=94
note_on channel=1 note=48 velocity=110 time=2
note_on channel=1 note=48 velocity=0 time=94
note_on channel=1 note=47 velocity=110 time=2
note_on channel=1 note=47 velocity=0 time=94
note_on channel=1 note=47 velocity=110 time=2
note_on channel=1 note=47 velocity=0 time=94
note_on channel=1 note=47 velocity=110 time=2
note_on channel=1 note=47 velocity=0 time=94
note_on channel=1 note=47 velocity=110 time=2
note_on channel=1 note=47 velocity=0 time=94
note_on channel=1 note=42 velocity=110 time=2
note_on channel=1 note=42 velocity=0 time=94
note_on channel=1 note=42 velocity=110 time=2
note_on channel=1 note=42 velocity=0 time=94
note_on channel=1 note=42 velocity=110 time=2
note_on channel=1 note=42 velocity=0 time=94
note_on channel=1 note=42 velocity=110 time=2
note_on channel=1 note=42 velocity=0 time=94
note_on channel=1 note=47 velocity=110 time=2
note_on channel=1 note=47 velocity=0 time=94
note_on channel=1 note=47 velocity=110 time=2
note_on channel=1 note=47 velocity=0 time=94
note_on channel=1 note=47 velocity=110 time=2
note_on channel=1 note=47 velocity=0 time=94
note_on channel=1 note=47 velocity=110 time=2
note_on channel=1 note=47 velocity=0 time=94
note_on channel=1 note=48 velocity=110 time=2
note_on channel=1 note=48 velocity=0 time=94
note_on channel=1 note=48 velocity=110 time=2
note_on channel=1 note=48 velocity=0 time=94
note_on channel=1 note=48 velocity=110 time=2
note_on channel=1 note=48 velocity=0 time=94
note_on channel=1 note=48 velocity=110 time=2
note_on channel=1 note=48 velocity=0 time=94
note_on channel=1 note=47 velocity=110 time=2
note_on channel=1 note=47 velocity=0 time=94
note_on channel=1 note=47 velocity=110 time=2
note_on channel=1 note=47 velocity=0 time=94
note_on channel=1 note=47 velocity=110 time=2
note_on channel=1 note=47 velocity=0 time=94
note_on channel=1 note=47 velocity=110 time=2
note_on channel=1 note=47 velocity=0 time=94
note_on channel=1 note=42 velocity=110 time=2
note_on channel=1 note=42 velocity=0 time=94
note_on channel=1 note=42 velocity=110 time=2
note_on channel=1 note=42 velocity=0 time=94
note_on channel=1 note=42 velocity=110 time=2
note_on channel=1 note=42 velocity=0 time=94
note_on channel=1 note=42 velocity=110 time=2
note_on channel=1 note=42 velocity=0 time=94
note_on channel=1 note=47 velocity=110 time=2
note_on channel=1 note=47 velocity=0 time=94
note_on channel=1 note=47 velocity=110 time=2
note_on channel=1 note=47 velocity=0 time=94
note_on channel=1 note=47 velocity=110 time=2
note_on channel=1 note=47 velocity=0 time=94
note_on channel=1 note=47 velocity=110 time=2
note_on channel=1 note=47 velocity=0 time=94
note_on channel=1 note=48 velocity=110 time=2
note_on channel=1 note=48 velocity=0 time=94
note_on channel=1 note=48 velocity=110 time=2
note_on channel=1 note=48 velocity=0 time=94
note_on channel=1 note=48 velocity=110 time=2
note_on channel=1 note=48 velocity=0 time=94
note_on channel=1 note=48 velocity=110 time=2
note_on channel=1 note=48 velocity=0 time=94
note_on channel=1 note=47 velocity=110 time=2
note_on channel=1 note=47 velocity=0 time=94
note_on channel=1 note=47 velocity=110 time=2
note_on channel=1 note=47 velocity=0 time=94
note_on channel=1 note=47 velocity=110 time=2
note_on channel=1 note=47 velocity=0 time=94
note_on channel=1 note=47 velocity=110 time=2
note_on channel=1 note=47 velocity=0 time=94
note_on channel=1 note=42 velocity=110 time=2
note_on channel=1 note=42 velocity=0 time=94
note_on channel=1 note=42 velocity=110 time=2
note_on channel=1 note=42 velocity=0 time=94
note_on channel=1 note=42 velocity=110 time=2
note_on channel=1 note=42 velocity=0 time=94
note_on channel=1 note=42 velocity=110 time=2
note_on channel=1 note=42 velocity=0 time=94
note_on channel=1 note=47 velocity=110 time=2
note_on channel=1 note=47 velocity=0 time=94
note_on channel=1 note=47 velocity=110 time=2
note_on channel=1 note=47 velocity=0 time=94
note_on channel=1 note=47 velocity=110 time=2
note_on channel=1 note=47 velocity=0 time=94
note_on channel=1 note=47 velocity=110 time=2
note_on channel=1 note=47 velocity=0 time=94
note_on channel=1 note=48 velocity=110 time=2
note_on channel=1 note=48 velocity=0 time=94
note_on channel=1 note=48 velocity=110 time=2
note_on channel=1 note=48 velocity=0 time=94
note_on channel=1 note=48 velocity=110 time=2
note_on channel=1 note=48 velocity=0 time=94
note_on channel=1 note=48 velocity=110 time=2
note_on channel=1 note=48 velocity=0 time=94
note_on channel=1 note=47 velocity=110 time=2
note_on channel=1 note=47 velocity=0 time=94
note_on channel=1 note=47 velocity=110 time=2
note_on channel=1 note=47 velocity=0 time=94
note_on channel=1 note=47 velocity=110 time=2
note_on channel=1 note=47 velocity=0 time=94
note_on channel=1 note=47 velocity=110 time=2
note_on channel=1 note=47 velocity=0 time=94
note_on channel=1 note=42 velocity=110 time=2
note_on channel=1 note=42 velocity=0 time=94
note_on channel=1 note=42 velocity=110 time=2
note_on channel=1 note=42 velocity=0 time=94
note_on channel=1 note=42 velocity=110 time=2
note_on channel=1 note=42 velocity=0 time=94
note_on channel=1 note=42 velocity=110 time=2
note_on channel=1 note=42 velocity=0 time=94
note_on channel=1 note=47 velocity=110 time=2
note_on channel=1 note=47 velocity=0 time=94
note_on channel=1 note=47 velocity=110 time=2
note_on channel=1 note=47 velocity=0 time=94
note_on channel=1 note=47 velocity=110 time=2
note_on channel=1 note=47 velocity=0 time=94
note_on channel=1 note=47 velocity=110 time=2
note_on channel=1 note=47 velocity=0 time=94
note_on channel=1 note=48 velocity=110 time=2
note_on channel=1 note=48 velocity=0 time=94
note_on channel=1 note=48 velocity=110 time=2
note_on channel=1 note=48 velocity=0 time=94
note_on channel=1 note=48 velocity=110 time=2
note_on channel=1 note=48 velocity=0 time=94
note_on channel=1 note=48 velocity=110 time=2
note_on channel=1 note=48 velocity=0 time=94
note_on channel=1 note=47 velocity=110 time=2
note_on channel=1 note=47 velocity=0 time=94
note_on channel=1 note=47 velocity=110 time=2
note_on channel=1 note=47 velocity=0 time=94
note_on channel=1 note=47 velocity=110 time=2
note_on channel=1 note=47 velocity=0 time=94
note_on channel=1 note=47 velocity=110 time=2
note_on channel=1 note=47 velocity=0 time=94
note_on channel=1 note=42 velocity=110 time=2
note_on channel=1 note=42 velocity=0 time=94
note_on channel=1 note=42 velocity=110 time=2
note_on channel=1 note=42 velocity=0 time=94
note_on channel=1 note=42 velocity=110 time=2
note_on channel=1 note=42 velocity=0 time=94
note_on channel=1 note=42 velocity=110 time=2
note_on channel=1 note=42 velocity=0 time=94
note_on channel=1 note=40 velocity=110 time=2
note_on channel=1 note=40 velocity=0 time=94
note_on channel=1 note=40 velocity=110 time=2
note_on channel=1 note=40 velocity=0 time=94
note_on channel=1 note=40 velocity=110 time=2
note_on channel=1 note=40 velocity=0 time=94
note_on channel=1 note=40 velocity=110 time=2
note_on channel=1 note=40 velocity=0 time=94
note_on channel=1 note=47 velocity=110 time=2
note_on channel=1 note=47 velocity=0 time=718
MetaMessage('end_of_track', time=0)
Track 5: Staff-2
MetaMessage('midi_port', port=0, time=0)
MetaMessage('track_name', name='Staff-2', time=0)
program_change channel=2 program=30 time=0
control_change channel=2 control=7 value=127 time=0
control_change channel=2 control=10 value=64 time=0
note_on channel=2 note=61 velocity=110 time=960
note_on channel=2 note=66 velocity=110 time=0
note_on channel=2 note=61 velocity=0 time=46
note_on channel=2 note=66 velocity=0 time=0
note_on channel=2 note=63 velocity=110 time=242
note_on channel=2 note=68 velocity=110 time=0
note_on channel=2 note=63 velocity=0 time=46
note_on channel=2 note=68 velocity=0 time=0
note_on channel=2 note=63 velocity=110 time=50
note_on channel=2 note=68 velocity=110 time=0
note_on channel=2 note=63 velocity=0 time=46
note_on channel=2 note=68 velocity=0 time=0
note_on channel=2 note=63 velocity=110 time=338
note_on channel=2 note=68 velocity=110 time=0
note_on channel=2 note=63 velocity=0 time=46
note_on channel=2 note=68 velocity=0 time=0
note_on channel=2 note=61 velocity=110 time=242
note_on channel=2 note=66 velocity=110 time=0
note_on channel=2 note=61 velocity=0 time=46
note_on channel=2 note=66 velocity=0 time=0
note_on channel=2 note=61 velocity=110 time=146
note_on channel=2 note=66 velocity=110 time=0
note_on channel=2 note=61 velocity=0 time=46
note_on channel=2 note=66 velocity=0 time=0
note_on channel=2 note=61 velocity=110 time=242
note_on channel=2 note=66 velocity=110 time=0
note_on channel=2 note=61 velocity=0 time=46
note_on channel=2 note=66 velocity=0 time=0
note_on channel=2 note=63 velocity=110 time=242
note_on channel=2 note=68 velocity=110 time=0
note_on channel=2 note=63 velocity=0 time=46
note_on channel=2 note=68 velocity=0 time=0
note_on channel=2 note=63 velocity=110 time=50
note_on channel=2 note=68 velocity=110 time=0
note_on channel=2 note=63 velocity=0 time=46
note_on channel=2 note=68 velocity=0 time=0
note_on channel=2 note=63 velocity=110 time=338
note_on channel=2 note=68 velocity=110 time=0
note_on channel=2 note=63 velocity=0 time=46
note_on channel=2 note=68 velocity=0 time=0
note_on channel=2 note=61 velocity=110 time=242
note_on channel=2 note=66 velocity=110 time=0
note_on channel=2 note=61 velocity=0 time=46
note_on channel=2 note=66 velocity=0 time=0
note_on channel=2 note=61 velocity=110 time=146
note_on channel=2 note=66 velocity=110 time=0
note_on channel=2 note=61 velocity=0 time=46
note_on channel=2 note=66 velocity=0 time=0
note_on channel=2 note=61 velocity=110 time=242
note_on channel=2 note=66 velocity=110 time=0
note_on channel=2 note=61 velocity=0 time=46
note_on channel=2 note=66 velocity=0 time=0
note_on channel=2 note=63 velocity=110 time=242
note_on channel=2 note=68 velocity=110 time=0
note_on channel=2 note=63 velocity=0 time=46
note_on channel=2 note=68 velocity=0 time=0
note_on channel=2 note=63 velocity=110 time=50
note_on channel=2 note=68 velocity=110 time=0
note_on channel=2 note=63 velocity=0 time=46
note_on channel=2 note=68 velocity=0 time=0
note_on channel=2 note=63 velocity=110 time=338
note_on channel=2 note=68 velocity=110 time=0
note_on channel=2 note=63 velocity=0 time=46
note_on channel=2 note=68 velocity=0 time=0
note_on channel=2 note=61 velocity=110 time=242
note_on channel=2 note=66 velocity=110 time=0
note_on channel=2 note=61 velocity=0 time=46
note_on channel=2 note=66 velocity=0 time=0
note_on channel=2 note=61 velocity=110 time=146
note_on channel=2 note=66 velocity=110 time=0
note_on channel=2 note=61 velocity=0 time=46
note_on channel=2 note=66 velocity=0 time=0
note_on channel=2 note=61 velocity=110 time=242
note_on channel=2 note=66 velocity=110 time=0
note_on channel=2 note=61 velocity=0 time=46
note_on channel=2 note=66 velocity=0 time=0
note_on channel=2 note=63 velocity=110 time=242
note_on channel=2 note=68 velocity=110 time=0
note_on channel=2 note=63 velocity=0 time=46
note_on channel=2 note=68 velocity=0 time=0
note_on channel=2 note=63 velocity=110 time=50
note_on channel=2 note=68 velocity=110 time=0
note_on channel=2 note=63 velocity=0 time=46
note_on channel=2 note=68 velocity=0 time=0
note_on channel=2 note=63 velocity=110 time=338
note_on channel=2 note=68 velocity=110 time=0
note_on channel=2 note=63 velocity=0 time=46
note_on channel=2 note=68 velocity=0 time=0
note_on channel=2 note=61 velocity=110 time=242
note_on channel=2 note=66 velocity=110 time=0
note_on channel=2 note=61 velocity=0 time=46
note_on channel=2 note=66 velocity=0 time=0
note_on channel=2 note=61 velocity=110 time=434
note_on channel=2 note=66 velocity=110 time=0
note_on channel=2 note=61 velocity=0 time=46
note_on channel=2 note=66 velocity=0 time=0
note_on channel=2 note=63 velocity=110 time=242
note_on channel=2 note=68 velocity=110 time=0
note_on channel=2 note=63 velocity=0 time=46
note_on channel=2 note=68 velocity=0 time=0
note_on channel=2 note=63 velocity=110 time=50
note_on channel=2 note=68 velocity=110 time=0
note_on channel=2 note=63 velocity=0 time=46
note_on channel=2 note=68 velocity=0 time=0
note_on channel=2 note=63 velocity=110 time=338
note_on channel=2 note=68 velocity=110 time=0
note_on channel=2 note=63 velocity=0 time=46
note_on channel=2 note=68 velocity=0 time=0
note_on channel=2 note=61 velocity=110 time=242
note_on channel=2 note=66 velocity=110 time=0
note_on channel=2 note=61 velocity=0 time=46
note_on channel=2 note=66 velocity=0 time=0
note_on channel=2 note=61 velocity=110 time=146
note_on channel=2 note=66 velocity=110 time=0
note_on channel=2 note=61 velocity=0 time=46
note_on channel=2 note=66 velocity=0 time=0
note_on channel=2 note=61 velocity=110 time=242
note_on channel=2 note=66 velocity=110 time=0
note_on channel=2 note=61 velocity=0 time=46
note_on channel=2 note=66 velocity=0 time=0
note_on channel=2 note=63 velocity=110 time=242
note_on channel=2 note=68 velocity=110 time=0
note_on channel=2 note=63 velocity=0 time=46
note_on channel=2 note=68 velocity=0 time=0
note_on channel=2 note=63 velocity=110 time=50
note_on channel=2 note=68 velocity=110 time=0
note_on channel=2 note=63 velocity=0 time=46
note_on channel=2 note=68 velocity=0 time=0
note_on channel=2 note=63 velocity=110 time=338
note_on channel=2 note=68 velocity=110 time=0
note_on channel=2 note=63 velocity=0 time=46
note_on channel=2 note=68 velocity=0 time=0
note_on channel=2 note=61 velocity=110 time=242
note_on channel=2 note=66 velocity=110 time=0
note_on channel=2 note=61 velocity=0 time=46
note_on channel=2 note=66 velocity=0 time=0
note_on channel=2 note=61 velocity=110 time=146
note_on channel=2 note=66 velocity=110 time=0
note_on channel=2 note=61 velocity=0 time=46
note_on channel=2 note=66 velocity=0 time=0
note_on channel=2 note=61 velocity=110 time=242
note_on channel=2 note=66 velocity=110 time=0
note_on channel=2 note=61 velocity=0 time=46
note_on channel=2 note=66 velocity=0 time=0
note_on channel=2 note=63 velocity=110 time=242
note_on channel=2 note=68 velocity=110 time=0
note_on channel=2 note=63 velocity=0 time=46
note_on channel=2 note=68 velocity=0 time=0
note_on channel=2 note=63 velocity=110 time=50
note_on channel=2 note=68 velocity=110 time=0
note_on channel=2 note=63 velocity=0 time=46
note_on channel=2 note=68 velocity=0 time=0
note_on channel=2 note=63 velocity=110 time=338
note_on channel=2 note=68 velocity=110 time=0
note_on channel=2 note=63 velocity=0 time=46
note_on channel=2 note=68 velocity=0 time=0
note_on channel=2 note=61 velocity=110 time=242
note_on channel=2 note=66 velocity=110 time=0
note_on channel=2 note=61 velocity=0 time=46
note_on channel=2 note=66 velocity=0 time=0
note_on channel=2 note=61 velocity=110 time=146
note_on channel=2 note=66 velocity=110 time=0
note_on channel=2 note=61 velocity=0 time=46
note_on channel=2 note=66 velocity=0 time=0
note_on channel=2 note=61 velocity=110 time=242
note_on channel=2 note=66 velocity=110 time=0
note_on channel=2 note=61 velocity=0 time=46
note_on channel=2 note=66 velocity=0 time=0
note_on channel=2 note=63 velocity=110 time=242
note_on channel=2 note=68 velocity=110 time=0
note_on channel=2 note=63 velocity=0 time=46
note_on channel=2 note=68 velocity=0 time=0
note_on channel=2 note=63 velocity=110 time=50
note_on channel=2 note=68 velocity=110 time=0
note_on channel=2 note=63 velocity=0 time=46
note_on channel=2 note=68 velocity=0 time=0
note_on channel=2 note=63 velocity=110 time=338
note_on channel=2 note=68 velocity=110 time=0
note_on channel=2 note=63 velocity=0 time=46
note_on channel=2 note=68 velocity=0 time=0
note_on channel=2 note=61 velocity=110 time=242
note_on channel=2 note=66 velocity=110 time=0
note_on channel=2 note=61 velocity=0 time=46
note_on channel=2 note=66 velocity=0 time=0
note_on channel=2 note=61 velocity=110 time=6578
note_on channel=2 note=66 velocity=110 time=0
note_on channel=2 note=61 velocity=0 time=46
note_on channel=2 note=66 velocity=0 time=0
note_on channel=2 note=63 velocity=110 time=242
note_on channel=2 note=68 velocity=110 time=0
note_on channel=2 note=63 velocity=0 time=46
note_on channel=2 note=68 velocity=0 time=0
note_on channel=2 note=63 velocity=110 time=50
note_on channel=2 note=68 velocity=110 time=0
note_on channel=2 note=63 velocity=0 time=46
note_on channel=2 note=68 velocity=0 time=0
note_on channel=2 note=63 velocity=110 time=338
note_on channel=2 note=68 velocity=110 time=0
note_on channel=2 note=63 velocity=0 time=46
note_on channel=2 note=68 velocity=0 time=0
note_on channel=2 note=61 velocity=110 time=242
note_on channel=2 note=66 velocity=110 time=0
note_on channel=2 note=61 velocity=0 time=46
note_on channel=2 note=66 velocity=0 time=0
note_on channel=2 note=61 velocity=110 time=146
note_on channel=2 note=66 velocity=110 time=0
note_on channel=2 note=61 velocity=0 time=46
note_on channel=2 note=66 velocity=0 time=0
note_on channel=2 note=61 velocity=110 time=242
note_on channel=2 note=66 velocity=110 time=0
note_on channel=2 note=61 velocity=0 time=46
note_on channel=2 note=66 velocity=0 time=0
note_on channel=2 note=63 velocity=110 time=242
note_on channel=2 note=68 velocity=110 time=0
note_on channel=2 note=63 velocity=0 time=46
note_on channel=2 note=68 velocity=0 time=0
note_on channel=2 note=63 velocity=110 time=50
note_on channel=2 note=68 velocity=110 time=0
note_on channel=2 note=63 velocity=0 time=46
note_on channel=2 note=68 velocity=0 time=0
note_on channel=2 note=63 velocity=110 time=338
note_on channel=2 note=68 velocity=110 time=0
note_on channel=2 note=63 velocity=0 time=46
note_on channel=2 note=68 velocity=0 time=0
note_on channel=2 note=61 velocity=110 time=242
note_on channel=2 note=66 velocity=110 time=0
note_on channel=2 note=61 velocity=0 time=46
note_on channel=2 note=66 velocity=0 time=0
note_on channel=2 note=61 velocity=110 time=146
note_on channel=2 note=66 velocity=110 time=0
note_on channel=2 note=61 velocity=0 time=46
note_on channel=2 note=66 velocity=0 time=0
note_on channel=2 note=61 velocity=110 time=242
note_on channel=2 note=66 velocity=110 time=0
note_on channel=2 note=61 velocity=0 time=46
note_on channel=2 note=66 velocity=0 time=0
note_on channel=2 note=63 velocity=110 time=242
note_on channel=2 note=68 velocity=110 time=0
note_on channel=2 note=63 velocity=0 time=46
note_on channel=2 note=68 velocity=0 time=0
note_on channel=2 note=63 velocity=110 time=50
note_on channel=2 note=68 velocity=110 time=0
note_on channel=2 note=63 velocity=0 time=46
note_on channel=2 note=68 velocity=0 time=0
note_on channel=2 note=63 velocity=110 time=338
note_on channel=2 note=68 velocity=110 time=0
note_on channel=2 note=63 velocity=0 time=46
note_on channel=2 note=68 velocity=0 time=0
note_on channel=2 note=61 velocity=110 time=242
note_on channel=2 note=66 velocity=110 time=0
note_on channel=2 note=61 velocity=0 time=46
note_on channel=2 note=66 velocity=0 time=0
note_on channel=2 note=61 velocity=110 time=146
note_on channel=2 note=66 velocity=110 time=0
note_on channel=2 note=61 velocity=0 time=46
note_on channel=2 note=66 velocity=0 time=0
note_on channel=2 note=61 velocity=110 time=242
note_on channel=2 note=66 velocity=110 time=0
note_on channel=2 note=61 velocity=0 time=46
note_on channel=2 note=66 velocity=0 time=0
note_on channel=2 note=63 velocity=110 time=242
note_on channel=2 note=68 velocity=110 time=0
note_on channel=2 note=63 velocity=0 time=46
note_on channel=2 note=68 velocity=0 time=0
note_on channel=2 note=63 velocity=110 time=50
note_on channel=2 note=68 velocity=110 time=0
note_on channel=2 note=63 velocity=0 time=46
note_on channel=2 note=68 velocity=0 time=0
note_on channel=2 note=63 velocity=110 time=338
note_on channel=2 note=68 velocity=110 time=0
note_on channel=2 note=63 velocity=0 time=46
note_on channel=2 note=68 velocity=0 time=0
note_on channel=2 note=61 velocity=110 time=242
note_on channel=2 note=66 velocity=110 time=0
note_on channel=2 note=61 velocity=0 time=46
note_on channel=2 note=66 velocity=0 time=0
note_on channel=2 note=61 velocity=110 time=146
note_on channel=2 note=66 velocity=110 time=0
note_on channel=2 note=61 velocity=0 time=46
note_on channel=2 note=66 velocity=0 time=0
MetaMessage('end_of_track', time=0)
Track 6: Staff-4
MetaMessage('midi_port', port=0, time=0)
MetaMessage('track_name', name='Staff-4', time=0)
control_change channel=9 control=7 value=127 time=0
control_change channel=9 control=10 value=64 time=0
note_on channel=9 note=52 velocity=110 time=3648
note_on channel=9 note=52 velocity=0 time=160
note_on channel=9 note=52 velocity=110 time=224
note_on channel=9 note=52 velocity=0 time=160
note_on channel=9 note=52 velocity=110 time=224
note_on channel=9 note=52 velocity=0 time=160
note_on channel=9 note=52 velocity=110 time=224
note_on channel=9 note=52 velocity=0 time=160
note_on channel=9 note=52 velocity=110 time=224
note_on channel=9 note=52 velocity=0 time=160
note_on channel=9 note=52 velocity=110 time=224
note_on channel=9 note=52 velocity=0 time=160
note_on channel=9 note=52 velocity=110 time=224
note_on channel=9 note=52 velocity=0 time=160
note_on channel=9 note=52 velocity=110 time=224
note_on channel=9 note=52 velocity=0 time=160
note_on channel=9 note=55 velocity=110 time=224
note_on channel=9 note=55 velocity=0 time=160
note_on channel=9 note=57 velocity=110 time=32
note_on channel=9 note=57 velocity=0 time=718
note_on channel=9 note=55 velocity=110 time=5426
note_on channel=9 note=55 velocity=0 time=160
note_on channel=9 note=41 velocity=110 time=416
note_on channel=9 note=41 velocity=0 time=46
note_on channel=9 note=41 velocity=110 time=2
note_on channel=9 note=41 velocity=0 time=46
note_on channel=9 note=41 velocity=110 time=2
note_on channel=9 note=41 velocity=0 time=46
note_on channel=9 note=41 velocity=110 time=2
note_on channel=9 note=41 velocity=0 time=46
note_on channel=9 note=41 velocity=110 time=578
note_on channel=9 note=41 velocity=0 time=46
note_on channel=9 note=41 velocity=110 time=2
note_on channel=9 note=41 velocity=0 time=46
note_on channel=9 note=41 velocity=110 time=2
note_on channel=9 note=41 velocity=0 time=46
note_on channel=9 note=41 velocity=110 time=2
note_on channel=9 note=41 velocity=0 time=46
note_on channel=9 note=41 velocity=110 time=578
note_on channel=9 note=41 velocity=0 time=46
note_on channel=9 note=41 velocity=110 time=2
note_on channel=9 note=41 velocity=0 time=46
note_on channel=9 note=41 velocity=110 time=2
note_on channel=9 note=41 velocity=0 time=46
note_on channel=9 note=41 velocity=110 time=2
note_on channel=9 note=41 velocity=0 time=46
note_on channel=9 note=41 velocity=110 time=578
note_on channel=9 note=41 velocity=0 time=46
note_on channel=9 note=41 velocity=110 time=2
note_on channel=9 note=41 velocity=0 time=46
note_on channel=9 note=41 velocity=110 time=2
note_on channel=9 note=41 velocity=0 time=46
note_on channel=9 note=41 velocity=110 time=2
note_on channel=9 note=41 velocity=0 time=46
note_on channel=9 note=55 velocity=110 time=2
note_on channel=9 note=55 velocity=0 time=160
note_on channel=9 note=41 velocity=110 time=416
note_on channel=9 note=41 velocity=0 time=46
note_on channel=9 note=41 velocity=110 time=2
note_on channel=9 note=41 velocity=0 time=46
note_on channel=9 note=41 velocity=110 time=2
note_on channel=9 note=41 velocity=0 time=46
note_on channel=9 note=41 velocity=110 time=2
note_on channel=9 note=41 velocity=0 time=46
note_on channel=9 note=41 velocity=110 time=578
note_on channel=9 note=41 velocity=0 time=46
note_on channel=9 note=41 velocity=110 time=2
note_on channel=9 note=41 velocity=0 time=46
note_on channel=9 note=41 velocity=110 time=2
note_on channel=9 note=41 velocity=0 time=46
note_on channel=9 note=41 velocity=110 time=2
note_on channel=9 note=41 velocity=0 time=46
note_on channel=9 note=42 velocity=110 time=770
note_on channel=9 note=42 velocity=0 time=94
note_on channel=9 note=42 velocity=110 time=2
note_on channel=9 note=42 velocity=0 time=94
note_on channel=9 note=42 velocity=110 time=2
note_on channel=9 note=42 velocity=0 time=94
note_on channel=9 note=42 velocity=110 time=2
note_on channel=9 note=42 velocity=0 time=94
note_on channel=9 note=42 velocity=110 time=2
note_on channel=9 note=42 velocity=0 time=94
note_on channel=9 note=42 velocity=110 time=2
note_on channel=9 note=42 velocity=0 time=94
note_on channel=9 note=42 velocity=110 time=2
note_on channel=9 note=42 velocity=0 time=94
note_on channel=9 note=42 velocity=110 time=2
note_on channel=9 note=42 velocity=0 time=94
note_on channel=9 note=55 velocity=110 time=6146
note_on channel=9 note=55 velocity=0 time=160
note_on channel=9 note=41 velocity=110 time=416
note_on channel=9 note=41 velocity=0 time=46
note_on channel=9 note=41 velocity=110 time=2
note_on channel=9 note=41 velocity=0 time=46
note_on channel=9 note=41 velocity=110 time=2
note_on channel=9 note=41 velocity=0 time=46
note_on channel=9 note=41 velocity=110 time=2
note_on channel=9 note=41 velocity=0 time=46
note_on channel=9 note=41 velocity=110 time=578
note_on channel=9 note=41 velocity=0 time=46
note_on channel=9 note=41 velocity=110 time=2
note_on channel=9 note=41 velocity=0 time=46
note_on channel=9 note=41 velocity=110 time=2
note_on channel=9 note=41 velocity=0 time=46
note_on channel=9 note=41 velocity=110 time=2
note_on channel=9 note=41 velocity=0 time=46
note_on channel=9 note=41 velocity=110 time=578
note_on channel=9 note=41 velocity=0 time=46
note_on channel=9 note=41 velocity=110 time=2
note_on channel=9 note=41 velocity=0 time=46
note_on channel=9 note=41 velocity=110 time=2
note_on channel=9 note=41 velocity=0 time=46
note_on channel=9 note=41 velocity=110 time=2
note_on channel=9 note=41 velocity=0 time=46
note_on channel=9 note=41 velocity=110 time=578
note_on channel=9 note=41 velocity=0 time=46
note_on channel=9 note=41 velocity=110 time=2
note_on channel=9 note=41 velocity=0 time=46
note_on channel=9 note=41 velocity=110 time=2
note_on channel=9 note=41 velocity=0 time=46
note_on channel=9 note=41 velocity=110 time=2
note_on channel=9 note=41 velocity=0 time=46
note_on channel=9 note=55 velocity=110 time=2
note_on channel=9 note=55 velocity=0 time=160
note_on channel=9 note=41 velocity=110 time=416
note_on channel=9 note=41 velocity=0 time=46
note_on channel=9 note=41 velocity=110 time=2
note_on channel=9 note=41 velocity=0 time=46
note_on channel=9 note=41 velocity=110 time=2
note_on channel=9 note=41 velocity=0 time=46
note_on channel=9 note=41 velocity=110 time=2
note_on channel=9 note=41 velocity=0 time=46
note_on channel=9 note=41 velocity=110 time=578
note_on channel=9 note=41 velocity=0 time=46
note_on channel=9 note=41 velocity=110 time=2
note_on channel=9 note=41 velocity=0 time=46
note_on channel=9 note=41 velocity=110 time=2
note_on channel=9 note=41 velocity=0 time=46
note_on channel=9 note=41 velocity=110 time=2
note_on channel=9 note=41 velocity=0 time=46
note_on channel=9 note=42 velocity=110 time=770
note_on channel=9 note=42 velocity=0 time=94
note_on channel=9 note=42 velocity=110 time=2
note_on channel=9 note=42 velocity=0 time=94
note_on channel=9 note=42 velocity=110 time=2
note_on channel=9 note=42 velocity=0 time=94
note_on channel=9 note=42 velocity=110 time=2
note_on channel=9 note=42 velocity=0 time=94
note_on channel=9 note=42 velocity=110 time=2
note_on channel=9 note=42 velocity=0 time=94
note_on channel=9 note=46 velocity=110 time=194
note_on channel=9 note=46 velocity=0 time=94
note_on channel=9 note=55 velocity=110 time=6146
note_on channel=9 note=55 velocity=0 time=160
note_on channel=9 note=41 velocity=110 time=416
note_on channel=9 note=41 velocity=0 time=46
note_on channel=9 note=41 velocity=110 time=2
note_on channel=9 note=41 velocity=0 time=46
note_on channel=9 note=41 velocity=110 time=2
note_on channel=9 note=41 velocity=0 time=46
note_on channel=9 note=41 velocity=110 time=2
note_on channel=9 note=41 velocity=0 time=46
note_on channel=9 note=41 velocity=110 time=578
note_on channel=9 note=41 velocity=0 time=46
note_on channel=9 note=41 velocity=110 time=2
note_on channel=9 note=41 velocity=0 time=46
note_on channel=9 note=41 velocity=110 time=2
note_on channel=9 note=41 velocity=0 time=46
note_on channel=9 note=41 velocity=110 time=2
note_on channel=9 note=41 velocity=0 time=46
note_on channel=9 note=41 velocity=110 time=578
note_on channel=9 note=41 velocity=0 time=46
note_on channel=9 note=41 velocity=110 time=2
note_on channel=9 note=41 velocity=0 time=46
note_on channel=9 note=41 velocity=110 time=2
note_on channel=9 note=41 velocity=0 time=46
note_on channel=9 note=41 velocity=110 time=2
note_on channel=9 note=41 velocity=0 time=46
note_on channel=9 note=41 velocity=110 time=578
note_on channel=9 note=41 velocity=0 time=46
note_on channel=9 note=41 velocity=110 time=2
note_on channel=9 note=41 velocity=0 time=46
note_on channel=9 note=41 velocity=110 time=2
note_on channel=9 note=41 velocity=0 time=46
note_on channel=9 note=41 velocity=110 time=2
note_on channel=9 note=41 velocity=0 time=46
note_on channel=9 note=55 velocity=110 time=2
note_on channel=9 note=55 velocity=0 time=160
note_on channel=9 note=41 velocity=110 time=416
note_on channel=9 note=41 velocity=0 time=46
note_on channel=9 note=41 velocity=110 time=2
note_on channel=9 note=41 velocity=0 time=46
note_on channel=9 note=41 velocity=110 time=2
note_on channel=9 note=41 velocity=0 time=46
note_on channel=9 note=41 velocity=110 time=2
note_on channel=9 note=41 velocity=0 time=46
note_on channel=9 note=41 velocity=110 time=578
note_on channel=9 note=41 velocity=0 time=46
note_on channel=9 note=41 velocity=110 time=2
note_on channel=9 note=41 velocity=0 time=46
note_on channel=9 note=41 velocity=110 time=2
note_on channel=9 note=41 velocity=0 time=46
note_on channel=9 note=41 velocity=110 time=2
note_on channel=9 note=41 velocity=0 time=46
note_on channel=9 note=55 velocity=110 time=13058
note_on channel=9 note=55 velocity=0 time=160
note_on channel=9 note=41 velocity=110 time=416
note_on channel=9 note=41 velocity=0 time=46
note_on channel=9 note=41 velocity=110 time=2
note_on channel=9 note=41 velocity=0 time=46
note_on channel=9 note=41 velocity=110 time=2
note_on channel=9 note=41 velocity=0 time=46
note_on channel=9 note=41 velocity=110 time=2
note_on channel=9 note=41 velocity=0 time=46
note_on channel=9 note=41 velocity=110 time=578
note_on channel=9 note=41 velocity=0 time=46
note_on channel=9 note=41 velocity=110 time=2
note_on channel=9 note=41 velocity=0 time=46
note_on channel=9 note=41 velocity=110 time=2
note_on channel=9 note=41 velocity=0 time=46
note_on channel=9 note=41 velocity=110 time=2
note_on channel=9 note=41 velocity=0 time=46
note_on channel=9 note=41 velocity=110 time=578
note_on channel=9 note=41 velocity=0 time=46
note_on channel=9 note=41 velocity=110 time=2
note_on channel=9 note=41 velocity=0 time=46
note_on channel=9 note=41 velocity=110 time=2
note_on channel=9 note=41 velocity=0 time=46
note_on channel=9 note=41 velocity=110 time=2
note_on channel=9 note=41 velocity=0 time=46
note_on channel=9 note=41 velocity=110 time=578
note_on channel=9 note=41 velocity=0 time=46
note_on channel=9 note=41 velocity=110 time=2
note_on channel=9 note=41 velocity=0 time=46
note_on channel=9 note=41 velocity=110 time=2
note_on channel=9 note=41 velocity=0 time=46
note_on channel=9 note=41 velocity=110 time=2
note_on channel=9 note=41 velocity=0 time=46
note_on channel=9 note=55 velocity=110 time=2
note_on channel=9 note=55 velocity=0 time=160
note_on channel=9 note=41 velocity=110 time=416
note_on channel=9 note=41 velocity=0 time=46
note_on channel=9 note=41 velocity=110 time=2
note_on channel=9 note=41 velocity=0 time=46
note_on channel=9 note=41 velocity=110 time=2
note_on channel=9 note=41 velocity=0 time=46
note_on channel=9 note=41 velocity=110 time=2
note_on channel=9 note=41 velocity=0 time=46
note_on channel=9 note=41 velocity=110 time=578
note_on channel=9 note=41 velocity=0 time=46
note_on channel=9 note=41 velocity=110 time=2
note_on channel=9 note=41 velocity=0 time=46
note_on channel=9 note=41 velocity=110 time=2
note_on channel=9 note=41 velocity=0 time=46
note_on channel=9 note=41 velocity=110 time=2
note_on channel=9 note=41 velocity=0 time=46
note_on channel=9 note=41 velocity=110 time=578
note_on channel=9 note=41 velocity=0 time=46
note_on channel=9 note=41 velocity=110 time=2
note_on channel=9 note=41 velocity=0 time=46
note_on channel=9 note=41 velocity=110 time=2
note_on channel=9 note=41 velocity=0 time=46
note_on channel=9 note=41 velocity=110 time=2
note_on channel=9 note=41 velocity=0 time=46
note_on channel=9 note=41 velocity=110 time=578
note_on channel=9 note=41 velocity=0 time=46
note_on channel=9 note=41 velocity=110 time=2
note_on channel=9 note=41 velocity=0 time=46
note_on channel=9 note=41 velocity=110 time=2
note_on channel=9 note=41 velocity=0 time=46
note_on channel=9 note=41 velocity=110 time=2
note_on channel=9 note=41 velocity=0 time=46
note_on channel=9 note=55 velocity=110 time=2
note_on channel=9 note=55 velocity=0 time=160
note_on channel=9 note=41 velocity=110 time=416
note_on channel=9 note=41 velocity=0 time=46
note_on channel=9 note=41 velocity=110 time=2
note_on channel=9 note=41 velocity=0 time=46
note_on channel=9 note=41 velocity=110 time=2
note_on channel=9 note=41 velocity=0 time=46
note_on channel=9 note=41 velocity=110 time=2
note_on channel=9 note=41 velocity=0 time=46
note_on channel=9 note=41 velocity=110 time=578
note_on channel=9 note=41 velocity=0 time=46
note_on channel=9 note=41 velocity=110 time=2
note_on channel=9 note=41 velocity=0 time=46
note_on channel=9 note=41 velocity=110 time=2
note_on channel=9 note=41 velocity=0 time=46
note_on channel=9 note=41 velocity=110 time=2
note_on channel=9 note=41 velocity=0 time=46
note_on channel=9 note=41 velocity=110 time=578
note_on channel=9 note=41 velocity=0 time=94
note_on channel=9 note=41 velocity=110 time=2
note_on channel=9 note=41 velocity=0 time=94
MetaMessage('end_of_track', time=0)
Track 7: Staff-4-2
MetaMessage('midi_port', port=0, time=0)
MetaMessage('track_name', name='Staff-4-2', time=0)
control_change channel=9 control=7 value=127 time=0
control_change channel=9 control=10 value=64 time=0
note_on channel=9 note=35 velocity=110 time=6144
note_on channel=9 note=35 velocity=0 time=142
note_on channel=9 note=35 velocity=110 time=2
note_on channel=9 note=35 velocity=0 time=46
note_on channel=9 note=35 velocity=110 time=2
note_on channel=9 note=35 velocity=0 time=142
note_on channel=9 note=35 velocity=110 time=2
note_on channel=9 note=35 velocity=0 time=46
note_on channel=9 note=35 velocity=110 time=2
note_on channel=9 note=35 velocity=0 time=142
note_on channel=9 note=35 velocity=110 time=2
note_on channel=9 note=35 velocity=0 time=46
note_on channel=9 note=38 velocity=110 time=2
note_on channel=9 note=38 velocity=0 time=94
note_on channel=9 note=38 velocity=110 time=2
note_on channel=9 note=38 velocity=0 time=46
note_on channel=9 note=38 velocity=110 time=2
note_on channel=9 note=38 velocity=0 time=46
note_on channel=9 note=36 velocity=110 time=2
note_on channel=9 note=42 velocity=110 time=0
note_on channel=9 note=36 velocity=0 time=94
note_on channel=9 note=42 velocity=0 time=0
note_on channel=9 note=42 velocity=110 time=2
note_on channel=9 note=42 velocity=0 time=94
note_on channel=9 note=38 velocity=110 time=2
note_on channel=9 note=42 velocity=110 time=0
note_on channel=9 note=38 velocity=0 time=94
note_on channel=9 note=42 velocity=0 time=0
note_on channel=9 note=42 velocity=110 time=2
note_on channel=9 note=42 velocity=0 time=94
note_on channel=9 note=36 velocity=110 time=2
note_on channel=9 note=42 velocity=110 time=0
note_on channel=9 note=36 velocity=0 time=94
note_on channel=9 note=42 velocity=0 time=0
note_on channel=9 note=36 velocity=110 time=2
note_on channel=9 note=42 velocity=110 time=0
note_on channel=9 note=36 velocity=0 time=94
note_on channel=9 note=42 velocity=0 time=0
note_on channel=9 note=38 velocity=110 time=2
note_on channel=9 note=42 velocity=110 time=0
note_on channel=9 note=38 velocity=0 time=94
note_on channel=9 note=42 velocity=0 time=0
note_on channel=9 note=42 velocity=110 time=2
note_on channel=9 note=42 velocity=0 time=94
note_on channel=9 note=36 velocity=110 time=2
note_on channel=9 note=42 velocity=110 time=0
note_on channel=9 note=36 velocity=0 time=94
note_on channel=9 note=42 velocity=0 time=0
note_on channel=9 note=42 velocity=110 time=2
note_on channel=9 note=42 velocity=0 time=94
note_on channel=9 note=38 velocity=110 time=2
note_on channel=9 note=42 velocity=110 time=0
note_on channel=9 note=38 velocity=0 time=94
note_on channel=9 note=42 velocity=0 time=0
note_on channel=9 note=42 velocity=110 time=2
note_on channel=9 note=42 velocity=0 time=94
note_on channel=9 note=36 velocity=110 time=2
note_on channel=9 note=42 velocity=110 time=0
note_on channel=9 note=36 velocity=0 time=94
note_on channel=9 note=42 velocity=0 time=0
note_on channel=9 note=36 velocity=110 time=2
note_on channel=9 note=42 velocity=110 time=0
note_on channel=9 note=36 velocity=0 time=94
note_on channel=9 note=42 velocity=0 time=0
note_on channel=9 note=38 velocity=110 time=2
note_on channel=9 note=42 velocity=110 time=0
note_on channel=9 note=38 velocity=0 time=94
note_on channel=9 note=42 velocity=0 time=0
note_on channel=9 note=42 velocity=110 time=2
note_on channel=9 note=42 velocity=0 time=94
note_on channel=9 note=36 velocity=110 time=2
note_on channel=9 note=42 velocity=110 time=0
note_on channel=9 note=36 velocity=0 time=94
note_on channel=9 note=42 velocity=0 time=0
note_on channel=9 note=42 velocity=110 time=2
note_on channel=9 note=42 velocity=0 time=94
note_on channel=9 note=38 velocity=110 time=2
note_on channel=9 note=42 velocity=110 time=0
note_on channel=9 note=38 velocity=0 time=94
note_on channel=9 note=42 velocity=0 time=0
note_on channel=9 note=42 velocity=110 time=2
note_on channel=9 note=42 velocity=0 time=94
note_on channel=9 note=36 velocity=110 time=2
note_on channel=9 note=42 velocity=110 time=0
note_on channel=9 note=36 velocity=0 time=94
note_on channel=9 note=42 velocity=0 time=0
note_on channel=9 note=36 velocity=110 time=2
note_on channel=9 note=42 velocity=110 time=0
note_on channel=9 note=36 velocity=0 time=94
note_on channel=9 note=42 velocity=0 time=0
note_on channel=9 note=38 velocity=110 time=2
note_on channel=9 note=42 velocity=110 time=0
note_on channel=9 note=38 velocity=0 time=94
note_on channel=9 note=42 velocity=0 time=0
note_on channel=9 note=42 velocity=110 time=2
note_on channel=9 note=42 velocity=0 time=94
note_on channel=9 note=36 velocity=110 time=2
note_on channel=9 note=42 velocity=110 time=0
note_on channel=9 note=36 velocity=0 time=94
note_on channel=9 note=42 velocity=0 time=0
note_on channel=9 note=42 velocity=110 time=2
note_on channel=9 note=42 velocity=0 time=94
note_on channel=9 note=38 velocity=110 time=2
note_on channel=9 note=42 velocity=110 time=0
note_on channel=9 note=38 velocity=0 time=94
note_on channel=9 note=42 velocity=0 time=0
note_on channel=9 note=42 velocity=110 time=2
note_on channel=9 note=42 velocity=0 time=94
note_on channel=9 note=36 velocity=110 time=2
note_on channel=9 note=42 velocity=110 time=0
note_on channel=9 note=36 velocity=0 time=94
note_on channel=9 note=42 velocity=0 time=0
note_on channel=9 note=36 velocity=110 time=2
note_on channel=9 note=42 velocity=110 time=0
note_on channel=9 note=36 velocity=0 time=94
note_on channel=9 note=42 velocity=0 time=0
note_on channel=9 note=38 velocity=110 time=2
note_on channel=9 note=42 velocity=110 time=0
note_on channel=9 note=38 velocity=0 time=94
note_on channel=9 note=42 velocity=0 time=0
note_on channel=9 note=42 velocity=110 time=2
note_on channel=9 note=42 velocity=0 time=94
note_on channel=9 note=36 velocity=110 time=2
note_on channel=9 note=42 velocity=110 time=0
note_on channel=9 note=36 velocity=0 time=94
note_on channel=9 note=42 velocity=0 time=0
note_on channel=9 note=42 velocity=110 time=2
note_on channel=9 note=42 velocity=0 time=94
note_on channel=9 note=38 velocity=110 time=2
note_on channel=9 note=42 velocity=110 time=0
note_on channel=9 note=38 velocity=0 time=94
note_on channel=9 note=42 velocity=0 time=0
note_on channel=9 note=42 velocity=110 time=2
note_on channel=9 note=42 velocity=0 time=94
note_on channel=9 note=36 velocity=110 time=2
note_on channel=9 note=42 velocity=110 time=0
note_on channel=9 note=36 velocity=0 time=94
note_on channel=9 note=42 velocity=0 time=0
note_on channel=9 note=36 velocity=110 time=2
note_on channel=9 note=42 velocity=110 time=0
note_on channel=9 note=36 velocity=0 time=94
note_on channel=9 note=42 velocity=0 time=0
note_on channel=9 note=38 velocity=110 time=2
note_on channel=9 note=42 velocity=110 time=0
note_on channel=9 note=38 velocity=0 time=94
note_on channel=9 note=42 velocity=0 time=0
note_on channel=9 note=42 velocity=110 time=2
note_on channel=9 note=42 velocity=0 time=94
note_on channel=9 note=36 velocity=110 time=2
note_on channel=9 note=42 velocity=110 time=0
note_on channel=9 note=36 velocity=0 time=94
note_on channel=9 note=42 velocity=0 time=0
note_on channel=9 note=42 velocity=110 time=2
note_on channel=9 note=42 velocity=0 time=94
note_on channel=9 note=38 velocity=110 time=2
note_on channel=9 note=42 velocity=110 time=0
note_on channel=9 note=38 velocity=0 time=94
note_on channel=9 note=42 velocity=0 time=0
note_on channel=9 note=42 velocity=110 time=2
note_on channel=9 note=42 velocity=0 time=94
note_on channel=9 note=36 velocity=110 time=2
note_on channel=9 note=42 velocity=110 time=0
note_on channel=9 note=36 velocity=0 time=94
note_on channel=9 note=42 velocity=0 time=0
note_on channel=9 note=36 velocity=110 time=2
note_on channel=9 note=42 velocity=110 time=0
note_on channel=9 note=36 velocity=0 time=94
note_on channel=9 note=42 velocity=0 time=0
note_on channel=9 note=38 velocity=110 time=2
note_on channel=9 note=42 velocity=110 time=0
note_on channel=9 note=38 velocity=0 time=94
note_on channel=9 note=42 velocity=0 time=0
note_on channel=9 note=42 velocity=110 time=2
note_on channel=9 note=42 velocity=0 time=94
note_on channel=9 note=36 velocity=110 time=2
note_on channel=9 note=42 velocity=110 time=0
note_on channel=9 note=36 velocity=0 time=94
note_on channel=9 note=42 velocity=0 time=0
note_on channel=9 note=42 velocity=110 time=2
note_on channel=9 note=42 velocity=0 time=94
note_on channel=9 note=38 velocity=110 time=2
note_on channel=9 note=42 velocity=110 time=0
note_on channel=9 note=38 velocity=0 time=94
note_on channel=9 note=42 velocity=0 time=0
note_on channel=9 note=42 velocity=110 time=2
note_on channel=9 note=42 velocity=0 time=94
note_on channel=9 note=36 velocity=110 time=2
note_on channel=9 note=42 velocity=110 time=0
note_on channel=9 note=36 velocity=0 time=94
note_on channel=9 note=42 velocity=0 time=0
note_on channel=9 note=36 velocity=110 time=2
note_on channel=9 note=42 velocity=110 time=0
note_on channel=9 note=36 velocity=0 time=94
note_on channel=9 note=42 velocity=0 time=0
note_on channel=9 note=38 velocity=110 time=2
note_on channel=9 note=42 velocity=110 time=0
note_on channel=9 note=38 velocity=0 time=94
note_on channel=9 note=42 velocity=0 time=0
note_on channel=9 note=42 velocity=110 time=2
note_on channel=9 note=42 velocity=0 time=94
note_on channel=9 note=36 velocity=110 time=2
note_on channel=9 note=42 velocity=110 time=0
note_on channel=9 note=36 velocity=0 time=94
note_on channel=9 note=42 velocity=0 time=0
note_on channel=9 note=42 velocity=110 time=2
note_on channel=9 note=42 velocity=0 time=94
note_on channel=9 note=38 velocity=110 time=2
note_on channel=9 note=42 velocity=110 time=0
note_on channel=9 note=38 velocity=0 time=94
note_on channel=9 note=42 velocity=0 time=0
note_on channel=9 note=42 velocity=110 time=2
note_on channel=9 note=42 velocity=0 time=94
note_on channel=9 note=36 velocity=110 time=2
note_on channel=9 note=42 velocity=110 time=0
note_on channel=9 note=36 velocity=0 time=94
note_on channel=9 note=42 velocity=0 time=0
note_on channel=9 note=36 velocity=110 time=2
note_on channel=9 note=42 velocity=110 time=0
note_on channel=9 note=36 velocity=0 time=94
note_on channel=9 note=42 velocity=0 time=0
note_on channel=9 note=38 velocity=110 time=2
note_on channel=9 note=38 velocity=0 time=22
note_on channel=9 note=38 velocity=110 time=2
note_on channel=9 note=38 velocity=0 time=22
note_on channel=9 note=38 velocity=110 time=2
note_on channel=9 note=38 velocity=0 time=22
note_on channel=9 note=38 velocity=110 time=2
note_on channel=9 note=38 velocity=0 time=22
note_on channel=9 note=38 velocity=110 time=2
note_on channel=9 note=38 velocity=0 time=22
note_on channel=9 note=38 velocity=110 time=2
note_on channel=9 note=38 velocity=0 time=22
note_on channel=9 note=38 velocity=110 time=2
note_on channel=9 note=38 velocity=0 time=22
note_on channel=9 note=38 velocity=110 time=2
note_on channel=9 note=38 velocity=0 time=22
note_on channel=9 note=36 velocity=110 time=2
note_on channel=9 note=46 velocity=110 time=0
note_on channel=9 note=36 velocity=0 time=94
note_on channel=9 note=46 velocity=0 time=0
note_on channel=9 note=46 velocity=110 time=2
note_on channel=9 note=46 velocity=0 time=94
note_on channel=9 note=38 velocity=110 time=2
note_on channel=9 note=46 velocity=110 time=0
note_on channel=9 note=38 velocity=0 time=94
note_on channel=9 note=46 velocity=0 time=0
note_on channel=9 note=46 velocity=110 time=2
note_on channel=9 note=46 velocity=0 time=94
note_on channel=9 note=36 velocity=110 time=2
note_on channel=9 note=46 velocity=110 time=0
note_on channel=9 note=36 velocity=0 time=94
note_on channel=9 note=46 velocity=0 time=0
note_on channel=9 note=36 velocity=110 time=2
note_on channel=9 note=46 velocity=110 time=0
note_on channel=9 note=36 velocity=0 time=94
note_on channel=9 note=46 velocity=0 time=0
note_on channel=9 note=38 velocity=110 time=2
note_on channel=9 note=46 velocity=110 time=0
note_on channel=9 note=38 velocity=0 time=94
note_on channel=9 note=46 velocity=0 time=0
note_on channel=9 note=46 velocity=110 time=2
note_on channel=9 note=46 velocity=0 time=94
note_on channel=9 note=36 velocity=110 time=2
note_on channel=9 note=46 velocity=110 time=0
note_on channel=9 note=36 velocity=0 time=94
note_on channel=9 note=46 velocity=0 time=0
note_on channel=9 note=46 velocity=110 time=2
note_on channel=9 note=46 velocity=0 time=94
note_on channel=9 note=38 velocity=110 time=2
note_on channel=9 note=46 velocity=110 time=0
note_on channel=9 note=38 velocity=0 time=94
note_on channel=9 note=46 velocity=0 time=0
note_on channel=9 note=46 velocity=110 time=2
note_on channel=9 note=46 velocity=0 time=94
note_on channel=9 note=36 velocity=110 time=2
note_on channel=9 note=46 velocity=110 time=0
note_on channel=9 note=36 velocity=0 time=94
note_on channel=9 note=46 velocity=0 time=0
note_on channel=9 note=36 velocity=110 time=2
note_on channel=9 note=46 velocity=110 time=0
note_on channel=9 note=36 velocity=0 time=94
note_on channel=9 note=46 velocity=0 time=0
note_on channel=9 note=38 velocity=110 time=2
note_on channel=9 note=46 velocity=110 time=0
note_on channel=9 note=38 velocity=0 time=94
note_on channel=9 note=46 velocity=0 time=0
note_on channel=9 note=46 velocity=110 time=2
note_on channel=9 note=46 velocity=0 time=94
note_on channel=9 note=36 velocity=110 time=2
note_on channel=9 note=46 velocity=110 time=0
note_on channel=9 note=36 velocity=0 time=94
note_on channel=9 note=46 velocity=0 time=0
note_on channel=9 note=46 velocity=110 time=2
note_on channel=9 note=46 velocity=0 time=94
note_on channel=9 note=38 velocity=110 time=2
note_on channel=9 note=46 velocity=110 time=0
note_on channel=9 note=38 velocity=0 time=94
note_on channel=9 note=46 velocity=0 time=0
note_on channel=9 note=46 velocity=110 time=2
note_on channel=9 note=46 velocity=0 time=94
note_on channel=9 note=36 velocity=110 time=2
note_on channel=9 note=46 velocity=110 time=0
note_on channel=9 note=36 velocity=0 time=94
note_on channel=9 note=46 velocity=0 time=0
note_on channel=9 note=36 velocity=110 time=2
note_on channel=9 note=46 velocity=110 time=0
note_on channel=9 note=36 velocity=0 time=94
note_on channel=9 note=46 velocity=0 time=0
note_on channel=9 note=38 velocity=110 time=2
note_on channel=9 note=46 velocity=110 time=0
note_on channel=9 note=38 velocity=0 time=94
note_on channel=9 note=46 velocity=0 time=0
note_on channel=9 note=46 velocity=110 time=2
note_on channel=9 note=46 velocity=0 time=94
note_on channel=9 note=36 velocity=110 time=2
note_on channel=9 note=46 velocity=110 time=0
note_on channel=9 note=36 velocity=0 time=94
note_on channel=9 note=46 velocity=0 time=0
note_on channel=9 note=46 velocity=110 time=2
note_on channel=9 note=46 velocity=0 time=94
note_on channel=9 note=38 velocity=110 time=2
note_on channel=9 note=46 velocity=110 time=0
note_on channel=9 note=38 velocity=0 time=94
note_on channel=9 note=46 velocity=0 time=0
note_on channel=9 note=46 velocity=110 time=2
note_on channel=9 note=46 velocity=0 time=94
note_on channel=9 note=36 velocity=110 time=2
note_on channel=9 note=46 velocity=110 time=0
note_on channel=9 note=36 velocity=0 time=94
note_on channel=9 note=46 velocity=0 time=0
note_on channel=9 note=36 velocity=110 time=2
note_on channel=9 note=46 velocity=110 time=0
note_on channel=9 note=36 velocity=0 time=94
note_on channel=9 note=46 velocity=0 time=0
note_on channel=9 note=38 velocity=110 time=2
note_on channel=9 note=46 velocity=110 time=0
note_on channel=9 note=38 velocity=0 time=94
note_on channel=9 note=46 velocity=0 time=0
note_on channel=9 note=46 velocity=110 time=2
note_on channel=9 note=46 velocity=0 time=94
note_on channel=9 note=36 velocity=110 time=2
note_on channel=9 note=46 velocity=110 time=0
note_on channel=9 note=36 velocity=0 time=94
note_on channel=9 note=46 velocity=0 time=0
note_on channel=9 note=46 velocity=110 time=2
note_on channel=9 note=46 velocity=0 time=94
note_on channel=9 note=38 velocity=110 time=2
note_on channel=9 note=46 velocity=110 time=0
note_on channel=9 note=38 velocity=0 time=94
note_on channel=9 note=46 velocity=0 time=0
note_on channel=9 note=46 velocity=110 time=2
note_on channel=9 note=46 velocity=0 time=94
note_on channel=9 note=36 velocity=110 time=2
note_on channel=9 note=46 velocity=110 time=0
note_on channel=9 note=36 velocity=0 time=94
note_on channel=9 note=46 velocity=0 time=0
note_on channel=9 note=36 velocity=110 time=2
note_on channel=9 note=46 velocity=110 time=0
note_on channel=9 note=36 velocity=0 time=94
note_on channel=9 note=46 velocity=0 time=0
note_on channel=9 note=38 velocity=110 time=2
note_on channel=9 note=46 velocity=110 time=0
note_on channel=9 note=38 velocity=0 time=94
note_on channel=9 note=46 velocity=0 time=0
note_on channel=9 note=46 velocity=110 time=2
note_on channel=9 note=46 velocity=0 time=94
note_on channel=9 note=36 velocity=110 time=2
note_on channel=9 note=46 velocity=110 time=0
note_on channel=9 note=36 velocity=0 time=94
note_on channel=9 note=46 velocity=0 time=0
note_on channel=9 note=46 velocity=110 time=2
note_on channel=9 note=46 velocity=0 time=94
note_on channel=9 note=38 velocity=110 time=2
note_on channel=9 note=46 velocity=110 time=0
note_on channel=9 note=38 velocity=0 time=94
note_on channel=9 note=46 velocity=0 time=0
note_on channel=9 note=46 velocity=110 time=2
note_on channel=9 note=46 velocity=0 time=94
note_on channel=9 note=36 velocity=110 time=2
note_on channel=9 note=46 velocity=110 time=0
note_on channel=9 note=36 velocity=0 time=94
note_on channel=9 note=46 velocity=0 time=0
note_on channel=9 note=36 velocity=110 time=2
note_on channel=9 note=46 velocity=110 time=0
note_on channel=9 note=36 velocity=0 time=94
note_on channel=9 note=46 velocity=0 time=0
note_on channel=9 note=38 velocity=110 time=2
note_on channel=9 note=46 velocity=110 time=0
note_on channel=9 note=38 velocity=0 time=94
note_on channel=9 note=46 velocity=0 time=0
note_on channel=9 note=46 velocity=110 time=2
note_on channel=9 note=46 velocity=0 time=94
note_on channel=9 note=36 velocity=110 time=2
note_on channel=9 note=46 velocity=110 time=0
note_on channel=9 note=36 velocity=0 time=94
note_on channel=9 note=46 velocity=0 time=0
note_on channel=9 note=46 velocity=110 time=2
note_on channel=9 note=46 velocity=0 time=94
note_on channel=9 note=38 velocity=110 time=2
note_on channel=9 note=46 velocity=110 time=0
note_on channel=9 note=38 velocity=0 time=94
note_on channel=9 note=46 velocity=0 time=0
note_on channel=9 note=46 velocity=110 time=2
note_on channel=9 note=46 velocity=0 time=94
note_on channel=9 note=36 velocity=110 time=2
note_on channel=9 note=46 velocity=110 time=0
note_on channel=9 note=36 velocity=0 time=94
note_on channel=9 note=46 velocity=0 time=0
note_on channel=9 note=36 velocity=110 time=2
note_on channel=9 note=46 velocity=110 time=0
note_on channel=9 note=36 velocity=0 time=94
note_on channel=9 note=46 velocity=0 time=0
note_on channel=9 note=38 velocity=110 time=2
note_on channel=9 note=46 velocity=110 time=0
note_on channel=9 note=38 velocity=0 time=94
note_on channel=9 note=46 velocity=0 time=0
note_on channel=9 note=46 velocity=110 time=2
note_on channel=9 note=46 velocity=0 time=94
note_on channel=9 note=35 velocity=110 time=2
note_on channel=9 note=35 velocity=0 time=142
note_on channel=9 note=35 velocity=110 time=2
note_on channel=9 note=35 velocity=0 time=46
note_on channel=9 note=35 velocity=110 time=2
note_on channel=9 note=35 velocity=0 time=142
note_on channel=9 note=35 velocity=110 time=2
note_on channel=9 note=35 velocity=0 time=46
note_on channel=9 note=35 velocity=110 time=2
note_on channel=9 note=35 velocity=0 time=142
note_on channel=9 note=35 velocity=110 time=2
note_on channel=9 note=35 velocity=0 time=46
note_on channel=9 note=35 velocity=110 time=2
note_on channel=9 note=35 velocity=0 time=94
note_on channel=9 note=35 velocity=110 time=2
note_on channel=9 note=35 velocity=0 time=94
note_on channel=9 note=36 velocity=110 time=2
note_on channel=9 note=42 velocity=110 time=0
note_on channel=9 note=36 velocity=0 time=94
note_on channel=9 note=42 velocity=0 time=0
note_on channel=9 note=42 velocity=110 time=2
note_on channel=9 note=42 velocity=0 time=94
note_on channel=9 note=38 velocity=110 time=2
note_on channel=9 note=42 velocity=110 time=0
note_on channel=9 note=38 velocity=0 time=94
note_on channel=9 note=42 velocity=0 time=0
note_on channel=9 note=42 velocity=110 time=2
note_on channel=9 note=42 velocity=0 time=94
note_on channel=9 note=36 velocity=110 time=2
note_on channel=9 note=42 velocity=110 time=0
note_on channel=9 note=36 velocity=0 time=94
note_on channel=9 note=42 velocity=0 time=0
note_on channel=9 note=36 velocity=110 time=2
note_on channel=9 note=42 velocity=110 time=0
note_on channel=9 note=36 velocity=0 time=94
note_on channel=9 note=42 velocity=0 time=0
note_on channel=9 note=38 velocity=110 time=2
note_on channel=9 note=42 velocity=110 time=0
note_on channel=9 note=38 velocity=0 time=94
note_on channel=9 note=42 velocity=0 time=0
note_on channel=9 note=42 velocity=110 time=2
note_on channel=9 note=42 velocity=0 time=94
note_on channel=9 note=36 velocity=110 time=2
note_on channel=9 note=42 velocity=110 time=0
note_on channel=9 note=36 velocity=0 time=94
note_on channel=9 note=42 velocity=0 time=0
note_on channel=9 note=42 velocity=110 time=2
note_on channel=9 note=42 velocity=0 time=94
note_on channel=9 note=38 velocity=110 time=2
note_on channel=9 note=42 velocity=110 time=0
note_on channel=9 note=38 velocity=0 time=94
note_on channel=9 note=42 velocity=0 time=0
note_on channel=9 note=42 velocity=110 time=2
note_on channel=9 note=42 velocity=0 time=94
note_on channel=9 note=36 velocity=110 time=2
note_on channel=9 note=42 velocity=110 time=0
note_on channel=9 note=36 velocity=0 time=94
note_on channel=9 note=42 velocity=0 time=0
note_on channel=9 note=36 velocity=110 time=2
note_on channel=9 note=42 velocity=110 time=0
note_on channel=9 note=36 velocity=0 time=94
note_on channel=9 note=42 velocity=0 time=0
note_on channel=9 note=38 velocity=110 time=2
note_on channel=9 note=42 velocity=110 time=0
note_on channel=9 note=38 velocity=0 time=94
note_on channel=9 note=42 velocity=0 time=0
note_on channel=9 note=42 velocity=110 time=2
note_on channel=9 note=42 velocity=0 time=94
note_on channel=9 note=36 velocity=110 time=2
note_on channel=9 note=42 velocity=110 time=0
note_on channel=9 note=36 velocity=0 time=94
note_on channel=9 note=42 velocity=0 time=0
note_on channel=9 note=42 velocity=110 time=2
note_on channel=9 note=42 velocity=0 time=94
note_on channel=9 note=38 velocity=110 time=2
note_on channel=9 note=42 velocity=110 time=0
note_on channel=9 note=38 velocity=0 time=94
note_on channel=9 note=42 velocity=0 time=0
note_on channel=9 note=42 velocity=110 time=2
note_on channel=9 note=42 velocity=0 time=94
note_on channel=9 note=36 velocity=110 time=2
note_on channel=9 note=42 velocity=110 time=0
note_on channel=9 note=36 velocity=0 time=94
note_on channel=9 note=42 velocity=0 time=0
note_on channel=9 note=36 velocity=110 time=2
note_on channel=9 note=42 velocity=110 time=0
note_on channel=9 note=36 velocity=0 time=94
note_on channel=9 note=42 velocity=0 time=0
note_on channel=9 note=38 velocity=110 time=2
note_on channel=9 note=42 velocity=110 time=0
note_on channel=9 note=38 velocity=0 time=94
note_on channel=9 note=42 velocity=0 time=0
note_on channel=9 note=42 velocity=110 time=2
note_on channel=9 note=42 velocity=0 time=94
note_on channel=9 note=36 velocity=110 time=2
note_on channel=9 note=42 velocity=110 time=0
note_on channel=9 note=36 velocity=0 time=94
note_on channel=9 note=42 velocity=0 time=0
note_on channel=9 note=42 velocity=110 time=2
note_on channel=9 note=42 velocity=0 time=94
note_on channel=9 note=38 velocity=110 time=2
note_on channel=9 note=42 velocity=110 time=0
note_on channel=9 note=38 velocity=0 time=94
note_on channel=9 note=42 velocity=0 time=0
note_on channel=9 note=42 velocity=110 time=2
note_on channel=9 note=42 velocity=0 time=94
note_on channel=9 note=36 velocity=110 time=2
note_on channel=9 note=42 velocity=110 time=0
note_on channel=9 note=36 velocity=0 time=94
note_on channel=9 note=42 velocity=0 time=0
note_on channel=9 note=36 velocity=110 time=2
note_on channel=9 note=42 velocity=110 time=0
note_on channel=9 note=36 velocity=0 time=94
note_on channel=9 note=42 velocity=0 time=0
note_on channel=9 note=38 velocity=110 time=2
note_on channel=9 note=42 velocity=110 time=0
note_on channel=9 note=38 velocity=0 time=94
note_on channel=9 note=42 velocity=0 time=0
note_on channel=9 note=42 velocity=110 time=2
note_on channel=9 note=42 velocity=0 time=94
note_on channel=9 note=36 velocity=110 time=2
note_on channel=9 note=42 velocity=110 time=0
note_on channel=9 note=36 velocity=0 time=94
note_on channel=9 note=42 velocity=0 time=0
note_on channel=9 note=42 velocity=110 time=2
note_on channel=9 note=42 velocity=0 time=94
note_on channel=9 note=38 velocity=110 time=2
note_on channel=9 note=42 velocity=110 time=0
note_on channel=9 note=38 velocity=0 time=94
note_on channel=9 note=42 velocity=0 time=0
note_on channel=9 note=42 velocity=110 time=2
note_on channel=9 note=42 velocity=0 time=94
note_on channel=9 note=36 velocity=110 time=2
note_on channel=9 note=42 velocity=110 time=0
note_on channel=9 note=36 velocity=0 time=94
note_on channel=9 note=42 velocity=0 time=0
note_on channel=9 note=36 velocity=110 time=2
note_on channel=9 note=42 velocity=110 time=0
note_on channel=9 note=36 velocity=0 time=94
note_on channel=9 note=42 velocity=0 time=0
note_on channel=9 note=38 velocity=110 time=2
note_on channel=9 note=42 velocity=110 time=0
note_on channel=9 note=38 velocity=0 time=94
note_on channel=9 note=42 velocity=0 time=0
note_on channel=9 note=42 velocity=110 time=2
note_on channel=9 note=42 velocity=0 time=94
note_on channel=9 note=36 velocity=110 time=2
note_on channel=9 note=42 velocity=110 time=0
note_on channel=9 note=36 velocity=0 time=94
note_on channel=9 note=42 velocity=0 time=0
note_on channel=9 note=42 velocity=110 time=2
note_on channel=9 note=42 velocity=0 time=94
note_on channel=9 note=38 velocity=110 time=2
note_on channel=9 note=42 velocity=110 time=0
note_on channel=9 note=38 velocity=0 time=94
note_on channel=9 note=42 velocity=0 time=0
note_on channel=9 note=42 velocity=110 time=2
note_on channel=9 note=42 velocity=0 time=94
note_on channel=9 note=36 velocity=110 time=2
note_on channel=9 note=42 velocity=110 time=0
note_on channel=9 note=36 velocity=0 time=94
note_on channel=9 note=42 velocity=0 time=0
note_on channel=9 note=36 velocity=110 time=2
note_on channel=9 note=42 velocity=110 time=0
note_on channel=9 note=36 velocity=0 time=94
note_on channel=9 note=42 velocity=0 time=0
note_on channel=9 note=38 velocity=110 time=2
note_on channel=9 note=42 velocity=110 time=0
note_on channel=9 note=38 velocity=0 time=94
note_on channel=9 note=42 velocity=0 time=0
note_on channel=9 note=42 velocity=110 time=2
note_on channel=9 note=42 velocity=0 time=94
note_on channel=9 note=36 velocity=110 time=2
note_on channel=9 note=42 velocity=110 time=0
note_on channel=9 note=36 velocity=0 time=94
note_on channel=9 note=42 velocity=0 time=0
note_on channel=9 note=42 velocity=110 time=2
note_on channel=9 note=42 velocity=0 time=94
note_on channel=9 note=38 velocity=110 time=2
note_on channel=9 note=42 velocity=110 time=0
note_on channel=9 note=38 velocity=0 time=94
note_on channel=9 note=42 velocity=0 time=0
note_on channel=9 note=42 velocity=110 time=2
note_on channel=9 note=42 velocity=0 time=94
note_on channel=9 note=36 velocity=110 time=2
note_on channel=9 note=42 velocity=110 time=0
note_on channel=9 note=36 velocity=0 time=94
note_on channel=9 note=42 velocity=0 time=0
note_on channel=9 note=36 velocity=110 time=2
note_on channel=9 note=42 velocity=110 time=0
note_on channel=9 note=36 velocity=0 time=94
note_on channel=9 note=42 velocity=0 time=0
note_on channel=9 note=38 velocity=110 time=2
note_on channel=9 note=42 velocity=110 time=0
note_on channel=9 note=38 velocity=0 time=94
note_on channel=9 note=42 velocity=0 time=0
note_on channel=9 note=42 velocity=110 time=2
note_on channel=9 note=42 velocity=0 time=94
note_on channel=9 note=36 velocity=110 time=2
note_on channel=9 note=42 velocity=110 time=0
note_on channel=9 note=36 velocity=0 time=94
note_on channel=9 note=42 velocity=0 time=0
note_on channel=9 note=42 velocity=110 time=2
note_on channel=9 note=42 velocity=0 time=94
note_on channel=9 note=38 velocity=110 time=2
note_on channel=9 note=42 velocity=110 time=0
note_on channel=9 note=38 velocity=0 time=94
note_on channel=9 note=42 velocity=0 time=0
note_on channel=9 note=42 velocity=110 time=2
note_on channel=9 note=42 velocity=0 time=94
note_on channel=9 note=36 velocity=110 time=2
note_on channel=9 note=42 velocity=110 time=0
note_on channel=9 note=36 velocity=0 time=94
note_on channel=9 note=42 velocity=0 time=0
note_on channel=9 note=36 velocity=110 time=2
note_on channel=9 note=42 velocity=110 time=0
note_on channel=9 note=36 velocity=0 time=94
note_on channel=9 note=42 velocity=0 time=0
note_on channel=9 note=38 velocity=110 time=2
note_on channel=9 note=38 velocity=0 time=22
note_on channel=9 note=38 velocity=110 time=2
note_on channel=9 note=38 velocity=0 time=22
note_on channel=9 note=38 velocity=110 time=2
note_on channel=9 note=38 velocity=0 time=22
note_on channel=9 note=38 velocity=110 time=2
note_on channel=9 note=38 velocity=0 time=22
note_on channel=9 note=38 velocity=110 time=2
note_on channel=9 note=38 velocity=0 time=22
note_on channel=9 note=38 velocity=110 time=2
note_on channel=9 note=38 velocity=0 time=22
note_on channel=9 note=38 velocity=110 time=2
note_on channel=9 note=38 velocity=0 time=22
note_on channel=9 note=38 velocity=110 time=2
note_on channel=9 note=38 velocity=0 time=22
note_on channel=9 note=36 velocity=110 time=2
note_on channel=9 note=46 velocity=110 time=0
note_on channel=9 note=36 velocity=0 time=94
note_on channel=9 note=46 velocity=0 time=0
note_on channel=9 note=46 velocity=110 time=2
note_on channel=9 note=46 velocity=0 time=94
note_on channel=9 note=38 velocity=110 time=2
note_on channel=9 note=46 velocity=110 time=0
note_on channel=9 note=38 velocity=0 time=94
note_on channel=9 note=46 velocity=0 time=0
note_on channel=9 note=46 velocity=110 time=2
note_on channel=9 note=46 velocity=0 time=94
note_on channel=9 note=36 velocity=110 time=2
note_on channel=9 note=46 velocity=110 time=0
note_on channel=9 note=36 velocity=0 time=94
note_on channel=9 note=46 velocity=0 time=0
note_on channel=9 note=36 velocity=110 time=2
note_on channel=9 note=46 velocity=110 time=0
note_on channel=9 note=36 velocity=0 time=94
note_on channel=9 note=46 velocity=0 time=0
note_on channel=9 note=38 velocity=110 time=2
note_on channel=9 note=46 velocity=110 time=0
note_on channel=9 note=38 velocity=0 time=94
note_on channel=9 note=46 velocity=0 time=0
note_on channel=9 note=46 velocity=110 time=2
note_on channel=9 note=46 velocity=0 time=94
note_on channel=9 note=36 velocity=110 time=2
note_on channel=9 note=46 velocity=110 time=0
note_on channel=9 note=36 velocity=0 time=94
note_on channel=9 note=46 velocity=0 time=0
note_on channel=9 note=46 velocity=110 time=2
note_on channel=9 note=46 velocity=0 time=94
note_on channel=9 note=38 velocity=110 time=2
note_on channel=9 note=46 velocity=110 time=0
note_on channel=9 note=38 velocity=0 time=94
note_on channel=9 note=46 velocity=0 time=0
note_on channel=9 note=46 velocity=110 time=2
note_on channel=9 note=46 velocity=0 time=94
note_on channel=9 note=36 velocity=110 time=2
note_on channel=9 note=46 velocity=110 time=0
note_on channel=9 note=36 velocity=0 time=94
note_on channel=9 note=46 velocity=0 time=0
note_on channel=9 note=36 velocity=110 time=2
note_on channel=9 note=46 velocity=110 time=0
note_on channel=9 note=36 velocity=0 time=94
note_on channel=9 note=46 velocity=0 time=0
note_on channel=9 note=38 velocity=110 time=2
note_on channel=9 note=46 velocity=110 time=0
note_on channel=9 note=38 velocity=0 time=94
note_on channel=9 note=46 velocity=0 time=0
note_on channel=9 note=46 velocity=110 time=2
note_on channel=9 note=46 velocity=0 time=94
note_on channel=9 note=36 velocity=110 time=2
note_on channel=9 note=46 velocity=110 time=0
note_on channel=9 note=36 velocity=0 time=94
note_on channel=9 note=46 velocity=0 time=0
note_on channel=9 note=46 velocity=110 time=2
note_on channel=9 note=46 velocity=0 time=94
note_on channel=9 note=38 velocity=110 time=2
note_on channel=9 note=46 velocity=110 time=0
note_on channel=9 note=38 velocity=0 time=94
note_on channel=9 note=46 velocity=0 time=0
note_on channel=9 note=46 velocity=110 time=2
note_on channel=9 note=46 velocity=0 time=94
note_on channel=9 note=36 velocity=110 time=2
note_on channel=9 note=46 velocity=110 time=0
note_on channel=9 note=36 velocity=0 time=94
note_on channel=9 note=46 velocity=0 time=0
note_on channel=9 note=36 velocity=110 time=2
note_on channel=9 note=46 velocity=110 time=0
note_on channel=9 note=36 velocity=0 time=94
note_on channel=9 note=46 velocity=0 time=0
note_on channel=9 note=38 velocity=110 time=2
note_on channel=9 note=46 velocity=110 time=0
note_on channel=9 note=38 velocity=0 time=94
note_on channel=9 note=46 velocity=0 time=0
note_on channel=9 note=46 velocity=110 time=2
note_on channel=9 note=46 velocity=0 time=94
note_on channel=9 note=36 velocity=110 time=2
note_on channel=9 note=46 velocity=110 time=0
note_on channel=9 note=36 velocity=0 time=94
note_on channel=9 note=46 velocity=0 time=0
note_on channel=9 note=46 velocity=110 time=2
note_on channel=9 note=46 velocity=0 time=94
note_on channel=9 note=38 velocity=110 time=2
note_on channel=9 note=46 velocity=110 time=0
note_on channel=9 note=38 velocity=0 time=94
note_on channel=9 note=46 velocity=0 time=0
note_on channel=9 note=46 velocity=110 time=2
note_on channel=9 note=46 velocity=0 time=94
note_on channel=9 note=36 velocity=110 time=2
note_on channel=9 note=46 velocity=110 time=0
note_on channel=9 note=36 velocity=0 time=94
note_on channel=9 note=46 velocity=0 time=0
note_on channel=9 note=36 velocity=110 time=2
note_on channel=9 note=46 velocity=110 time=0
note_on channel=9 note=36 velocity=0 time=94
note_on channel=9 note=46 velocity=0 time=0
note_on channel=9 note=38 velocity=110 time=2
note_on channel=9 note=46 velocity=110 time=0
note_on channel=9 note=38 velocity=0 time=94
note_on channel=9 note=46 velocity=0 time=0
note_on channel=9 note=46 velocity=110 time=2
note_on channel=9 note=46 velocity=0 time=94
note_on channel=9 note=36 velocity=110 time=2
note_on channel=9 note=46 velocity=110 time=0
note_on channel=9 note=36 velocity=0 time=94
note_on channel=9 note=46 velocity=0 time=0
note_on channel=9 note=46 velocity=110 time=2
note_on channel=9 note=46 velocity=0 time=94
note_on channel=9 note=38 velocity=110 time=2
note_on channel=9 note=46 velocity=110 time=0
note_on channel=9 note=38 velocity=0 time=94
note_on channel=9 note=46 velocity=0 time=0
note_on channel=9 note=46 velocity=110 time=2
note_on channel=9 note=46 velocity=0 time=94
note_on channel=9 note=36 velocity=110 time=2
note_on channel=9 note=46 velocity=110 time=0
note_on channel=9 note=36 velocity=0 time=94
note_on channel=9 note=46 velocity=0 time=0
note_on channel=9 note=36 velocity=110 time=2
note_on channel=9 note=46 velocity=110 time=0
note_on channel=9 note=36 velocity=0 time=94
note_on channel=9 note=46 velocity=0 time=0
note_on channel=9 note=38 velocity=110 time=2
note_on channel=9 note=46 velocity=110 time=0
note_on channel=9 note=38 velocity=0 time=94
note_on channel=9 note=46 velocity=0 time=0
note_on channel=9 note=46 velocity=110 time=2
note_on channel=9 note=46 velocity=0 time=94
note_on channel=9 note=36 velocity=110 time=2
note_on channel=9 note=46 velocity=110 time=0
note_on channel=9 note=36 velocity=0 time=94
note_on channel=9 note=46 velocity=0 time=0
note_on channel=9 note=46 velocity=110 time=2
note_on channel=9 note=46 velocity=0 time=94
note_on channel=9 note=38 velocity=110 time=2
note_on channel=9 note=46 velocity=110 time=0
note_on channel=9 note=38 velocity=0 time=94
note_on channel=9 note=46 velocity=0 time=0
note_on channel=9 note=46 velocity=110 time=2
note_on channel=9 note=46 velocity=0 time=94
note_on channel=9 note=36 velocity=110 time=2
note_on channel=9 note=46 velocity=110 time=0
note_on channel=9 note=36 velocity=0 time=94
note_on channel=9 note=46 velocity=0 time=0
note_on channel=9 note=36 velocity=110 time=2
note_on channel=9 note=46 velocity=110 time=0
note_on channel=9 note=36 velocity=0 time=94
note_on channel=9 note=46 velocity=0 time=0
note_on channel=9 note=38 velocity=110 time=2
note_on channel=9 note=46 velocity=110 time=0
note_on channel=9 note=38 velocity=0 time=94
note_on channel=9 note=46 velocity=0 time=0
note_on channel=9 note=46 velocity=110 time=2
note_on channel=9 note=46 velocity=0 time=94
note_on channel=9 note=36 velocity=110 time=2
note_on channel=9 note=46 velocity=110 time=0
note_on channel=9 note=36 velocity=0 time=94
note_on channel=9 note=46 velocity=0 time=0
note_on channel=9 note=46 velocity=110 time=2
note_on channel=9 note=46 velocity=0 time=94
note_on channel=9 note=38 velocity=110 time=2
note_on channel=9 note=46 velocity=110 time=0
note_on channel=9 note=38 velocity=0 time=94
note_on channel=9 note=46 velocity=0 time=0
note_on channel=9 note=46 velocity=110 time=2
note_on channel=9 note=46 velocity=0 time=94
note_on channel=9 note=36 velocity=110 time=2
note_on channel=9 note=46 velocity=110 time=0
note_on channel=9 note=36 velocity=0 time=94
note_on channel=9 note=46 velocity=0 time=0
note_on channel=9 note=36 velocity=110 time=2
note_on channel=9 note=46 velocity=110 time=0
note_on channel=9 note=36 velocity=0 time=94
note_on channel=9 note=46 velocity=0 time=0
note_on channel=9 note=38 velocity=110 time=2
note_on channel=9 note=46 velocity=110 time=0
note_on channel=9 note=38 velocity=0 time=94
note_on channel=9 note=46 velocity=0 time=0
note_on channel=9 note=46 velocity=110 time=2
note_on channel=9 note=46 velocity=0 time=94
note_on channel=9 note=35 velocity=110 time=2
note_on channel=9 note=35 velocity=0 time=142
note_on channel=9 note=35 velocity=110 time=2
note_on channel=9 note=35 velocity=0 time=46
note_on channel=9 note=35 velocity=110 time=2
note_on channel=9 note=35 velocity=0 time=142
note_on channel=9 note=35 velocity=110 time=2
note_on channel=9 note=35 velocity=0 time=46
note_on channel=9 note=35 velocity=110 time=2
note_on channel=9 note=35 velocity=0 time=94
note_on channel=9 note=38 velocity=110 time=2
note_on channel=9 note=38 velocity=0 time=94
note_on channel=9 note=38 velocity=110 time=2
note_on channel=9 note=38 velocity=0 time=46
note_on channel=9 note=38 velocity=110 time=2
note_on channel=9 note=38 velocity=0 time=46
note_on channel=9 note=35 velocity=110 time=1634
note_on channel=9 note=42 velocity=110 time=0
note_on channel=9 note=35 velocity=0 time=94
note_on channel=9 note=42 velocity=0 time=0
note_on channel=9 note=42 velocity=110 time=2
note_on channel=9 note=42 velocity=0 time=94
note_on channel=9 note=38 velocity=110 time=2
note_on channel=9 note=42 velocity=110 time=0
note_on channel=9 note=38 velocity=0 time=46
note_on channel=9 note=42 velocity=0 time=0
note_on channel=9 note=42 velocity=110 time=50
note_on channel=9 note=42 velocity=0 time=46
note_on channel=9 note=35 velocity=110 time=2
note_on channel=9 note=35 velocity=0 time=46
note_on channel=9 note=35 velocity=110 time=2
note_on channel=9 note=42 velocity=110 time=0
note_on channel=9 note=35 velocity=0 time=94
note_on channel=9 note=42 velocity=0 time=0
note_on channel=9 note=35 velocity=110 time=2
note_on channel=9 note=42 velocity=110 time=0
note_on channel=9 note=35 velocity=0 time=94
note_on channel=9 note=42 velocity=0 time=0
note_on channel=9 note=38 velocity=110 time=2
note_on channel=9 note=42 velocity=110 time=0
note_on channel=9 note=38 velocity=0 time=46
note_on channel=9 note=42 velocity=0 time=0
note_on channel=9 note=42 velocity=110 time=50
note_on channel=9 note=42 velocity=0 time=46
note_on channel=9 note=35 velocity=110 time=2
note_on channel=9 note=35 velocity=0 time=46
note_on channel=9 note=35 velocity=110 time=2
note_on channel=9 note=42 velocity=110 time=0
note_on channel=9 note=35 velocity=0 time=94
note_on channel=9 note=42 velocity=0 time=0
note_on channel=9 note=42 velocity=110 time=2
note_on channel=9 note=42 velocity=0 time=94
note_on channel=9 note=38 velocity=110 time=2
note_on channel=9 note=42 velocity=110 time=0
note_on channel=9 note=38 velocity=0 time=46
note_on channel=9 note=42 velocity=0 time=0
note_on channel=9 note=42 velocity=110 time=50
note_on channel=9 note=42 velocity=0 time=46
note_on channel=9 note=35 velocity=110 time=2
note_on channel=9 note=35 velocity=0 time=46
note_on channel=9 note=35 velocity=110 time=2
note_on channel=9 note=42 velocity=110 time=0
note_on channel=9 note=35 velocity=0 time=94
note_on channel=9 note=42 velocity=0 time=0
note_on channel=9 note=35 velocity=110 time=2
note_on channel=9 note=42 velocity=110 time=0
note_on channel=9 note=35 velocity=0 time=94
note_on channel=9 note=42 velocity=0 time=0
note_on channel=9 note=38 velocity=110 time=2
note_on channel=9 note=42 velocity=110 time=0
note_on channel=9 note=38 velocity=0 time=46
note_on channel=9 note=42 velocity=0 time=0
note_on channel=9 note=42 velocity=110 time=50
note_on channel=9 note=42 velocity=0 time=46
note_on channel=9 note=35 velocity=110 time=2
note_on channel=9 note=35 velocity=0 time=46
note_on channel=9 note=35 velocity=110 time=2
note_on channel=9 note=42 velocity=110 time=0
note_on channel=9 note=35 velocity=0 time=94
note_on channel=9 note=42 velocity=0 time=0
note_on channel=9 note=42 velocity=110 time=2
note_on channel=9 note=42 velocity=0 time=94
note_on channel=9 note=38 velocity=110 time=2
note_on channel=9 note=42 velocity=110 time=0
note_on channel=9 note=38 velocity=0 time=46
note_on channel=9 note=42 velocity=0 time=0
note_on channel=9 note=42 velocity=110 time=50
note_on channel=9 note=42 velocity=0 time=46
note_on channel=9 note=35 velocity=110 time=2
note_on channel=9 note=35 velocity=0 time=46
note_on channel=9 note=35 velocity=110 time=2
note_on channel=9 note=42 velocity=110 time=0
note_on channel=9 note=35 velocity=0 time=94
note_on channel=9 note=42 velocity=0 time=0
note_on channel=9 note=35 velocity=110 time=2
note_on channel=9 note=42 velocity=110 time=0
note_on channel=9 note=35 velocity=0 time=94
note_on channel=9 note=42 velocity=0 time=0
note_on channel=9 note=38 velocity=110 time=2
note_on channel=9 note=42 velocity=110 time=0
note_on channel=9 note=38 velocity=0 time=46
note_on channel=9 note=42 velocity=0 time=0
note_on channel=9 note=42 velocity=110 time=50
note_on channel=9 note=42 velocity=0 time=46
note_on channel=9 note=35 velocity=110 time=2
note_on channel=9 note=35 velocity=0 time=46
note_on channel=9 note=35 velocity=110 time=2
note_on channel=9 note=42 velocity=110 time=0
note_on channel=9 note=35 velocity=0 time=94
note_on channel=9 note=42 velocity=0 time=0
note_on channel=9 note=42 velocity=110 time=2
note_on channel=9 note=42 velocity=0 time=94
note_on channel=9 note=38 velocity=110 time=2
note_on channel=9 note=42 velocity=110 time=0
note_on channel=9 note=38 velocity=0 time=46
note_on channel=9 note=42 velocity=0 time=0
note_on channel=9 note=42 velocity=110 time=50
note_on channel=9 note=42 velocity=0 time=46
note_on channel=9 note=35 velocity=110 time=2
note_on channel=9 note=35 velocity=0 time=46
note_on channel=9 note=35 velocity=110 time=2
note_on channel=9 note=42 velocity=110 time=0
note_on channel=9 note=35 velocity=0 time=94
note_on channel=9 note=42 velocity=0 time=0
note_on channel=9 note=35 velocity=110 time=2
note_on channel=9 note=42 velocity=110 time=0
note_on channel=9 note=35 velocity=0 time=94
note_on channel=9 note=42 velocity=0 time=0
note_on channel=9 note=38 velocity=110 time=2
note_on channel=9 note=42 velocity=110 time=0
note_on channel=9 note=38 velocity=0 time=46
note_on channel=9 note=42 velocity=0 time=0
note_on channel=9 note=42 velocity=110 time=50
note_on channel=9 note=42 velocity=0 time=46
note_on channel=9 note=35 velocity=110 time=2
note_on channel=9 note=35 velocity=0 time=46
note_on channel=9 note=35 velocity=110 time=2
note_on channel=9 note=42 velocity=110 time=0
note_on channel=9 note=35 velocity=0 time=94
note_on channel=9 note=42 velocity=0 time=0
note_on channel=9 note=42 velocity=110 time=2
note_on channel=9 note=42 velocity=0 time=94
note_on channel=9 note=38 velocity=110 time=2
note_on channel=9 note=42 velocity=110 time=0
note_on channel=9 note=38 velocity=0 time=46
note_on channel=9 note=42 velocity=0 time=0
note_on channel=9 note=42 velocity=110 time=50
note_on channel=9 note=42 velocity=0 time=46
note_on channel=9 note=35 velocity=110 time=2
note_on channel=9 note=35 velocity=0 time=46
note_on channel=9 note=35 velocity=110 time=2
note_on channel=9 note=42 velocity=110 time=0
note_on channel=9 note=35 velocity=0 time=94
note_on channel=9 note=42 velocity=0 time=0
note_on channel=9 note=35 velocity=110 time=2
note_on channel=9 note=42 velocity=110 time=0
note_on channel=9 note=35 velocity=0 time=94
note_on channel=9 note=42 velocity=0 time=0
note_on channel=9 note=38 velocity=110 time=2
note_on channel=9 note=42 velocity=110 time=0
note_on channel=9 note=38 velocity=0 time=46
note_on channel=9 note=42 velocity=0 time=0
note_on channel=9 note=42 velocity=110 time=50
note_on channel=9 note=42 velocity=0 time=46
note_on channel=9 note=35 velocity=110 time=2
note_on channel=9 note=35 velocity=0 time=46
note_on channel=9 note=35 velocity=110 time=2
note_on channel=9 note=42 velocity=110 time=0
note_on channel=9 note=35 velocity=0 time=94
note_on channel=9 note=42 velocity=0 time=0
note_on channel=9 note=42 velocity=110 time=2
note_on channel=9 note=42 velocity=0 time=94
note_on channel=9 note=38 velocity=110 time=2
note_on channel=9 note=42 velocity=110 time=0
note_on channel=9 note=38 velocity=0 time=46
note_on channel=9 note=42 velocity=0 time=0
note_on channel=9 note=42 velocity=110 time=50
note_on channel=9 note=42 velocity=0 time=46
note_on channel=9 note=35 velocity=110 time=2
note_on channel=9 note=35 velocity=0 time=46
note_on channel=9 note=38 velocity=110 time=2
note_on channel=9 note=38 velocity=0 time=46
note_on channel=9 note=38 velocity=110 time=2
note_on channel=9 note=38 velocity=0 time=46
note_on channel=9 note=38 velocity=110 time=2
note_on channel=9 note=38 velocity=0 time=46
note_on channel=9 note=38 velocity=110 time=2
note_on channel=9 note=38 velocity=0 time=46
note_on channel=9 note=35 velocity=110 time=2
note_on channel=9 note=35 velocity=0 time=46
note_on channel=9 note=35 velocity=110 time=2
note_on channel=9 note=35 velocity=0 time=46
note_on channel=9 note=35 velocity=110 time=2
note_on channel=9 note=35 velocity=0 time=46
note_on channel=9 note=35 velocity=110 time=2
note_on channel=9 note=35 velocity=0 time=46
note_on channel=9 note=36 velocity=110 time=2
note_on channel=9 note=46 velocity=110 time=0
note_on channel=9 note=36 velocity=0 time=94
note_on channel=9 note=46 velocity=0 time=0
note_on channel=9 note=46 velocity=110 time=2
note_on channel=9 note=46 velocity=0 time=94
note_on channel=9 note=38 velocity=110 time=2
note_on channel=9 note=46 velocity=110 time=0
note_on channel=9 note=38 velocity=0 time=94
note_on channel=9 note=46 velocity=0 time=0
note_on channel=9 note=46 velocity=110 time=2
note_on channel=9 note=46 velocity=0 time=94
note_on channel=9 note=36 velocity=110 time=2
note_on channel=9 note=46 velocity=110 time=0
note_on channel=9 note=36 velocity=0 time=94
note_on channel=9 note=46 velocity=0 time=0
note_on channel=9 note=36 velocity=110 time=2
note_on channel=9 note=46 velocity=110 time=0
note_on channel=9 note=36 velocity=0 time=94
note_on channel=9 note=46 velocity=0 time=0
note_on channel=9 note=38 velocity=110 time=2
note_on channel=9 note=46 velocity=110 time=0
note_on channel=9 note=38 velocity=0 time=94
note_on channel=9 note=46 velocity=0 time=0
note_on channel=9 note=46 velocity=110 time=2
note_on channel=9 note=46 velocity=0 time=94
note_on channel=9 note=36 velocity=110 time=2
note_on channel=9 note=46 velocity=110 time=0
note_on channel=9 note=36 velocity=0 time=94
note_on channel=9 note=46 velocity=0 time=0
note_on channel=9 note=46 velocity=110 time=2
note_on channel=9 note=46 velocity=0 time=94
note_on channel=9 note=38 velocity=110 time=2
note_on channel=9 note=46 velocity=110 time=0
note_on channel=9 note=38 velocity=0 time=94
note_on channel=9 note=46 velocity=0 time=0
note_on channel=9 note=46 velocity=110 time=2
note_on channel=9 note=46 velocity=0 time=94
note_on channel=9 note=36 velocity=110 time=2
note_on channel=9 note=46 velocity=110 time=0
note_on channel=9 note=36 velocity=0 time=94
note_on channel=9 note=46 velocity=0 time=0
note_on channel=9 note=36 velocity=110 time=2
note_on channel=9 note=46 velocity=110 time=0
note_on channel=9 note=36 velocity=0 time=94
note_on channel=9 note=46 velocity=0 time=0
note_on channel=9 note=38 velocity=110 time=2
note_on channel=9 note=46 velocity=110 time=0
note_on channel=9 note=38 velocity=0 time=94
note_on channel=9 note=46 velocity=0 time=0
note_on channel=9 note=46 velocity=110 time=2
note_on channel=9 note=46 velocity=0 time=94
note_on channel=9 note=36 velocity=110 time=2
note_on channel=9 note=46 velocity=110 time=0
note_on channel=9 note=36 velocity=0 time=94
note_on channel=9 note=46 velocity=0 time=0
note_on channel=9 note=46 velocity=110 time=2
note_on channel=9 note=46 velocity=0 time=94
note_on channel=9 note=38 velocity=110 time=2
note_on channel=9 note=46 velocity=110 time=0
note_on channel=9 note=38 velocity=0 time=94
note_on channel=9 note=46 velocity=0 time=0
note_on channel=9 note=46 velocity=110 time=2
note_on channel=9 note=46 velocity=0 time=94
note_on channel=9 note=36 velocity=110 time=2
note_on channel=9 note=46 velocity=110 time=0
note_on channel=9 note=36 velocity=0 time=94
note_on channel=9 note=46 velocity=0 time=0
note_on channel=9 note=36 velocity=110 time=2
note_on channel=9 note=46 velocity=110 time=0
note_on channel=9 note=36 velocity=0 time=94
note_on channel=9 note=46 velocity=0 time=0
note_on channel=9 note=38 velocity=110 time=2
note_on channel=9 note=46 velocity=110 time=0
note_on channel=9 note=38 velocity=0 time=94
note_on channel=9 note=46 velocity=0 time=0
note_on channel=9 note=46 velocity=110 time=2
note_on channel=9 note=46 velocity=0 time=94
note_on channel=9 note=36 velocity=110 time=2
note_on channel=9 note=46 velocity=110 time=0
note_on channel=9 note=36 velocity=0 time=94
note_on channel=9 note=46 velocity=0 time=0
note_on channel=9 note=46 velocity=110 time=2
note_on channel=9 note=46 velocity=0 time=94
note_on channel=9 note=38 velocity=110 time=2
note_on channel=9 note=46 velocity=110 time=0
note_on channel=9 note=38 velocity=0 time=94
note_on channel=9 note=46 velocity=0 time=0
note_on channel=9 note=46 velocity=110 time=2
note_on channel=9 note=46 velocity=0 time=94
note_on channel=9 note=36 velocity=110 time=2
note_on channel=9 note=46 velocity=110 time=0
note_on channel=9 note=36 velocity=0 time=94
note_on channel=9 note=46 velocity=0 time=0
note_on channel=9 note=36 velocity=110 time=2
note_on channel=9 note=46 velocity=110 time=0
note_on channel=9 note=36 velocity=0 time=94
note_on channel=9 note=46 velocity=0 time=0
note_on channel=9 note=38 velocity=110 time=2
note_on channel=9 note=46 velocity=110 time=0
note_on channel=9 note=38 velocity=0 time=94
note_on channel=9 note=46 velocity=0 time=0
note_on channel=9 note=46 velocity=110 time=2
note_on channel=9 note=46 velocity=0 time=94
note_on channel=9 note=36 velocity=110 time=2
note_on channel=9 note=46 velocity=110 time=0
note_on channel=9 note=36 velocity=0 time=94
note_on channel=9 note=46 velocity=0 time=0
note_on channel=9 note=46 velocity=110 time=2
note_on channel=9 note=46 velocity=0 time=94
note_on channel=9 note=38 velocity=110 time=2
note_on channel=9 note=46 velocity=110 time=0
note_on channel=9 note=38 velocity=0 time=94
note_on channel=9 note=46 velocity=0 time=0
note_on channel=9 note=46 velocity=110 time=2
note_on channel=9 note=46 velocity=0 time=94
note_on channel=9 note=36 velocity=110 time=2
note_on channel=9 note=46 velocity=110 time=0
note_on channel=9 note=36 velocity=0 time=94
note_on channel=9 note=46 velocity=0 time=0
note_on channel=9 note=36 velocity=110 time=2
note_on channel=9 note=46 velocity=110 time=0
note_on channel=9 note=36 velocity=0 time=94
note_on channel=9 note=46 velocity=0 time=0
note_on channel=9 note=38 velocity=110 time=2
note_on channel=9 note=46 velocity=110 time=0
note_on channel=9 note=38 velocity=0 time=94
note_on channel=9 note=46 velocity=0 time=0
note_on channel=9 note=46 velocity=110 time=2
note_on channel=9 note=46 velocity=0 time=94
note_on channel=9 note=36 velocity=110 time=2
note_on channel=9 note=46 velocity=110 time=0
note_on channel=9 note=36 velocity=0 time=94
note_on channel=9 note=46 velocity=0 time=0
note_on channel=9 note=46 velocity=110 time=2
note_on channel=9 note=46 velocity=0 time=94
note_on channel=9 note=38 velocity=110 time=2
note_on channel=9 note=46 velocity=110 time=0
note_on channel=9 note=38 velocity=0 time=94
note_on channel=9 note=46 velocity=0 time=0
note_on channel=9 note=46 velocity=110 time=2
note_on channel=9 note=46 velocity=0 time=94
note_on channel=9 note=36 velocity=110 time=2
note_on channel=9 note=46 velocity=110 time=0
note_on channel=9 note=36 velocity=0 time=94
note_on channel=9 note=46 velocity=0 time=0
note_on channel=9 note=36 velocity=110 time=2
note_on channel=9 note=46 velocity=110 time=0
note_on channel=9 note=36 velocity=0 time=94
note_on channel=9 note=46 velocity=0 time=0
note_on channel=9 note=38 velocity=110 time=2
note_on channel=9 note=46 velocity=110 time=0
note_on channel=9 note=38 velocity=0 time=94
note_on channel=9 note=46 velocity=0 time=0
note_on channel=9 note=46 velocity=110 time=2
note_on channel=9 note=46 velocity=0 time=94
note_on channel=9 note=36 velocity=110 time=2
note_on channel=9 note=46 velocity=110 time=0
note_on channel=9 note=36 velocity=0 time=94
note_on channel=9 note=46 velocity=0 time=0
note_on channel=9 note=46 velocity=110 time=2
note_on channel=9 note=46 velocity=0 time=94
note_on channel=9 note=38 velocity=110 time=2
note_on channel=9 note=46 velocity=110 time=0
note_on channel=9 note=38 velocity=0 time=94
note_on channel=9 note=46 velocity=0 time=0
note_on channel=9 note=46 velocity=110 time=2
note_on channel=9 note=46 velocity=0 time=94
note_on channel=9 note=36 velocity=110 time=2
note_on channel=9 note=46 velocity=110 time=0
note_on channel=9 note=36 velocity=0 time=94
note_on channel=9 note=46 velocity=0 time=0
note_on channel=9 note=36 velocity=110 time=2
note_on channel=9 note=46 velocity=110 time=0
note_on channel=9 note=36 velocity=0 time=94
note_on channel=9 note=46 velocity=0 time=0
note_on channel=9 note=38 velocity=110 time=2
note_on channel=9 note=46 velocity=110 time=0
note_on channel=9 note=38 velocity=0 time=94
note_on channel=9 note=46 velocity=0 time=0
note_on channel=9 note=46 velocity=110 time=2
note_on channel=9 note=46 velocity=0 time=94
note_on channel=9 note=35 velocity=110 time=2
note_on channel=9 note=42 velocity=110 time=0
note_on channel=9 note=35 velocity=0 time=94
note_on channel=9 note=42 velocity=0 time=0
note_on channel=9 note=42 velocity=110 time=2
note_on channel=9 note=42 velocity=0 time=94
note_on channel=9 note=38 velocity=110 time=2
note_on channel=9 note=42 velocity=110 time=0
note_on channel=9 note=38 velocity=0 time=46
note_on channel=9 note=42 velocity=0 time=0
note_on channel=9 note=42 velocity=110 time=50
note_on channel=9 note=42 velocity=0 time=46
note_on channel=9 note=35 velocity=110 time=2
note_on channel=9 note=35 velocity=0 time=46
note_on channel=9 note=35 velocity=110 time=2
note_on channel=9 note=42 velocity=110 time=0
note_on channel=9 note=35 velocity=0 time=94
note_on channel=9 note=42 velocity=0 time=0
note_on channel=9 note=35 velocity=110 time=2
note_on channel=9 note=42 velocity=110 time=0
note_on channel=9 note=35 velocity=0 time=94
note_on channel=9 note=42 velocity=0 time=0
note_on channel=9 note=38 velocity=110 time=2
note_on channel=9 note=42 velocity=110 time=0
note_on channel=9 note=38 velocity=0 time=46
note_on channel=9 note=42 velocity=0 time=0
note_on channel=9 note=42 velocity=110 time=50
note_on channel=9 note=42 velocity=0 time=46
note_on channel=9 note=35 velocity=110 time=2
note_on channel=9 note=35 velocity=0 time=46
note_on channel=9 note=35 velocity=110 time=2
note_on channel=9 note=42 velocity=110 time=0
note_on channel=9 note=35 velocity=0 time=94
note_on channel=9 note=42 velocity=0 time=0
note_on channel=9 note=42 velocity=110 time=2
note_on channel=9 note=42 velocity=0 time=94
note_on channel=9 note=38 velocity=110 time=2
note_on channel=9 note=42 velocity=110 time=0
note_on channel=9 note=38 velocity=0 time=46
note_on channel=9 note=42 velocity=0 time=0
note_on channel=9 note=42 velocity=110 time=50
note_on channel=9 note=42 velocity=0 time=46
note_on channel=9 note=35 velocity=110 time=2
note_on channel=9 note=35 velocity=0 time=46
note_on channel=9 note=35 velocity=110 time=2
note_on channel=9 note=42 velocity=110 time=0
note_on channel=9 note=35 velocity=0 time=94
note_on channel=9 note=42 velocity=0 time=0
note_on channel=9 note=35 velocity=110 time=2
note_on channel=9 note=42 velocity=110 time=0
note_on channel=9 note=35 velocity=0 time=94
note_on channel=9 note=42 velocity=0 time=0
note_on channel=9 note=38 velocity=110 time=2
note_on channel=9 note=42 velocity=110 time=0
note_on channel=9 note=38 velocity=0 time=46
note_on channel=9 note=42 velocity=0 time=0
note_on channel=9 note=42 velocity=110 time=50
note_on channel=9 note=42 velocity=0 time=46
note_on channel=9 note=35 velocity=110 time=2
note_on channel=9 note=35 velocity=0 time=46
note_on channel=9 note=35 velocity=110 time=2
note_on channel=9 note=42 velocity=110 time=0
note_on channel=9 note=35 velocity=0 time=94
note_on channel=9 note=42 velocity=0 time=0
note_on channel=9 note=42 velocity=110 time=2
note_on channel=9 note=42 velocity=0 time=94
note_on channel=9 note=38 velocity=110 time=2
note_on channel=9 note=42 velocity=110 time=0
note_on channel=9 note=38 velocity=0 time=46
note_on channel=9 note=42 velocity=0 time=0
note_on channel=9 note=42 velocity=110 time=50
note_on channel=9 note=42 velocity=0 time=46
note_on channel=9 note=35 velocity=110 time=2
note_on channel=9 note=35 velocity=0 time=46
note_on channel=9 note=35 velocity=110 time=2
note_on channel=9 note=42 velocity=110 time=0
note_on channel=9 note=35 velocity=0 time=94
note_on channel=9 note=42 velocity=0 time=0
note_on channel=9 note=35 velocity=110 time=2
note_on channel=9 note=42 velocity=110 time=0
note_on channel=9 note=35 velocity=0 time=94
note_on channel=9 note=42 velocity=0 time=0
note_on channel=9 note=38 velocity=110 time=2
note_on channel=9 note=42 velocity=110 time=0
note_on channel=9 note=38 velocity=0 time=46
note_on channel=9 note=42 velocity=0 time=0
note_on channel=9 note=42 velocity=110 time=50
note_on channel=9 note=42 velocity=0 time=46
note_on channel=9 note=35 velocity=110 time=2
note_on channel=9 note=35 velocity=0 time=46
note_on channel=9 note=35 velocity=110 time=2
note_on channel=9 note=42 velocity=110 time=0
note_on channel=9 note=35 velocity=0 time=94
note_on channel=9 note=42 velocity=0 time=0
note_on channel=9 note=42 velocity=110 time=2
note_on channel=9 note=42 velocity=0 time=94
note_on channel=9 note=38 velocity=110 time=2
note_on channel=9 note=42 velocity=110 time=0
note_on channel=9 note=38 velocity=0 time=46
note_on channel=9 note=42 velocity=0 time=0
note_on channel=9 note=42 velocity=110 time=50
note_on channel=9 note=42 velocity=0 time=46
note_on channel=9 note=35 velocity=110 time=2
note_on channel=9 note=35 velocity=0 time=46
note_on channel=9 note=35 velocity=110 time=2
note_on channel=9 note=42 velocity=110 time=0
note_on channel=9 note=35 velocity=0 time=94
note_on channel=9 note=42 velocity=0 time=0
note_on channel=9 note=35 velocity=110 time=2
note_on channel=9 note=42 velocity=110 time=0
note_on channel=9 note=35 velocity=0 time=94
note_on channel=9 note=42 velocity=0 time=0
note_on channel=9 note=38 velocity=110 time=2
note_on channel=9 note=42 velocity=110 time=0
note_on channel=9 note=38 velocity=0 time=46
note_on channel=9 note=42 velocity=0 time=0
note_on channel=9 note=42 velocity=110 time=50
note_on channel=9 note=42 velocity=0 time=46
note_on channel=9 note=35 velocity=110 time=2
note_on channel=9 note=35 velocity=0 time=46
note_on channel=9 note=35 velocity=110 time=2
note_on channel=9 note=42 velocity=110 time=0
note_on channel=9 note=35 velocity=0 time=94
note_on channel=9 note=42 velocity=0 time=0
note_on channel=9 note=42 velocity=110 time=2
note_on channel=9 note=42 velocity=0 time=94
note_on channel=9 note=38 velocity=110 time=2
note_on channel=9 note=42 velocity=110 time=0
note_on channel=9 note=38 velocity=0 time=46
note_on channel=9 note=42 velocity=0 time=0
note_on channel=9 note=42 velocity=110 time=50
note_on channel=9 note=42 velocity=0 time=46
note_on channel=9 note=35 velocity=110 time=2
note_on channel=9 note=35 velocity=0 time=46
note_on channel=9 note=35 velocity=110 time=2
note_on channel=9 note=42 velocity=110 time=0
note_on channel=9 note=35 velocity=0 time=94
note_on channel=9 note=42 velocity=0 time=0
note_on channel=9 note=35 velocity=110 time=2
note_on channel=9 note=42 velocity=110 time=0
note_on channel=9 note=35 velocity=0 time=94
note_on channel=9 note=42 velocity=0 time=0
note_on channel=9 note=38 velocity=110 time=2
note_on channel=9 note=42 velocity=110 time=0
note_on channel=9 note=38 velocity=0 time=46
note_on channel=9 note=42 velocity=0 time=0
note_on channel=9 note=42 velocity=110 time=50
note_on channel=9 note=42 velocity=0 time=46
note_on channel=9 note=35 velocity=110 time=2
note_on channel=9 note=35 velocity=0 time=46
note_on channel=9 note=35 velocity=110 time=2
note_on channel=9 note=42 velocity=110 time=0
note_on channel=9 note=35 velocity=0 time=94
note_on channel=9 note=42 velocity=0 time=0
note_on channel=9 note=42 velocity=110 time=2
note_on channel=9 note=42 velocity=0 time=94
note_on channel=9 note=38 velocity=110 time=2
note_on channel=9 note=42 velocity=110 time=0
note_on channel=9 note=38 velocity=0 time=46
note_on channel=9 note=42 velocity=0 time=0
note_on channel=9 note=42 velocity=110 time=50
note_on channel=9 note=42 velocity=0 time=46
note_on channel=9 note=35 velocity=110 time=2
note_on channel=9 note=35 velocity=0 time=46
note_on channel=9 note=35 velocity=110 time=2
note_on channel=9 note=42 velocity=110 time=0
note_on channel=9 note=35 velocity=0 time=94
note_on channel=9 note=42 velocity=0 time=0
note_on channel=9 note=35 velocity=110 time=2
note_on channel=9 note=42 velocity=110 time=0
note_on channel=9 note=35 velocity=0 time=94
note_on channel=9 note=42 velocity=0 time=0
note_on channel=9 note=38 velocity=110 time=2
note_on channel=9 note=42 velocity=110 time=0
note_on channel=9 note=38 velocity=0 time=46
note_on channel=9 note=42 velocity=0 time=0
note_on channel=9 note=42 velocity=110 time=50
note_on channel=9 note=42 velocity=0 time=46
note_on channel=9 note=35 velocity=110 time=2
note_on channel=9 note=35 velocity=0 time=46
note_on channel=9 note=35 velocity=110 time=2
note_on channel=9 note=42 velocity=110 time=0
note_on channel=9 note=35 velocity=0 time=94
note_on channel=9 note=42 velocity=0 time=0
note_on channel=9 note=42 velocity=110 time=2
note_on channel=9 note=42 velocity=0 time=94
note_on channel=9 note=38 velocity=110 time=2
note_on channel=9 note=42 velocity=110 time=0
note_on channel=9 note=38 velocity=0 time=46
note_on channel=9 note=42 velocity=0 time=0
note_on channel=9 note=42 velocity=110 time=50
note_on channel=9 note=42 velocity=0 time=46
note_on channel=9 note=35 velocity=110 time=2
note_on channel=9 note=35 velocity=0 time=46
note_on channel=9 note=35 velocity=110 time=2
note_on channel=9 note=42 velocity=110 time=0
note_on channel=9 note=35 velocity=0 time=94
note_on channel=9 note=42 velocity=0 time=0
note_on channel=9 note=35 velocity=110 time=2
note_on channel=9 note=42 velocity=110 time=0
note_on channel=9 note=35 velocity=0 time=94
note_on channel=9 note=42 velocity=0 time=0
note_on channel=9 note=38 velocity=110 time=2
note_on channel=9 note=42 velocity=110 time=0
note_on channel=9 note=38 velocity=0 time=46
note_on channel=9 note=42 velocity=0 time=0
note_on channel=9 note=46 velocity=110 time=50
note_on channel=9 note=46 velocity=0 time=94
note_on channel=9 note=35 velocity=110 time=2
note_on channel=9 note=35 velocity=0 time=142
note_on channel=9 note=35 velocity=110 time=2
note_on channel=9 note=35 velocity=0 time=46
note_on channel=9 note=35 velocity=110 time=2
note_on channel=9 note=35 velocity=0 time=142
note_on channel=9 note=35 velocity=110 time=2
note_on channel=9 note=35 velocity=0 time=46
note_on channel=9 note=35 velocity=110 time=2
note_on channel=9 note=35 velocity=0 time=142
note_on channel=9 note=35 velocity=110 time=2
note_on channel=9 note=35 velocity=0 time=46
note_on channel=9 note=35 velocity=110 time=2
note_on channel=9 note=35 velocity=0 time=46
note_on channel=9 note=35 velocity=110 time=2
note_on channel=9 note=35 velocity=0 time=46
note_on channel=9 note=35 velocity=110 time=50
note_on channel=9 note=35 velocity=0 time=46
note_on channel=9 note=35 velocity=110 time=2
note_on channel=9 note=42 velocity=110 time=0
note_on channel=9 note=35 velocity=0 time=94
note_on channel=9 note=42 velocity=0 time=0
note_on channel=9 note=42 velocity=110 time=2
note_on channel=9 note=42 velocity=0 time=94
note_on channel=9 note=38 velocity=110 time=2
note_on channel=9 note=42 velocity=110 time=0
note_on channel=9 note=38 velocity=0 time=46
note_on channel=9 note=42 velocity=0 time=0
note_on channel=9 note=42 velocity=110 time=50
note_on channel=9 note=42 velocity=0 time=46
note_on channel=9 note=35 velocity=110 time=2
note_on channel=9 note=35 velocity=0 time=46
note_on channel=9 note=35 velocity=110 time=2
note_on channel=9 note=42 velocity=110 time=0
note_on channel=9 note=35 velocity=0 time=94
note_on channel=9 note=42 velocity=0 time=0
note_on channel=9 note=35 velocity=110 time=2
note_on channel=9 note=42 velocity=110 time=0
note_on channel=9 note=35 velocity=0 time=94
note_on channel=9 note=42 velocity=0 time=0
note_on channel=9 note=38 velocity=110 time=2
note_on channel=9 note=42 velocity=110 time=0
note_on channel=9 note=38 velocity=0 time=46
note_on channel=9 note=42 velocity=0 time=0
note_on channel=9 note=42 velocity=110 time=50
note_on channel=9 note=42 velocity=0 time=46
note_on channel=9 note=35 velocity=110 time=2
note_on channel=9 note=35 velocity=0 time=46
note_on channel=9 note=35 velocity=110 time=2
note_on channel=9 note=42 velocity=110 time=0
note_on channel=9 note=35 velocity=0 time=94
note_on channel=9 note=42 velocity=0 time=0
note_on channel=9 note=42 velocity=110 time=2
note_on channel=9 note=42 velocity=0 time=94
note_on channel=9 note=38 velocity=110 time=2
note_on channel=9 note=42 velocity=110 time=0
note_on channel=9 note=38 velocity=0 time=46
note_on channel=9 note=42 velocity=0 time=0
note_on channel=9 note=42 velocity=110 time=50
note_on channel=9 note=42 velocity=0 time=46
note_on channel=9 note=35 velocity=110 time=2
note_on channel=9 note=35 velocity=0 time=46
note_on channel=9 note=35 velocity=110 time=2
note_on channel=9 note=42 velocity=110 time=0
note_on channel=9 note=35 velocity=0 time=94
note_on channel=9 note=42 velocity=0 time=0
note_on channel=9 note=35 velocity=110 time=2
note_on channel=9 note=42 velocity=110 time=0
note_on channel=9 note=35 velocity=0 time=94
note_on channel=9 note=42 velocity=0 time=0
note_on channel=9 note=38 velocity=110 time=2
note_on channel=9 note=42 velocity=110 time=0
note_on channel=9 note=38 velocity=0 time=46
note_on channel=9 note=42 velocity=0 time=0
note_on channel=9 note=42 velocity=110 time=50
note_on channel=9 note=42 velocity=0 time=46
note_on channel=9 note=35 velocity=110 time=2
note_on channel=9 note=35 velocity=0 time=46
note_on channel=9 note=35 velocity=110 time=2
note_on channel=9 note=42 velocity=110 time=0
note_on channel=9 note=35 velocity=0 time=94
note_on channel=9 note=42 velocity=0 time=0
note_on channel=9 note=42 velocity=110 time=2
note_on channel=9 note=42 velocity=0 time=94
note_on channel=9 note=38 velocity=110 time=2
note_on channel=9 note=42 velocity=110 time=0
note_on channel=9 note=38 velocity=0 time=46
note_on channel=9 note=42 velocity=0 time=0
note_on channel=9 note=42 velocity=110 time=50
note_on channel=9 note=42 velocity=0 time=46
note_on channel=9 note=35 velocity=110 time=2
note_on channel=9 note=35 velocity=0 time=46
note_on channel=9 note=35 velocity=110 time=2
note_on channel=9 note=42 velocity=110 time=0
note_on channel=9 note=35 velocity=0 time=94
note_on channel=9 note=42 velocity=0 time=0
note_on channel=9 note=35 velocity=110 time=2
note_on channel=9 note=42 velocity=110 time=0
note_on channel=9 note=35 velocity=0 time=94
note_on channel=9 note=42 velocity=0 time=0
note_on channel=9 note=38 velocity=110 time=2
note_on channel=9 note=42 velocity=110 time=0
note_on channel=9 note=38 velocity=0 time=46
note_on channel=9 note=42 velocity=0 time=0
note_on channel=9 note=42 velocity=110 time=50
note_on channel=9 note=42 velocity=0 time=46
note_on channel=9 note=35 velocity=110 time=2
note_on channel=9 note=35 velocity=0 time=46
note_on channel=9 note=35 velocity=110 time=2
note_on channel=9 note=42 velocity=110 time=0
note_on channel=9 note=35 velocity=0 time=94
note_on channel=9 note=42 velocity=0 time=0
note_on channel=9 note=42 velocity=110 time=2
note_on channel=9 note=42 velocity=0 time=94
note_on channel=9 note=38 velocity=110 time=2
note_on channel=9 note=42 velocity=110 time=0
note_on channel=9 note=38 velocity=0 time=46
note_on channel=9 note=42 velocity=0 time=0
note_on channel=9 note=42 velocity=110 time=50
note_on channel=9 note=42 velocity=0 time=46
note_on channel=9 note=35 velocity=110 time=2
note_on channel=9 note=35 velocity=0 time=46
note_on channel=9 note=35 velocity=110 time=2
note_on channel=9 note=42 velocity=110 time=0
note_on channel=9 note=35 velocity=0 time=94
note_on channel=9 note=42 velocity=0 time=0
note_on channel=9 note=35 velocity=110 time=2
note_on channel=9 note=42 velocity=110 time=0
note_on channel=9 note=35 velocity=0 time=94
note_on channel=9 note=42 velocity=0 time=0
note_on channel=9 note=38 velocity=110 time=2
note_on channel=9 note=42 velocity=110 time=0
note_on channel=9 note=38 velocity=0 time=46
note_on channel=9 note=42 velocity=0 time=0
note_on channel=9 note=42 velocity=110 time=50
note_on channel=9 note=42 velocity=0 time=46
note_on channel=9 note=35 velocity=110 time=2
note_on channel=9 note=35 velocity=0 time=46
note_on channel=9 note=35 velocity=110 time=2
note_on channel=9 note=42 velocity=110 time=0
note_on channel=9 note=35 velocity=0 time=94
note_on channel=9 note=42 velocity=0 time=0
note_on channel=9 note=42 velocity=110 time=2
note_on channel=9 note=42 velocity=0 time=94
note_on channel=9 note=38 velocity=110 time=2
note_on channel=9 note=42 velocity=110 time=0
note_on channel=9 note=38 velocity=0 time=46
note_on channel=9 note=42 velocity=0 time=0
note_on channel=9 note=42 velocity=110 time=50
note_on channel=9 note=42 velocity=0 time=46
note_on channel=9 note=35 velocity=110 time=2
note_on channel=9 note=35 velocity=0 time=46
note_on channel=9 note=35 velocity=110 time=2
note_on channel=9 note=42 velocity=110 time=0
note_on channel=9 note=35 velocity=0 time=94
note_on channel=9 note=42 velocity=0 time=0
note_on channel=9 note=35 velocity=110 time=2
note_on channel=9 note=42 velocity=110 time=0
note_on channel=9 note=35 velocity=0 time=94
note_on channel=9 note=42 velocity=0 time=0
note_on channel=9 note=38 velocity=110 time=2
note_on channel=9 note=42 velocity=110 time=0
note_on channel=9 note=38 velocity=0 time=46
note_on channel=9 note=42 velocity=0 time=0
note_on channel=9 note=46 velocity=110 time=50
note_on channel=9 note=46 velocity=0 time=94
note_on channel=9 note=35 velocity=110 time=2
note_on channel=9 note=42 velocity=110 time=0
note_on channel=9 note=35 velocity=0 time=94
note_on channel=9 note=42 velocity=0 time=0
note_on channel=9 note=42 velocity=110 time=2
note_on channel=9 note=42 velocity=0 time=94
note_on channel=9 note=38 velocity=110 time=2
note_on channel=9 note=42 velocity=110 time=0
note_on channel=9 note=38 velocity=0 time=46
note_on channel=9 note=42 velocity=0 time=0
note_on channel=9 note=42 velocity=110 time=50
note_on channel=9 note=42 velocity=0 time=46
note_on channel=9 note=35 velocity=110 time=2
note_on channel=9 note=35 velocity=0 time=46
note_on channel=9 note=35 velocity=110 time=2
note_on channel=9 note=42 velocity=110 time=0
note_on channel=9 note=35 velocity=0 time=94
note_on channel=9 note=42 velocity=0 time=0
note_on channel=9 note=35 velocity=110 time=2
note_on channel=9 note=42 velocity=110 time=0
note_on channel=9 note=35 velocity=0 time=94
note_on channel=9 note=42 velocity=0 time=0
note_on channel=9 note=38 velocity=110 time=2
note_on channel=9 note=42 velocity=110 time=0
note_on channel=9 note=38 velocity=0 time=46
note_on channel=9 note=42 velocity=0 time=0
note_on channel=9 note=42 velocity=110 time=50
note_on channel=9 note=42 velocity=0 time=46
note_on channel=9 note=35 velocity=110 time=2
note_on channel=9 note=35 velocity=0 time=46
note_on channel=9 note=35 velocity=110 time=2
note_on channel=9 note=42 velocity=110 time=0
note_on channel=9 note=35 velocity=0 time=94
note_on channel=9 note=42 velocity=0 time=0
note_on channel=9 note=42 velocity=110 time=2
note_on channel=9 note=42 velocity=0 time=94
note_on channel=9 note=38 velocity=110 time=2
note_on channel=9 note=42 velocity=110 time=0
note_on channel=9 note=38 velocity=0 time=46
note_on channel=9 note=42 velocity=0 time=0
note_on channel=9 note=42 velocity=110 time=50
note_on channel=9 note=42 velocity=0 time=46
note_on channel=9 note=35 velocity=110 time=2
note_on channel=9 note=35 velocity=0 time=46
note_on channel=9 note=35 velocity=110 time=2
note_on channel=9 note=42 velocity=110 time=0
note_on channel=9 note=35 velocity=0 time=94
note_on channel=9 note=42 velocity=0 time=0
note_on channel=9 note=35 velocity=110 time=2
note_on channel=9 note=42 velocity=110 time=0
note_on channel=9 note=35 velocity=0 time=94
note_on channel=9 note=42 velocity=0 time=0
note_on channel=9 note=38 velocity=110 time=2
note_on channel=9 note=42 velocity=110 time=0
note_on channel=9 note=38 velocity=0 time=46
note_on channel=9 note=42 velocity=0 time=0
note_on channel=9 note=42 velocity=110 time=50
note_on channel=9 note=42 velocity=0 time=46
note_on channel=9 note=35 velocity=110 time=2
note_on channel=9 note=35 velocity=0 time=46
note_on channel=9 note=35 velocity=110 time=2
note_on channel=9 note=42 velocity=110 time=0
note_on channel=9 note=35 velocity=0 time=94
note_on channel=9 note=42 velocity=0 time=0
note_on channel=9 note=42 velocity=110 time=2
note_on channel=9 note=42 velocity=0 time=94
note_on channel=9 note=38 velocity=110 time=2
note_on channel=9 note=42 velocity=110 time=0
note_on channel=9 note=38 velocity=0 time=46
note_on channel=9 note=42 velocity=0 time=0
note_on channel=9 note=42 velocity=110 time=50
note_on channel=9 note=42 velocity=0 time=46
note_on channel=9 note=35 velocity=110 time=2
note_on channel=9 note=35 velocity=0 time=46
note_on channel=9 note=35 velocity=110 time=2
note_on channel=9 note=42 velocity=110 time=0
note_on channel=9 note=35 velocity=0 time=94
note_on channel=9 note=42 velocity=0 time=0
note_on channel=9 note=35 velocity=110 time=2
note_on channel=9 note=42 velocity=110 time=0
note_on channel=9 note=35 velocity=0 time=94
note_on channel=9 note=42 velocity=0 time=0
note_on channel=9 note=38 velocity=110 time=2
note_on channel=9 note=38 velocity=0 time=46
note_on channel=9 note=38 velocity=110 time=2
note_on channel=9 note=38 velocity=0 time=46
note_on channel=9 note=38 velocity=110 time=2
note_on channel=9 note=38 velocity=0 time=46
note_on channel=9 note=38 velocity=110 time=2
note_on channel=9 note=38 velocity=0 time=46
note_on channel=9 note=36 velocity=110 time=2
note_on channel=9 note=46 velocity=110 time=0
note_on channel=9 note=36 velocity=0 time=94
note_on channel=9 note=46 velocity=0 time=0
note_on channel=9 note=46 velocity=110 time=2
note_on channel=9 note=46 velocity=0 time=94
note_on channel=9 note=38 velocity=110 time=2
note_on channel=9 note=46 velocity=110 time=0
note_on channel=9 note=38 velocity=0 time=94
note_on channel=9 note=46 velocity=0 time=0
note_on channel=9 note=46 velocity=110 time=2
note_on channel=9 note=46 velocity=0 time=94
note_on channel=9 note=36 velocity=110 time=2
note_on channel=9 note=46 velocity=110 time=0
note_on channel=9 note=36 velocity=0 time=94
note_on channel=9 note=46 velocity=0 time=0
note_on channel=9 note=36 velocity=110 time=2
note_on channel=9 note=46 velocity=110 time=0
note_on channel=9 note=36 velocity=0 time=94
note_on channel=9 note=46 velocity=0 time=0
note_on channel=9 note=38 velocity=110 time=2
note_on channel=9 note=46 velocity=110 time=0
note_on channel=9 note=38 velocity=0 time=94
note_on channel=9 note=46 velocity=0 time=0
note_on channel=9 note=46 velocity=110 time=2
note_on channel=9 note=46 velocity=0 time=94
note_on channel=9 note=36 velocity=110 time=2
note_on channel=9 note=46 velocity=110 time=0
note_on channel=9 note=36 velocity=0 time=94
note_on channel=9 note=46 velocity=0 time=0
note_on channel=9 note=46 velocity=110 time=2
note_on channel=9 note=46 velocity=0 time=94
note_on channel=9 note=38 velocity=110 time=2
note_on channel=9 note=46 velocity=110 time=0
note_on channel=9 note=38 velocity=0 time=94
note_on channel=9 note=46 velocity=0 time=0
note_on channel=9 note=46 velocity=110 time=2
note_on channel=9 note=46 velocity=0 time=94
note_on channel=9 note=36 velocity=110 time=2
note_on channel=9 note=46 velocity=110 time=0
note_on channel=9 note=36 velocity=0 time=94
note_on channel=9 note=46 velocity=0 time=0
note_on channel=9 note=36 velocity=110 time=2
note_on channel=9 note=46 velocity=110 time=0
note_on channel=9 note=36 velocity=0 time=94
note_on channel=9 note=46 velocity=0 time=0
note_on channel=9 note=38 velocity=110 time=2
note_on channel=9 note=46 velocity=110 time=0
note_on channel=9 note=38 velocity=0 time=94
note_on channel=9 note=46 velocity=0 time=0
note_on channel=9 note=46 velocity=110 time=2
note_on channel=9 note=46 velocity=0 time=94
note_on channel=9 note=36 velocity=110 time=2
note_on channel=9 note=46 velocity=110 time=0
note_on channel=9 note=36 velocity=0 time=94
note_on channel=9 note=46 velocity=0 time=0
note_on channel=9 note=46 velocity=110 time=2
note_on channel=9 note=46 velocity=0 time=94
note_on channel=9 note=38 velocity=110 time=2
note_on channel=9 note=46 velocity=110 time=0
note_on channel=9 note=38 velocity=0 time=94
note_on channel=9 note=46 velocity=0 time=0
note_on channel=9 note=46 velocity=110 time=2
note_on channel=9 note=46 velocity=0 time=94
note_on channel=9 note=36 velocity=110 time=2
note_on channel=9 note=46 velocity=110 time=0
note_on channel=9 note=36 velocity=0 time=94
note_on channel=9 note=46 velocity=0 time=0
note_on channel=9 note=36 velocity=110 time=2
note_on channel=9 note=46 velocity=110 time=0
note_on channel=9 note=36 velocity=0 time=94
note_on channel=9 note=46 velocity=0 time=0
note_on channel=9 note=38 velocity=110 time=2
note_on channel=9 note=46 velocity=110 time=0
note_on channel=9 note=38 velocity=0 time=94
note_on channel=9 note=46 velocity=0 time=0
note_on channel=9 note=46 velocity=110 time=2
note_on channel=9 note=46 velocity=0 time=94
note_on channel=9 note=36 velocity=110 time=2
note_on channel=9 note=46 velocity=110 time=0
note_on channel=9 note=36 velocity=0 time=94
note_on channel=9 note=46 velocity=0 time=0
note_on channel=9 note=46 velocity=110 time=2
note_on channel=9 note=46 velocity=0 time=94
note_on channel=9 note=38 velocity=110 time=2
note_on channel=9 note=46 velocity=110 time=0
note_on channel=9 note=38 velocity=0 time=94
note_on channel=9 note=46 velocity=0 time=0
note_on channel=9 note=46 velocity=110 time=2
note_on channel=9 note=46 velocity=0 time=94
note_on channel=9 note=36 velocity=110 time=2
note_on channel=9 note=46 velocity=110 time=0
note_on channel=9 note=36 velocity=0 time=94
note_on channel=9 note=46 velocity=0 time=0
note_on channel=9 note=36 velocity=110 time=2
note_on channel=9 note=46 velocity=110 time=0
note_on channel=9 note=36 velocity=0 time=94
note_on channel=9 note=46 velocity=0 time=0
note_on channel=9 note=38 velocity=110 time=2
note_on channel=9 note=46 velocity=110 time=0
note_on channel=9 note=38 velocity=0 time=94
note_on channel=9 note=46 velocity=0 time=0
note_on channel=9 note=46 velocity=110 time=2
note_on channel=9 note=46 velocity=0 time=94
note_on channel=9 note=36 velocity=110 time=2
note_on channel=9 note=46 velocity=110 time=0
note_on channel=9 note=36 velocity=0 time=94
note_on channel=9 note=46 velocity=0 time=0
note_on channel=9 note=46 velocity=110 time=2
note_on channel=9 note=46 velocity=0 time=94
note_on channel=9 note=38 velocity=110 time=2
note_on channel=9 note=46 velocity=110 time=0
note_on channel=9 note=38 velocity=0 time=94
note_on channel=9 note=46 velocity=0 time=0
note_on channel=9 note=46 velocity=110 time=2
note_on channel=9 note=46 velocity=0 time=94
note_on channel=9 note=36 velocity=110 time=2
note_on channel=9 note=46 velocity=110 time=0
note_on channel=9 note=36 velocity=0 time=94
note_on channel=9 note=46 velocity=0 time=0
note_on channel=9 note=36 velocity=110 time=2
note_on channel=9 note=46 velocity=110 time=0
note_on channel=9 note=36 velocity=0 time=94
note_on channel=9 note=46 velocity=0 time=0
note_on channel=9 note=38 velocity=110 time=2
note_on channel=9 note=46 velocity=110 time=0
note_on channel=9 note=38 velocity=0 time=94
note_on channel=9 note=46 velocity=0 time=0
note_on channel=9 note=46 velocity=110 time=2
note_on channel=9 note=46 velocity=0 time=94
note_on channel=9 note=36 velocity=110 time=2
note_on channel=9 note=46 velocity=110 time=0
note_on channel=9 note=36 velocity=0 time=94
note_on channel=9 note=46 velocity=0 time=0
note_on channel=9 note=46 velocity=110 time=2
note_on channel=9 note=46 velocity=0 time=94
note_on channel=9 note=38 velocity=110 time=2
note_on channel=9 note=46 velocity=110 time=0
note_on channel=9 note=38 velocity=0 time=94
note_on channel=9 note=46 velocity=0 time=0
note_on channel=9 note=46 velocity=110 time=2
note_on channel=9 note=46 velocity=0 time=94
note_on channel=9 note=36 velocity=110 time=2
note_on channel=9 note=46 velocity=110 time=0
note_on channel=9 note=36 velocity=0 time=94
note_on channel=9 note=46 velocity=0 time=0
note_on channel=9 note=36 velocity=110 time=2
note_on channel=9 note=46 velocity=110 time=0
note_on channel=9 note=36 velocity=0 time=94
note_on channel=9 note=46 velocity=0 time=0
note_on channel=9 note=38 velocity=110 time=2
note_on channel=9 note=46 velocity=110 time=0
note_on channel=9 note=38 velocity=0 time=94
note_on channel=9 note=46 velocity=0 time=0
note_on channel=9 note=46 velocity=110 time=2
note_on channel=9 note=46 velocity=0 time=94
note_on channel=9 note=36 velocity=110 time=2
note_on channel=9 note=46 velocity=110 time=0
note_on channel=9 note=36 velocity=0 time=94
note_on channel=9 note=46 velocity=0 time=0
note_on channel=9 note=46 velocity=110 time=2
note_on channel=9 note=46 velocity=0 time=94
note_on channel=9 note=38 velocity=110 time=2
note_on channel=9 note=46 velocity=110 time=0
note_on channel=9 note=38 velocity=0 time=94
note_on channel=9 note=46 velocity=0 time=0
note_on channel=9 note=46 velocity=110 time=2
note_on channel=9 note=46 velocity=0 time=94
note_on channel=9 note=36 velocity=110 time=2
note_on channel=9 note=46 velocity=110 time=0
note_on channel=9 note=36 velocity=0 time=94
note_on channel=9 note=46 velocity=0 time=0
note_on channel=9 note=36 velocity=110 time=2
note_on channel=9 note=46 velocity=110 time=0
note_on channel=9 note=36 velocity=0 time=94
note_on channel=9 note=46 velocity=0 time=0
note_on channel=9 note=38 velocity=110 time=2
note_on channel=9 note=46 velocity=110 time=0
note_on channel=9 note=38 velocity=0 time=94
note_on channel=9 note=46 velocity=0 time=0
note_on channel=9 note=46 velocity=110 time=2
note_on channel=9 note=46 velocity=0 time=94
note_on channel=9 note=36 velocity=110 time=2
note_on channel=9 note=46 velocity=110 time=0
note_on channel=9 note=36 velocity=0 time=94
note_on channel=9 note=46 velocity=0 time=0
note_on channel=9 note=46 velocity=110 time=2
note_on channel=9 note=46 velocity=0 time=94
note_on channel=9 note=38 velocity=110 time=2
note_on channel=9 note=46 velocity=110 time=0
note_on channel=9 note=38 velocity=0 time=94
note_on channel=9 note=46 velocity=0 time=0
note_on channel=9 note=46 velocity=110 time=2
note_on channel=9 note=46 velocity=0 time=94
note_on channel=9 note=36 velocity=110 time=2
note_on channel=9 note=46 velocity=110 time=0
note_on channel=9 note=36 velocity=0 time=94
note_on channel=9 note=46 velocity=0 time=0
note_on channel=9 note=36 velocity=110 time=2
note_on channel=9 note=46 velocity=110 time=0
note_on channel=9 note=36 velocity=0 time=94
note_on channel=9 note=46 velocity=0 time=0
note_on channel=9 note=38 velocity=110 time=2
note_on channel=9 note=46 velocity=110 time=0
note_on channel=9 note=38 velocity=0 time=94
note_on channel=9 note=46 velocity=0 time=0
note_on channel=9 note=46 velocity=110 time=2
note_on channel=9 note=46 velocity=0 time=94
note_on channel=9 note=36 velocity=110 time=2
note_on channel=9 note=46 velocity=110 time=0
note_on channel=9 note=36 velocity=0 time=94
note_on channel=9 note=46 velocity=0 time=0
note_on channel=9 note=46 velocity=110 time=2
note_on channel=9 note=46 velocity=0 time=94
note_on channel=9 note=38 velocity=110 time=2
note_on channel=9 note=46 velocity=110 time=0
note_on channel=9 note=38 velocity=0 time=94
note_on channel=9 note=46 velocity=0 time=0
note_on channel=9 note=46 velocity=110 time=2
note_on channel=9 note=46 velocity=0 time=94
note_on channel=9 note=36 velocity=110 time=2
note_on channel=9 note=46 velocity=110 time=0
note_on channel=9 note=36 velocity=0 time=94
note_on channel=9 note=46 velocity=0 time=0
note_on channel=9 note=36 velocity=110 time=2
note_on channel=9 note=46 velocity=110 time=0
note_on channel=9 note=36 velocity=0 time=94
note_on channel=9 note=46 velocity=0 time=0
note_on channel=9 note=38 velocity=110 time=2
note_on channel=9 note=46 velocity=110 time=0
note_on channel=9 note=38 velocity=0 time=94
note_on channel=9 note=46 velocity=0 time=0
note_on channel=9 note=46 velocity=110 time=2
note_on channel=9 note=46 velocity=0 time=94
note_on channel=9 note=36 velocity=110 time=2
note_on channel=9 note=46 velocity=110 time=0
note_on channel=9 note=36 velocity=0 time=94
note_on channel=9 note=46 velocity=0 time=0
note_on channel=9 note=46 velocity=110 time=2
note_on channel=9 note=46 velocity=0 time=94
note_on channel=9 note=38 velocity=110 time=2
note_on channel=9 note=46 velocity=110 time=0
note_on channel=9 note=38 velocity=0 time=94
note_on channel=9 note=46 velocity=0 time=0
note_on channel=9 note=46 velocity=110 time=2
note_on channel=9 note=46 velocity=0 time=94
note_on channel=9 note=36 velocity=110 time=2
note_on channel=9 note=46 velocity=110 time=0
note_on channel=9 note=36 velocity=0 time=94
note_on channel=9 note=46 velocity=0 time=0
note_on channel=9 note=36 velocity=110 time=2
note_on channel=9 note=46 velocity=110 time=0
note_on channel=9 note=36 velocity=0 time=94
note_on channel=9 note=46 velocity=0 time=0
note_on channel=9 note=38 velocity=110 time=2
note_on channel=9 note=46 velocity=110 time=0
note_on channel=9 note=38 velocity=0 time=94
note_on channel=9 note=46 velocity=0 time=0
note_on channel=9 note=46 velocity=110 time=2
note_on channel=9 note=46 velocity=0 time=94
note_on channel=9 note=36 velocity=110 time=2
note_on channel=9 note=46 velocity=110 time=0
note_on channel=9 note=36 velocity=0 time=94
note_on channel=9 note=46 velocity=0 time=0
note_on channel=9 note=46 velocity=110 time=2
note_on channel=9 note=46 velocity=0 time=94
note_on channel=9 note=38 velocity=110 time=2
note_on channel=9 note=46 velocity=110 time=0
note_on channel=9 note=38 velocity=0 time=94
note_on channel=9 note=46 velocity=0 time=0
note_on channel=9 note=46 velocity=110 time=2
note_on channel=9 note=46 velocity=0 time=94
note_on channel=9 note=36 velocity=110 time=2
note_on channel=9 note=46 velocity=110 time=0
note_on channel=9 note=36 velocity=0 time=94
note_on channel=9 note=46 velocity=0 time=0
note_on channel=9 note=36 velocity=110 time=2
note_on channel=9 note=46 velocity=110 time=0
note_on channel=9 note=36 velocity=0 time=94
note_on channel=9 note=46 velocity=0 time=0
note_on channel=9 note=38 velocity=110 time=2
note_on channel=9 note=46 velocity=110 time=0
note_on channel=9 note=38 velocity=0 time=94
note_on channel=9 note=46 velocity=0 time=0
note_on channel=9 note=57 velocity=110 time=98
note_on channel=9 note=57 velocity=0 time=718
MetaMessage('end_of_track', time=0)
Track 8: Staff-3
MetaMessage('midi_port', port=0, time=0)
MetaMessage('track_name', name='Staff-3', time=0)
program_change channel=3 program=18 time=0
control_change channel=3 control=7 value=127 time=0
control_change channel=3 control=10 value=64 time=0
note_on channel=3 note=73 velocity=110 time=3384
note_on channel=3 note=73 velocity=0 time=22
note_on channel=3 note=78 velocity=110 time=2
note_on channel=3 note=78 velocity=0 time=22
note_on channel=3 note=82 velocity=110 time=2
note_on channel=3 note=82 velocity=0 time=22
note_on channel=3 note=73 velocity=110 time=2
note_on channel=3 note=78 velocity=110 time=0
note_on channel=3 note=82 velocity=110 time=0
note_on channel=3 note=73 velocity=0 time=334
note_on channel=3 note=78 velocity=0 time=0
note_on channel=3 note=82 velocity=0 time=0
MetaMessage('end_of_track', time=0)
Track 9: Staff-6
MetaMessage('midi_port', port=0, time=0)
MetaMessage('track_name', name='Staff-6', time=0)
program_change channel=5 program=79 time=0
control_change channel=5 control=7 value=127 time=0
control_change channel=5 control=10 value=64 time=0
note_on channel=5 note=85 velocity=110 time=31488
note_on channel=5 note=85 velocity=0 time=160
note_on channel=5 note=82 velocity=110 time=32
note_on channel=5 note=82 velocity=0 time=160
note_on channel=5 note=80 velocity=110 time=32
note_on channel=5 note=80 velocity=0 time=94
note_on channel=5 note=78 velocity=110 time=2
note_on channel=5 note=78 velocity=0 time=94
note_on channel=5 note=82 velocity=110 time=98
note_on channel=5 note=82 velocity=0 time=190
note_on channel=5 note=83 velocity=110 time=2
note_on channel=5 note=83 velocity=0 time=94
note_on channel=5 note=82 velocity=110 time=2
note_on channel=5 note=82 velocity=0 time=160
note_on channel=5 note=80 velocity=110 time=32
note_on channel=5 note=80 velocity=0 time=94
note_on channel=5 note=78 velocity=110 time=2
note_on channel=5 note=78 velocity=0 time=94
note_on channel=5 note=75 velocity=110 time=2
note_on channel=5 note=75 velocity=0 time=94
note_on channel=5 note=73 velocity=110 time=2
note_on channel=5 note=73 velocity=0 time=94
note_on channel=5 note=85 velocity=110 time=2
note_on channel=5 note=85 velocity=0 time=160
note_on channel=5 note=82 velocity=110 time=32
note_on channel=5 note=82 velocity=0 time=160
note_on channel=5 note=80 velocity=110 time=32
note_on channel=5 note=80 velocity=0 time=94
note_on channel=5 note=78 velocity=110 time=2
note_on channel=5 note=78 velocity=0 time=94
note_on channel=5 note=82 velocity=110 time=98
note_on channel=5 note=82 velocity=0 time=190
note_on channel=5 note=83 velocity=110 time=2
note_on channel=5 note=83 velocity=0 time=94
note_on channel=5 note=82 velocity=110 time=2
note_on channel=5 note=82 velocity=0 time=160
note_on channel=5 note=80 velocity=110 time=32
note_on channel=5 note=80 velocity=0 time=94
note_on channel=5 note=78 velocity=110 time=2
note_on channel=5 note=78 velocity=0 time=94
note_on channel=5 note=75 velocity=110 time=2
note_on channel=5 note=75 velocity=0 time=94
note_on channel=5 note=73 velocity=110 time=2
note_on channel=5 note=73 velocity=0 time=94
note_on channel=5 note=85 velocity=110 time=2
note_on channel=5 note=85 velocity=0 time=160
note_on channel=5 note=82 velocity=110 time=32
note_on channel=5 note=82 velocity=0 time=160
note_on channel=5 note=80 velocity=110 time=32
note_on channel=5 note=80 velocity=0 time=94
note_on channel=5 note=78 velocity=110 time=2
note_on channel=5 note=78 velocity=0 time=94
note_on channel=5 note=82 velocity=110 time=98
note_on channel=5 note=82 velocity=0 time=190
note_on channel=5 note=83 velocity=110 time=2
note_on channel=5 note=83 velocity=0 time=94
note_on channel=5 note=82 velocity=110 time=2
note_on channel=5 note=82 velocity=0 time=160
note_on channel=5 note=80 velocity=110 time=32
note_on channel=5 note=80 velocity=0 time=94
note_on channel=5 note=78 velocity=110 time=2
note_on channel=5 note=78 velocity=0 time=94
note_on channel=5 note=75 velocity=110 time=2
note_on channel=5 note=75 velocity=0 time=94
note_on channel=5 note=73 velocity=110 time=2
note_on channel=5 note=73 velocity=0 time=94
note_on channel=5 note=85 velocity=110 time=2
note_on channel=5 note=85 velocity=0 time=160
note_on channel=5 note=82 velocity=110 time=32
note_on channel=5 note=82 velocity=0 time=160
note_on channel=5 note=80 velocity=110 time=32
note_on channel=5 note=80 velocity=0 time=94
note_on channel=5 note=78 velocity=110 time=2
note_on channel=5 note=78 velocity=0 time=94
note_on channel=5 note=82 velocity=110 time=98
note_on channel=5 note=82 velocity=0 time=190
note_on channel=5 note=83 velocity=110 time=2
note_on channel=5 note=83 velocity=0 time=94
note_on channel=5 note=82 velocity=110 time=2
note_on channel=5 note=82 velocity=0 time=160
note_on channel=5 note=80 velocity=110 time=32
note_on channel=5 note=80 velocity=0 time=94
note_on channel=5 note=78 velocity=110 time=2
note_on channel=5 note=78 velocity=0 time=94
note_on channel=5 note=75 velocity=110 time=2
note_on channel=5 note=75 velocity=0 time=94
note_on channel=5 note=73 velocity=110 time=2
note_on channel=5 note=73 velocity=0 time=94
MetaMessage('end_of_track', time=0)
Track 10: Staff-7
MetaMessage('midi_port', port=0, time=0)
MetaMessage('track_name', name='Staff-7', time=0)
program_change channel=6 program=10 time=0
control_change channel=6 control=7 value=127 time=0
control_change channel=6 control=10 value=64 time=0
note_on channel=6 note=85 velocity=110 time=31488
note_on channel=6 note=85 velocity=0 time=160
note_on channel=6 note=82 velocity=110 time=32
note_on channel=6 note=82 velocity=0 time=160
note_on channel=6 note=80 velocity=110 time=32
note_on channel=6 note=80 velocity=0 time=94
note_on channel=6 note=78 velocity=110 time=2
note_on channel=6 note=78 velocity=0 time=94
note_on channel=6 note=82 velocity=110 time=98
note_on channel=6 note=82 velocity=0 time=190
note_on channel=6 note=83 velocity=110 time=2
note_on channel=6 note=83 velocity=0 time=94
note_on channel=6 note=82 velocity=110 time=2
note_on channel=6 note=82 velocity=0 time=160
note_on channel=6 note=80 velocity=110 time=32
note_on channel=6 note=80 velocity=0 time=94
note_on channel=6 note=78 velocity=110 time=2
note_on channel=6 note=78 velocity=0 time=94
note_on channel=6 note=75 velocity=110 time=2
note_on channel=6 note=75 velocity=0 time=94
note_on channel=6 note=73 velocity=110 time=2
note_on channel=6 note=73 velocity=0 time=94
note_on channel=6 note=85 velocity=110 time=2
note_on channel=6 note=85 velocity=0 time=160
note_on channel=6 note=82 velocity=110 time=32
note_on channel=6 note=82 velocity=0 time=160
note_on channel=6 note=80 velocity=110 time=32
note_on channel=6 note=80 velocity=0 time=94
note_on channel=6 note=78 velocity=110 time=2
note_on channel=6 note=78 velocity=0 time=94
note_on channel=6 note=82 velocity=110 time=98
note_on channel=6 note=82 velocity=0 time=190
note_on channel=6 note=83 velocity=110 time=2
note_on channel=6 note=83 velocity=0 time=94
note_on channel=6 note=82 velocity=110 time=2
note_on channel=6 note=82 velocity=0 time=160
note_on channel=6 note=80 velocity=110 time=32
note_on channel=6 note=80 velocity=0 time=94
note_on channel=6 note=78 velocity=110 time=2
note_on channel=6 note=78 velocity=0 time=94
note_on channel=6 note=75 velocity=110 time=2
note_on channel=6 note=75 velocity=0 time=94
note_on channel=6 note=73 velocity=110 time=2
note_on channel=6 note=73 velocity=0 time=94
note_on channel=6 note=85 velocity=110 time=2
note_on channel=6 note=85 velocity=0 time=160
note_on channel=6 note=82 velocity=110 time=32
note_on channel=6 note=82 velocity=0 time=160
note_on channel=6 note=80 velocity=110 time=32
note_on channel=6 note=80 velocity=0 time=94
note_on channel=6 note=78 velocity=110 time=2
note_on channel=6 note=78 velocity=0 time=94
note_on channel=6 note=82 velocity=110 time=98
note_on channel=6 note=82 velocity=0 time=190
note_on channel=6 note=83 velocity=110 time=2
note_on channel=6 note=83 velocity=0 time=94
note_on channel=6 note=82 velocity=110 time=2
note_on channel=6 note=82 velocity=0 time=160
note_on channel=6 note=80 velocity=110 time=32
note_on channel=6 note=80 velocity=0 time=94
note_on channel=6 note=78 velocity=110 time=2
note_on channel=6 note=78 velocity=0 time=94
note_on channel=6 note=75 velocity=110 time=2
note_on channel=6 note=75 velocity=0 time=94
note_on channel=6 note=73 velocity=110 time=2
note_on channel=6 note=73 velocity=0 time=94
note_on channel=6 note=85 velocity=110 time=2
note_on channel=6 note=85 velocity=0 time=160
note_on channel=6 note=82 velocity=110 time=32
note_on channel=6 note=82 velocity=0 time=160
note_on channel=6 note=80 velocity=110 time=32
note_on channel=6 note=80 velocity=0 time=94
note_on channel=6 note=78 velocity=110 time=2
note_on channel=6 note=78 velocity=0 time=94
note_on channel=6 note=82 velocity=110 time=98
note_on channel=6 note=82 velocity=0 time=190
note_on channel=6 note=83 velocity=110 time=2
note_on channel=6 note=83 velocity=0 time=94
note_on channel=6 note=82 velocity=110 time=2
note_on channel=6 note=82 velocity=0 time=160
note_on channel=6 note=80 velocity=110 time=32
note_on channel=6 note=80 velocity=0 time=94
note_on channel=6 note=78 velocity=110 time=2
note_on channel=6 note=78 velocity=0 time=94
note_on channel=6 note=75 velocity=110 time=2
note_on channel=6 note=75 velocity=0 time=94
note_on channel=6 note=73 velocity=110 time=2
note_on channel=6 note=73 velocity=0 time=94
MetaMessage('end_of_track', time=0)
Track 11: Tempo Track
MetaMessage('midi_port', port=0, time=0)
MetaMessage('track_name', name='Tempo Track', time=0)
control_change channel=0 control=7 value=127 time=0
control_change channel=0 control=10 value=64 time=0
MetaMessage('end_of_track', time=0)
duration of piece in ticks: 7460.872168750001
notes used in this piece in midi notes: dict_keys([30, 32, 34, 35, 36, 37, 38, 39, 40, 41, 42, 44, 46, 47, 48, 49, 51, 52, 54, 55, 56, 57, 58, 59, 61, 63, 66, 68, 73, 75, 78, 80, 82, 83, 85]) (35 in total)
number of midi messages: 5966
Prebuild size: 1323 parts
