# Blender 5.0.1
# www.blender.org
o obj_interactive_timer_body
v -0.413567 -0.414932 0.919853
v -0.413567 0.414932 0.919853
v -0.413567 0.414932 -0.919846
v -0.413567 -0.414932 -0.919846
v 0.416309 -0.414932 -0.919846
v 0.416309 -0.414932 0.919846
v 0.416309 0.414932 0.919846
v 0.416309 0.414932 -0.919846
v -0.206097 -0.207474 0.938057
v -0.206097 0.207474 0.938057
v -0.206097 0.207474 -0.938057
v -0.206097 -0.207474 -0.938057
v 0.208839 -0.207474 -0.938057
v 0.208839 -0.207474 0.938057
v 0.208839 0.207474 0.938057
v 0.208839 0.207474 -0.938057
v -0.500000 0.272217 -0.840126
v -0.500000 0.199974 -0.914001
v 0.500000 0.272217 -0.840126
v 0.500000 0.197021 -0.913841
v 0.500000 -0.199974 -0.914001
v 0.500000 -0.270758 -0.840286
v -0.270758 0.500000 -0.840286
v -0.199974 0.500000 -0.914001
v 0.270758 0.500000 -0.840286
v 0.199974 0.500000 -0.914001
v -0.500000 0.429439 -1.000000
v -0.429438 0.500000 -1.000000
v -0.500000 0.429439 1.000000
v -0.429438 0.500000 1.000000
v -0.199974 0.500000 0.914001
v -0.270758 0.500000 0.840286
v -0.358860 0.500000 -0.666519
v -0.358860 0.411438 -0.666519
v -0.358860 0.500000 -0.313274
v -0.429440 0.500000 0.000000
v -0.358860 0.411438 -0.313274
v -0.215366 0.500000 -0.133946
v -0.215366 0.411438 -0.133946
v -0.215366 0.500000 0.000000
v -0.215366 0.411438 0.000000
v -0.358860 0.500000 0.666519
v -0.358860 0.411438 0.666519
v -0.358860 0.500000 0.313274
v -0.358860 0.411438 0.313274
v -0.215366 0.500000 0.133946
v -0.215366 0.411438 0.133946
v -0.500000 0.429438 0.000000
v 0.500000 0.429439 -1.000000
v 0.429438 0.500000 -1.000000
v 0.500000 0.429439 1.000000
v 0.429438 0.500000 1.000000
v 0.199974 0.500000 0.914001
v 0.270758 0.500000 0.840286
v 0.358860 0.500000 -0.666519
v 0.358860 0.411438 -0.666519
v 0.358860 0.500000 -0.313274
v 0.429440 0.500000 0.000000
v 0.358860 0.411438 -0.313274
v 0.215366 0.500000 -0.133946
v 0.215366 0.411438 -0.133946
v 0.215366 0.500000 0.000000
v 0.215366 0.411438 0.000000
v 0.358860 0.500000 0.666519
v 0.358860 0.411438 0.666519
v 0.358860 0.500000 0.313274
v 0.358860 0.411438 0.313274
v 0.215366 0.500000 0.133946
v 0.215366 0.411438 0.133946
v 0.500000 0.429438 0.000000
v -0.500000 0.270758 0.840286
v -0.500000 0.199974 0.914001
v 0.500000 0.270758 0.840286
v 0.500000 0.199974 0.914001
v -0.500000 -0.429439 -1.000000
v -0.429438 -0.500000 -1.000000
v -0.500000 -0.429439 1.000000
v -0.429438 -0.500000 1.000000
v 0.500000 -0.429439 -1.000000
v 0.429438 -0.500000 -1.000000
v 0.500000 -0.429439 1.000000
v 0.429438 -0.500000 1.000000
v -0.500000 -0.272217 -0.840126
v -0.500000 -0.197021 -0.913841
v 0.500000 -0.272217 -0.840126
v -0.270758 -0.500000 -0.840286
v -0.199974 -0.500000 -0.914001
v 0.270758 -0.500000 -0.840286
v 0.199974 -0.500000 -0.914001
v -0.500000 -0.270758 0.840286
v -0.500000 -0.199974 0.914001
v 0.500000 -0.270758 0.840286
v 0.500000 -0.199974 0.914001
v -0.270758 -0.500000 0.840286
v -0.199974 -0.500000 0.914001
v 0.199974 -0.500000 0.914001
v 0.270758 -0.500000 0.840286
v -0.500000 -0.199974 -0.914001
v -0.500000 -0.270758 -0.840286
v -0.500000 -0.358860 -0.666519
v -0.411438 -0.358860 -0.666519
v -0.500000 -0.358860 -0.313274
v -0.500000 -0.429440 0.000000
v -0.411438 -0.358860 -0.313274
v -0.500000 -0.215366 -0.133946
v -0.411438 -0.215366 -0.133946
v -0.500000 -0.215366 0.000000
v -0.411438 -0.215366 0.000000
v -0.500000 -0.358860 0.666519
v -0.411438 -0.358860 0.666519
v -0.500000 -0.358860 0.313274
v -0.411438 -0.358860 0.313274
v -0.500000 -0.215366 0.133946
v -0.411438 -0.215366 0.133946
v -0.429438 -0.500000 0.000000
v -0.500000 0.270758 -0.840286
v -0.500000 0.358860 -0.666519
v -0.411438 0.358860 -0.666519
v -0.500000 0.358860 -0.313274
v -0.411438 0.358860 -0.313274
v -0.500000 0.215366 -0.133946
v -0.411438 0.215366 -0.133946
v -0.500000 0.215366 0.000000
v -0.411438 0.215366 0.000000
v -0.500000 0.358860 0.666519
v -0.411438 0.358860 0.666519
v -0.500000 0.358860 0.313274
v -0.411438 0.358860 0.313274
v -0.500000 0.215366 0.133946
v -0.411438 0.215366 0.133946
v 0.358860 -0.500000 -0.666519
v 0.358860 -0.411438 -0.666519
v 0.358860 -0.500000 -0.313274
v 0.429440 -0.500000 0.000000
v 0.358860 -0.411438 -0.313274
v 0.215366 -0.500000 -0.133946
v 0.215366 -0.411438 -0.133946
v 0.215366 -0.500000 0.000000
v 0.215366 -0.411438 0.000000
v 0.358860 -0.500000 0.666519
v 0.358860 -0.411438 0.666519
v 0.358860 -0.500000 0.313274
v 0.358860 -0.411438 0.313274
v 0.215366 -0.500000 0.133946
v 0.215366 -0.411438 0.133946
v 0.500000 -0.429438 0.000000
v -0.358860 -0.500000 -0.666519
v -0.358860 -0.411438 -0.666519
v -0.358860 -0.500000 -0.313274
v -0.358860 -0.411438 -0.313274
v -0.215366 -0.500000 -0.133946
v -0.215366 -0.411438 -0.133946
v -0.215366 -0.500000 0.000000
v -0.215366 -0.411438 0.000000
v -0.358860 -0.500000 0.666519
v -0.358860 -0.411438 0.666519
v -0.358860 -0.500000 0.313274
v -0.358860 -0.411438 0.313274
v -0.215366 -0.500000 0.133946
v -0.215366 -0.411438 0.133946
v 0.500000 0.199974 -0.914001
v 0.500000 0.270758 -0.840286
v 0.500000 0.358860 -0.666519
v 0.411438 0.358860 -0.666519
v 0.500000 0.358860 -0.313274
v 0.411438 0.358860 -0.313274
v 0.500000 0.215366 -0.133946
v 0.411438 0.215366 -0.133946
v 0.500000 0.215366 0.000000
v 0.411438 0.215366 0.000000
v 0.500000 0.358860 0.666519
v 0.411438 0.358860 0.666519
v 0.500000 0.358860 0.313274
v 0.411438 0.358860 0.313274
v 0.500000 0.215366 0.133946
v 0.411438 0.215366 0.133946
v 0.500000 -0.358860 -0.666519
v 0.411438 -0.358860 -0.666519
v 0.500000 -0.358860 -0.313274
v 0.411438 -0.358860 -0.313274
v 0.500000 -0.215366 -0.133946
v 0.411438 -0.215366 -0.133946
v 0.500000 -0.215366 0.000000
v 0.411438 -0.215366 0.000000
v 0.500000 -0.358860 0.666519
v 0.411438 -0.358860 0.666519
v 0.500000 -0.358860 0.313274
v 0.411438 -0.358860 0.313274
v 0.500000 -0.215366 0.133946
v 0.411438 -0.215366 0.133946
vn -1.0000 -0.0000 -0.0000
vn -0.0000 -1.0000 -0.0000
vn -0.0000 1.0000 -0.0000
vn 1.0000 -0.0000 -0.0000
vn -0.0000 -0.0000 -1.0000
vn 0.1547 -0.0000 0.9880
vn 0.7213 -0.0000 0.6926
vn -0.0002 -0.1553 0.9879
vn -0.0005 -0.1545 0.9880
vn -0.0011 -0.7075 0.7067
vn -0.0001 -0.0000 -1.0000
vn 0.7808 -0.0000 -0.6248
vn 0.7808 -0.0000 0.6248
vn -0.7071 0.7071 -0.0000
vn -0.0000 -0.0000 1.0000
vn -0.7808 -0.0000 -0.6248
vn -0.7808 -0.0000 0.6248
vn 0.7071 0.7071 -0.0000
vn -0.0000 -0.1547 -0.9880
vn -0.0000 -0.7213 -0.6926
vn -0.1547 -0.0000 -0.9880
vn -0.7213 -0.0000 -0.6926
vn 0.0005 0.1545 0.9880
vn 0.0011 0.7075 0.7067
vn 0.0002 0.1553 0.9879
vn -0.1547 -0.0000 0.9880
vn -0.7213 -0.0000 0.6926
vn 0.1547 -0.0000 -0.9880
vn 0.7213 -0.0000 -0.6926
vn -0.0000 0.1547 -0.9880
vn -0.0000 0.7213 -0.6926
vn -0.0000 0.7808 -0.6248
vn -0.0000 0.7808 0.6248
vn -0.7071 -0.7071 -0.0000
vn -0.0000 -0.7808 -0.6248
vn -0.0000 -0.7808 0.6248
vn 0.7071 -0.7071 -0.0000
vt 0.107096 0.122792
vt 0.173218 0.122792
vt 0.173218 0.152619
vt 0.107096 0.152619
vt 0.173218 0.104842
vt 0.107096 0.104842
vt 0.107096 0.075015
vt 0.173218 0.075015
vt 0.107096 0.171129
vt 0.173218 0.171129
vt 0.173218 0.200956
vt 0.107096 0.200956
vt 0.186944 0.173373
vt 0.186944 0.107251
vt 0.216771 0.107251
vt 0.216771 0.173373
vt 0.324863 0.130083
vt 0.390985 0.130083
vt 0.390985 0.159910
vt 0.324863 0.159910
vt 0.390985 0.112134
vt 0.324863 0.112134
vt 0.324863 0.082307
vt 0.390985 0.082307
vt 0.324863 0.171129
vt 0.390985 0.171129
vt 0.390985 0.200956
vt 0.324863 0.200956
vt 0.264448 0.173373
vt 0.264448 0.107251
vt 0.294275 0.107251
vt 0.294275 0.173373
vt 0.813308 0.084338
vt 0.896020 0.084338
vt 0.896020 0.236123
vt 0.813308 0.236123
vt 0.813308 0.076559
vt 0.813308 0.060726
vt 0.965093 0.060726
vt 0.965093 0.076559
vt 1.921725 0.084338
vt 1.921725 0.236123
vt 1.906041 0.236123
vt 1.906041 0.084338
vt 1.813308 0.084338
vt 1.896020 0.084338
vt 1.896020 0.236123
vt 1.813308 0.236123
vt 1.987691 0.005565
vt 1.904830 0.005565
vt 1.904830 0.026339
vt 1.987691 0.026339
vt 0.247664 0.238007
vt 0.247767 0.187612
vt 0.279187 0.187612
vt 0.321181 0.221017
vt 1.735462 0.182255
vt 1.735477 0.236129
vt 1.756252 0.236123
vt 1.756236 0.182248
vt 1.868370 0.052293
vt 1.868370 0.031519
vt 1.836950 0.031519
vt 1.836949 0.052293
vt 0.091356 0.221017
vt 0.013099 0.237414
vt 0.050605 0.200223
vt 0.033311 0.183589
vt 0.174215 0.221017
vt 1.804332 0.005565
vt 1.804332 0.026339
vt 1.887193 0.026339
vt 1.887193 0.005565
vt 0.216348 0.187612
vt 1.789374 0.182248
vt 1.768599 0.182248
vt 1.768599 0.236123
vt 1.789374 0.236123
vt 1.805529 0.031519
vt 1.805529 0.052293
vt 1.247670 0.028023
vt 1.247670 0.004640
vt 1.482650 0.004640
vt 1.482650 0.028023
vt 1.013099 0.004640
vt 1.013099 0.028023
vt 0.013099 0.035950
vt 0.033344 0.089701
vt 0.050742 0.073167
vt 0.091703 0.052670
vt 0.768599 0.173922
vt 0.768599 0.005565
vt 0.789374 0.005565
vt 0.789374 0.173922
vt 0.712097 0.240138
vt 0.510628 0.240138
vt 0.510628 0.005565
vt 0.712097 0.005565
vt 0.494076 0.022117
vt 0.494076 0.223586
vt 1.728649 0.022117
vt 1.712097 0.005565
vt 1.712097 0.240138
vt 1.728649 0.223586
vt 0.756528 0.173923
vt 0.735754 0.173923
vt 0.735754 0.005565
vt 0.756528 0.005565
vt 0.987691 0.005565
vt 0.987691 0.026339
vt 0.904830 0.026339
vt 0.904830 0.005565
vt 0.248079 0.035950
vt 0.321528 0.052670
vt 0.279395 0.086592
vt 0.247975 0.086592
vt 0.735462 0.182255
vt 0.756236 0.182248
vt 0.756252 0.236123
vt 0.735477 0.236129
vt 0.868370 0.052293
vt 0.836950 0.052293
vt 0.836950 0.031519
vt 0.868370 0.031519
vt 0.174561 0.052670
vt 0.804332 0.005565
vt 0.887193 0.005565
vt 0.887193 0.026339
vt 0.804332 0.026339
vt 0.216556 0.086592
vt 0.789374 0.182248
vt 0.789374 0.236123
vt 0.768599 0.236123
vt 0.768599 0.182248
vt 0.805529 0.052293
vt 0.805529 0.031519
vt 0.482650 0.004640
vt 0.482650 0.028023
vt 0.247670 0.028023
vt 0.247670 0.004640
vt 0.013099 0.028023
vt 0.013099 0.004640
vt 1.813308 0.076559
vt 1.813308 0.060726
vt 1.965093 0.060726
vt 1.965093 0.076559
vt 1.494076 0.223586
vt 1.510628 0.240138
vt 1.510628 0.005565
vt 1.494076 0.022117
vt 0.728649 0.223586
vt 0.728649 0.022117
vt 1.992602 0.084338
vt 1.992602 0.236123
vt 1.932344 0.236123
vt 1.932344 0.084338
vt 0.921725 0.084338
vt 0.921725 0.236123
vt 0.906041 0.236123
vt 0.906041 0.084338
vt 0.992602 0.236123
vt 0.932344 0.236123
vt 0.932344 0.084338
vt 0.992602 0.084338
vt 1.813308 0.236123
vt 1.813308 0.084338
vt 1.404111 0.221017
vt 1.482773 0.238007
vt 1.247664 0.238007
vt 1.321181 0.221017
vt 1.987691 0.005565
vt 1.904830 0.026339
vt 1.987691 0.026339
vt 1.247767 0.187612
vt 1.279187 0.187612
vt 1.091356 0.221017
vt 1.013099 0.237414
vt 1.050605 0.200223
vt 1.033311 0.183589
vt 1.174215 0.221017
vt 1.887193 0.026339
vt 1.887193 0.005565
vt 1.216348 0.187612
vt 1.462584 0.184092
vt 1.445241 0.200655
vt 0.247670 -0.971977
vt 0.247670 -0.995360
vt 0.482650 -0.995360
vt 0.482650 -0.971977
vt 0.013099 -0.995360
vt 0.013099 -0.971977
vt 1.033344 0.089701
vt 1.013099 0.035950
vt 1.050742 0.073167
vt 1.091703 0.052670
vt 1.768599 0.173922
vt 1.768599 0.005565
vt 1.789374 0.005565
vt 1.789374 0.173922
vt 1.756528 0.005565
vt 1.756528 0.173923
vt 1.735754 0.173923
vt 1.735754 0.005565
vt 1.445241 0.073564
vt 1.404458 0.052813
vt 1.482773 0.035950
vt 1.248079 0.035950
vt 1.321528 0.052670
vt 1.279395 0.086592
vt 1.247975 0.086592
vt 1.174561 0.052670
vt 1.216556 0.086592
vt 1.789374 0.182248
vt 1.789374 0.236123
vt 1.768599 0.236123
vt 1.768599 0.182248
vt 0.404111 -0.778983
vt 0.482773 -0.761993
vt 0.247664 -0.761993
vt 0.321181 -0.778983
vt 0.987691 -0.994435
vt 0.904830 -0.994435
vt 0.904830 -0.973661
vt 0.987691 -0.973661
vt 0.247767 -0.812388
vt 0.279187 -0.812388
vt 0.735462 -0.817745
vt 0.735477 -0.763871
vt 0.756252 -0.763877
vt 0.756236 -0.817752
vt 0.868370 -0.947707
vt 0.868370 -0.968481
vt 0.836950 -0.968481
vt 0.836949 -0.947707
vt 0.091356 -0.778983
vt 0.013099 -0.762586
vt 0.050605 -0.799777
vt 0.033311 -0.816411
vt 0.174215 -0.778983
vt 0.804332 -0.994435
vt 0.804332 -0.973661
vt 0.887193 -0.973661
vt 0.887193 -0.994435
vt 0.216348 -0.812388
vt 0.789374 -0.817752
vt 0.768599 -0.817752
vt 0.768599 -0.763877
vt 0.789374 -0.763877
vt 0.805529 -0.968481
vt 0.805529 -0.947707
vt 0.462584 -0.815908
vt 0.445241 -0.799345
vt -0.752330 0.028023
vt -0.752330 0.004640
vt -0.517350 0.004640
vt -0.517350 0.028023
vt -0.986901 0.004640
vt -0.986901 0.028023
vt 0.033344 -0.910299
vt 0.013099 -0.964050
vt 0.050742 -0.926834
vt 0.091703 -0.947330
vt 0.768599 -0.826077
vt 0.768599 -0.994435
vt 0.789374 -0.994435
vt 0.789374 -0.826077
vt 0.404458 -0.947187
vt 0.445241 -0.926436
vt 0.462584 -0.909803
vt 0.482773 -0.964050
vt 0.756528 -0.994435
vt 0.756528 -0.826077
vt 0.735754 -0.826077
vt 0.735754 -0.994435
vt 0.321528 -0.947330
vt 0.248079 -0.964050
vt 0.279395 -0.913408
vt 0.247975 -0.913408
vt 0.174561 -0.947330
vt 0.216556 -0.913408
vt -0.012309 0.005565
vt -0.095170 0.005565
vt -0.095170 0.026339
vt -0.012309 0.026339
vt -0.752336 0.238007
vt -0.752233 0.187612
vt -0.720813 0.187612
vt -0.678819 0.221017
vt -0.264538 0.182255
vt -0.264523 0.236129
vt -0.243748 0.236123
vt -0.243764 0.182248
vt -0.131630 0.052293
vt -0.131630 0.031519
vt -0.163050 0.031519
vt -0.163051 0.052293
vt -0.908644 0.221017
vt -0.986901 0.237414
vt -0.949395 0.200223
vt -0.966689 0.183589
vt -0.825785 0.221017
vt -0.195668 0.005565
vt -0.195668 0.026339
vt -0.112807 0.026339
vt -0.112807 0.005565
vt -0.783652 0.187612
vt -0.210626 0.182248
vt -0.231401 0.182248
vt -0.231401 0.236123
vt -0.210626 0.236123
vt -0.194471 0.031519
vt -0.194471 0.052293
vt -0.537416 0.184092
vt -0.517227 0.238007
vt -0.554759 0.200655
vt -0.966656 0.089701
vt -0.986901 0.035950
vt -0.949258 0.073167
vt -0.908297 0.052670
vt -0.231401 0.173923
vt -0.231401 0.005565
vt -0.210626 0.005565
vt -0.210626 0.173923
vt -0.595889 0.221017
vt -0.595542 0.052813
vt -0.554759 0.073564
vt -0.537416 0.090197
vt -0.517227 0.035950
vt -0.243472 0.005565
vt -0.243472 0.173923
vt -0.264246 0.173923
vt -0.264246 0.005565
vt -0.678472 0.052670
vt -0.751921 0.035950
vt -0.720605 0.086592
vt -0.752025 0.086592
vt -0.825439 0.052670
vt -0.783444 0.086592
vt -0.210626 0.182248
vt -0.210626 0.236123
vt -0.231401 0.236123
vt -0.231401 0.182248
vt 0.482773 0.035950
vt 0.445241 0.073564
vt 0.404458 0.052813
vt 0.482773 0.238007
vt 0.404111 0.221017
vt 1.462584 0.090197
vt 0.462584 0.184092
vt 0.462584 0.090197
vt 0.445241 0.200655
s 1
f 4/1/1 1/2/1 2/3/1 3/4/1
f 1/5/2 4/6/2 5/7/2 6/8/2
f 3/9/3 2/10/3 7/11/3 8/12/3
f 8/13/4 7/14/4 6/15/4 5/16/4
f 12/17/1 9/18/1 10/19/1 11/20/1
f 9/21/2 12/22/2 13/23/2 14/24/2
f 11/25/3 10/26/3 15/27/3 16/28/3
f 16/29/4 15/30/4 14/31/4 13/32/4
f 23/33/5 25/34/5 88/35/5 86/36/5
f 24/37/6 23/38/7 86/39/7 87/40/6
f 18/41/8 20/42/9 19/43/10 17/44/10
f 83/45/11 17/46/11 19/47/11 22/48/11 85/48/11
f 37/49/4 34/50/4 33/51/4 35/52/4
f 36/53/3 40/54/3 38/55/3 35/56/3
f 39/57/12 37/58/12 35/59/12 38/60/12
f 39/61/4 38/62/4 40/63/4 41/64/4
f 42/65/3 30/66/3 32/67/3
f 30/66/3 31/68/3 32/67/3
f 36/53/3 30/66/3 42/65/3 44/69/3
f 42/70/4 43/71/4 45/72/4 44/73/4
f 46/74/3 40/54/3 36/53/3 44/69/3
f 44/75/13 45/76/13 47/77/13 46/78/13
f 40/63/4 46/79/4 47/80/4 41/64/4
f 48/81/14 36/82/14 28/83/14 27/84/14
f 30/85/14 36/82/14 48/81/14 29/86/14
f 31/68/3 30/66/3 52/87/3 53/88/3
f 42/65/3 32/67/3 54/89/3 64/90/3
f 65/91/5 43/92/5 42/93/5 64/94/5
f 80/95/5 76/96/5 28/97/5 50/98/5
f 27/99/5 28/97/5 76/96/5 75/100/5
f 51/101/15 52/102/15 82/103/15 81/104/15
f 56/105/15 55/106/15 33/107/15 34/108/15
f 59/109/1 57/110/1 55/111/1 56/112/1
f 58/113/3 57/114/3 60/115/3 62/116/3
f 61/117/16 60/118/16 57/119/16 59/120/16
f 61/121/1 63/122/1 62/123/1 60/124/1
f 64/90/3 54/89/3 52/87/3
f 52/87/3 54/89/3 53/88/3
f 58/113/3 66/125/3 64/90/3 52/87/3
f 64/126/1 66/127/1 67/128/1 65/129/1
f 68/130/3 66/125/3 58/113/3 62/116/3
f 66/131/17 68/132/17 69/133/17 67/134/17
f 62/123/1 63/122/1 69/135/1 68/136/1
f 49/137/18 50/138/18 58/139/18 70/140/18
f 52/141/18 51/142/18 70/140/18 58/139/18
f 72/143/19 71/144/20 73/145/20 74/146/19
f 53/143/21 54/144/22 97/145/22 96/146/21
f 77/147/15 78/148/15 30/149/15 29/150/15
f 30/149/15 78/148/15 82/103/15 52/102/15
f 79/151/5 80/95/5 50/98/5 49/152/5
f 84/143/23 83/144/24 85/145/24 21/146/25
f 84/153/23 21/154/25 20/155/9 18/156/8
f 26/157/26 89/158/26 88/159/27 25/160/27
f 87/161/6 89/162/26 26/163/26 24/164/6
f 31/41/28 95/42/28 94/43/29 32/44/29
f 91/41/30 93/42/30 92/43/31 90/44/31
f 90/46/15 92/47/15 73/165/15 71/166/15
f 53/153/21 96/154/21 95/155/28 31/156/28
f 93/155/30 91/156/30 72/153/19 74/154/19
f 32/46/15 94/47/15 97/48/15 54/45/15
f 100/167/1 75/168/1 103/169/1 102/170/1
f 104/171/3 101/50/3 100/172/3 102/173/3
f 103/169/1 107/174/1 105/175/1 102/170/1
f 106/57/32 104/58/32 102/59/32 105/60/32
f 106/61/3 105/62/3 107/63/3 108/64/3
f 109/176/1 77/177/1 90/178/1
f 77/177/1 91/179/1 90/178/1
f 103/169/1 77/177/1 109/176/1 111/180/1
f 109/70/3 110/71/3 112/181/3 111/182/3
f 113/183/1 107/174/1 103/169/1 111/180/1
f 111/75/33 112/76/33 114/77/33 113/78/33
f 107/63/3 113/79/3 114/80/3 108/64/3
f 98/184/1 75/168/1 99/185/1
f 75/168/1 100/167/1 99/185/1
f 115/186/34 103/187/34 75/188/34 76/189/34
f 77/190/34 103/187/34 115/186/34 78/191/34
f 72/192/1 91/179/1 77/177/1 29/193/1
f 109/176/1 90/178/1 71/194/1 125/195/1
f 126/196/5 110/197/5 109/198/5 125/199/5
f 101/200/15 118/201/15 117/202/15 100/203/15
f 17/204/1 117/205/1 27/206/1
f 120/171/2 119/173/2 117/172/2 118/50/2
f 48/207/1 119/208/1 121/209/1 123/210/1
f 122/57/35 121/60/35 119/59/35 120/58/35
f 122/61/2 124/64/2 123/63/2 121/62/2
f 125/195/1 71/194/1 29/193/1
f 29/193/1 71/194/1 72/192/1
f 48/207/1 127/211/1 125/195/1 29/193/1
f 125/70/2 127/182/2 128/181/2 126/71/2
f 129/212/1 127/211/1 48/207/1 123/210/1
f 127/213/36 129/214/36 130/215/36 128/216/36
f 123/63/2 124/64/2 130/80/2 129/79/2
f 131/217/2 80/218/2 134/219/2 133/220/2
f 135/221/1 132/222/1 131/223/1 133/224/1
f 134/219/2 138/225/2 136/226/2 133/220/2
f 137/227/16 135/228/16 133/229/16 136/230/16
f 137/231/1 136/232/1 138/233/1 139/234/1
f 140/235/2 82/236/2 97/237/2
f 82/236/2 96/238/2 97/237/2
f 134/219/2 82/236/2 140/235/2 142/239/2
f 140/240/1 141/241/1 143/242/1 142/243/1
f 144/244/2 138/225/2 134/219/2 142/239/2
f 142/245/17 143/246/17 145/247/17 144/248/17
f 138/233/1 144/249/1 145/250/1 139/234/1
f 89/251/2 80/218/2 88/252/2
f 80/218/2 131/217/2 88/252/2
f 146/253/37 134/254/37 80/255/37 79/256/37
f 82/257/37 134/254/37 146/253/37 81/258/37
f 95/259/2 96/238/2 82/236/2 78/260/2
f 140/235/2 97/237/2 94/261/2 155/262/2
f 156/263/5 141/264/5 140/265/5 155/266/5
f 131/217/2 147/267/2 86/268/2 88/252/2
f 87/269/2 76/270/2 80/218/2 89/251/2
f 132/271/15 148/272/15 147/273/15 131/274/15
f 147/267/2 149/275/2 115/276/2 76/270/2
f 150/221/4 149/224/4 147/223/4 148/222/4
f 115/276/2 149/275/2 151/277/2 153/278/2
f 152/227/12 151/230/12 149/229/12 150/228/12
f 152/231/4 154/234/4 153/233/4 151/232/4
f 155/262/2 94/261/2 78/260/2
f 78/260/2 94/261/2 95/259/2
f 115/276/2 157/279/2 155/262/2 78/260/2
f 155/240/4 157/243/4 158/242/4 156/241/4
f 159/280/2 157/279/2 115/276/2 153/278/2
f 157/245/13 159/248/13 160/247/13 158/246/13
f 153/233/4 154/234/4 160/250/4 159/249/4
f 87/269/2 86/268/2 76/270/2
f 76/270/2 86/268/2 147/267/2
f 166/281/2 164/282/2 163/283/2 165/284/2
f 70/285/4 169/286/4 167/287/4 165/288/4
f 168/289/35 166/290/35 165/291/35 167/292/35
f 168/293/2 167/294/2 169/295/2 170/296/2
f 171/297/4 51/298/4 73/299/4
f 51/298/4 74/300/4 73/299/4
f 70/285/4 51/298/4 171/297/4 173/301/4
f 171/302/2 172/303/2 174/304/2 173/305/2
f 175/306/4 169/286/4 70/285/4 173/301/4
f 173/307/36 174/308/36 176/309/36 175/310/36
f 169/295/2 175/311/2 176/312/2 170/296/2
f 161/313/4 49/314/4 162/315/4
f 93/316/4 74/300/4 51/298/4 81/317/4
f 171/297/4 73/299/4 92/318/4 185/319/4
f 186/320/5 172/321/5 171/322/5 185/323/5
f 163/324/4 177/325/4 22/326/4 162/315/4
f 21/327/4 79/328/4 49/314/4 161/313/4
f 164/329/15 178/330/15 177/331/15 163/332/15
f 177/325/4 179/333/4 146/334/4 79/328/4
f 180/281/3 179/284/3 177/283/3 178/282/3
f 146/334/4 179/333/4 181/335/4 183/336/4
f 182/289/32 181/292/32 179/291/32 180/290/32
f 182/293/3 184/296/3 183/295/3 181/294/3
f 185/319/4 92/318/4 81/317/4
f 81/317/4 92/318/4 93/316/4
f 146/334/4 187/337/4 185/319/4 81/317/4
f 185/302/3 187/305/3 188/304/3 186/303/3
f 189/338/4 187/337/4 146/334/4 183/336/4
f 187/339/33 189/340/33 190/341/33 188/342/33
f 183/295/3 184/296/3 190/312/3 189/311/3
f 21/327/4 22/326/4 79/328/4
f 79/328/4 22/326/4 177/325/4
f 50/343/3 25/344/3 55/345/3
f 28/346/3 36/53/3 35/56/3 33/347/3
f 17/204/1 27/206/1 18/348/1 116/204/1
f 18/348/1 27/206/1 75/168/1 98/184/1
f 17/204/1 99/185/1 100/167/1 117/205/1
f 27/206/1 117/205/1 119/208/1 48/207/1
f 28/346/3 24/349/3 26/350/3 50/343/3
f 28/346/3 33/347/3 23/351/3
f 28/346/3 23/351/3 24/349/3
f 58/113/3 50/343/3 55/345/3 57/114/3
f 50/343/3 26/350/3 25/344/3
f 55/345/3 25/344/3 23/351/3 33/347/3
f 162/315/4 49/314/4 163/324/4
f 163/324/4 49/314/4 70/285/4 165/288/4
